<svg id="Capa_1" enable-background="new 0 0 510 510" height="512" viewBox="0 0 510 510" width="512" xmlns="http://www.w3.org/2000/svg" xmlns:xlink="http://www.w3.org/1999/xlink"><linearGradient id="SVGID_1_" gradientUnits="userSpaceOnUse" x1="151.02" x2="367.511" y1="35.829" y2="484.275"><stop offset="0" stop-color="#eaf6ff"/><stop offset="1" stop-color="#b3dafe"/></linearGradient><linearGradient id="lg1"><stop offset="0" stop-color="#7bacdf" stop-opacity="0"/><stop offset="1" stop-color="#7bacdf"/></linearGradient><linearGradient id="SVGID_00000129914146655081438260000003267623339128502405_" gradientUnits="userSpaceOnUse" x1="101.125" x2="182.125" xlink:href="#lg1" y1="119.345" y2="368.345"/><linearGradient id="SVGID_00000049943742084674952270000006192013522003239300_" gradientUnits="userSpaceOnUse" x1="147.093" x2="228.093" xlink:href="#lg1" y1="104.392" y2="353.392"/><linearGradient id="SVGID_00000045583387513334243460000011949053879712746173_" gradientUnits="userSpaceOnUse" x1="197.263" x2="278.263" xlink:href="#lg1" y1="88.071" y2="337.071"/><linearGradient id="SVGID_00000181084010478069194580000011167603087958392991_" gradientUnits="userSpaceOnUse" x1="247.979" x2="328.979" xlink:href="#lg1" y1="71.573" y2="320.573"/><linearGradient id="SVGID_00000052811264860494268960000011865577187096325023_" gradientUnits="userSpaceOnUse" x1="297.518" x2="378.518" xlink:href="#lg1" y1="55.458" y2="304.458"/><linearGradient id="SVGID_00000158712026450948550890000000076965488536846227_" gradientUnits="userSpaceOnUse" x1="465" x2="505" xlink:href="#lg1" y1="251.216" y2="251.216"/><linearGradient id="SVGID_00000024719544101750748440000008802028042213487271_" gradientUnits="userSpaceOnUse" x1="255" x2="255" xlink:href="#lg1" y1="145" y2="106"/><linearGradient id="SVGID_00000048460426760086032620000014033050251151408543_" gradientUnits="userSpaceOnUse" x1="255" x2="255" xlink:href="#lg1" y1="416" y2="453.054"/><linearGradient id="SVGID_00000068648290513805326970000004756324713920632233_" gradientUnits="userSpaceOnUse" x1="480" x2="398.901" xlink:href="#lg1" y1="391.392" y2="391.392"/><linearGradient id="lg2"><stop offset="0" stop-color="#bec6ed"/><stop offset="1" stop-color="#925cb4"/></linearGradient><linearGradient id="SVGID_00000087406145556404794690000011749173859222007452_" gradientUnits="userSpaceOnUse" x1="245.488" x2="266.487" xlink:href="#lg2" y1="-10.293" y2="135.2"/><linearGradient id="SVGID_00000137834656289836353810000005764410160250093727_" gradientUnits="userSpaceOnUse" x1="245.427" x2="342.427" y1="140.132" y2="-356.868"><stop offset="0" stop-color="#eaf6ff" stop-opacity="0"/><stop offset="1" stop-color="#b3dafe"/></linearGradient><linearGradient id="SVGID_00000173130147093883644140000008984723175750552223_" gradientUnits="userSpaceOnUse" x1="465" x2="533.264" xlink:href="#lg1" y1="82.438" y2="82.438"/><linearGradient id="lg3"><stop offset="0" stop-color="#6f3f8a" stop-opacity="0"/><stop offset="1" stop-color="#6f3f8a"/></linearGradient><linearGradient id="SVGID_00000161614343572594019980000014087329034542487175_" gradientUnits="userSpaceOnUse" x1="255" x2="255" xlink:href="#lg3" y1="80.203" y2="125.201"/><linearGradient id="SVGID_00000065763578576321259300000008229918610675614084_" gradientUnits="userSpaceOnUse" x1="463.58" x2="508.603" xlink:href="#lg3" y1="55.614" y2="55.614"/><linearGradient id="SVGID_00000176013933191680279700000009209791767219252106_" gradientUnits="userSpaceOnUse" x1="137.5" x2="137.5" xlink:href="#lg2" y1="66" y2="42.657"/><linearGradient id="lg4"><stop offset="0" stop-color="#fd8087"/><stop offset="1" stop-color="#fd3e2b"/></linearGradient><linearGradient id="SVGID_00000134242744847424955910000012130623681254119318_" gradientUnits="userSpaceOnUse" x1="286.08" x2="314.502" xlink:href="#lg4" y1="39.358" y2="67.78"/><linearGradient id="SVGID_00000010310878268001203960000007871121952554956429_" gradientUnits="userSpaceOnUse" x1="368.86" x2="400.376" y1="45.14" y2="76.656"><stop offset="0" stop-color="#fee97d"/><stop offset="1" stop-color="#fea613"/></linearGradient><linearGradient id="SVGID_00000112625559926298165470000010195537686802788747_" gradientUnits="userSpaceOnUse" x1="440.074" x2="468.496" y1="39.358" y2="67.78"><stop offset="0" stop-color="#aeffd1"/><stop offset="1" stop-color="#57be92"/></linearGradient><linearGradient id="SVGID_00000139296118668475351910000013942108281802822816_" gradientUnits="userSpaceOnUse" x1="219.478" x2="289.975" xlink:href="#lg4" y1="335.131" y2="495.623"/><linearGradient id="lg5"><stop offset="0" stop-color="#e41f2d" stop-opacity="0"/><stop offset=".3461" stop-color="#de1e2b" stop-opacity=".346"/><stop offset=".8036" stop-color="#ce1b28" stop-opacity=".804"/><stop offset="1" stop-color="#c41926"/></linearGradient><linearGradient id="SVGID_00000083060080779294043570000010278783316686995125_" gradientUnits="userSpaceOnUse" x1="371.333" x2="402.217" xlink:href="#lg5" y1="416" y2="416"/><linearGradient id="SVGID_00000011005651693737204300000009521032142949090729_" gradientUnits="userSpaceOnUse" x1="255" x2="255" xlink:href="#lg5" y1="472.667" y2="510.149"/><linearGradient id="SVGID_00000056427759116628142260000006750135829049190283_" gradientUnits="userSpaceOnUse" x1="224.534" x2="295.2" xlink:href="#lg5" y1="327.965" y2="493.299"/><linearGradient id="lg6"><stop offset="0" stop-color="#5a5a5a"/><stop offset="1" stop-color="#444"/></linearGradient><linearGradient id="SVGID_00000069364561507782604290000017002802928925649282_" gradientUnits="userSpaceOnUse" x1="156.588" x2="180.588" xlink:href="#lg6" y1="387.425" y2="495.425"/><linearGradient id="SVGID_00000114075781185527828860000015206627674058265270_" gradientUnits="userSpaceOnUse" x1="244.466" x2="268.466" xlink:href="#lg6" y1="367.897" y2="475.897"/><linearGradient id="SVGID_00000179644469344807436140000013739574103045926017_" gradientUnits="userSpaceOnUse" x1="322.416" x2="346.416" xlink:href="#lg6" y1="350.574" y2="458.574"/><g><g><g><g><path d="m477.216 448.784h-444.432c-12.583 0-22.784-10.201-22.784-22.784v-349.568c0-12.584 10.201-22.784 22.784-22.784h444.431c12.584 0 22.784 10.201 22.784 22.784v349.568c.001 12.583-10.2 22.784-22.783 22.784z" fill="url(#SVGID_1_)"/><g><path d="m162.423 230.506c2.851 0 4.466-3.04 4.466-6.556 0-3.04-1.33-6.365-4.466-6.365h-33.82c-3.229 0-6.46 1.521-6.46 4.561v60.326c0 3.039 3.23 4.56 6.46 4.56h33.82c3.136 0 4.466-3.325 4.466-6.365 0-3.515-1.615-6.555-4.466-6.555h-25.46v-16.15h14.25c3.136 0 4.465-3.04 4.465-5.605 0-3.04-1.614-5.795-4.465-5.795h-14.25v-16.055h25.46z" fill="url(#SVGID_00000129914146655081438260000003267623339128502405_)"/><path d="m209.448 257.201c6.65-2.565 11.495-8.646 11.495-19.285 0-15.485-10.355-20.331-23.37-20.331h-19.665c-2.755 0-4.561 2.091-4.561 4.466v60.421c0 3.039 3.705 4.56 7.41 4.56s7.41-1.521 7.41-4.56v-22.896h6.271l13.015 25.271c1.045 1.994 2.851 2.755 4.75 2.755 4.37 0 9.311-3.99 9.311-7.695 0-.476-.096-1.14-.476-1.71zm-11.875-9.025h-9.405v-17.67h9.405c5.32 0 8.55 2.185 8.55 8.835s-3.23 8.835-8.55 8.835z" fill="url(#SVGID_00000049943742084674952270000006192013522003239300_)"/><path d="m264.927 257.201c6.65-2.565 11.495-8.646 11.495-19.285 0-15.485-10.355-20.331-23.37-20.331h-19.665c-2.755 0-4.561 2.091-4.561 4.466v60.421c0 3.039 3.705 4.56 7.41 4.56s7.41-1.521 7.41-4.56v-22.896h6.271l13.015 25.271c1.045 1.994 2.851 2.755 4.75 2.755 4.37 0 9.311-3.99 9.311-7.695 0-.476-.095-1.14-.476-1.71zm-11.875-9.025h-9.405v-17.67h9.405c5.32 0 8.55 2.185 8.55 8.835s-3.229 8.835-8.55 8.835z" fill="url(#SVGID_00000045583387513334243460000011949053879712746173_)"/><path d="m306.823 217.585c-13.11 0-23.275 6.08-23.275 22.421v25.175c0 16.341 10.165 22.421 23.275 22.421s23.37-6.08 23.37-22.421v-25.175c0-16.341-10.26-22.421-23.37-22.421zm8.55 47.596c0 6.556-3.229 9.5-8.55 9.5s-8.455-2.944-8.455-9.5v-25.175c0-6.556 3.135-9.5 8.455-9.5s8.55 2.944 8.55 9.5z" fill="url(#SVGID_00000181084010478069194580000011167603087958392991_)"/><path d="m387.381 278.196-11.59-20.995c6.65-2.565 11.495-8.646 11.495-19.285 0-15.485-10.355-20.331-23.37-20.331h-19.665c-2.755 0-4.561 2.091-4.561 4.466v60.421c0 3.039 3.705 4.56 7.41 4.56s7.41-1.521 7.41-4.56v-22.896h6.271l13.015 25.271c1.045 1.994 2.851 2.755 4.75 2.755 4.37 0 9.311-3.99 9.311-7.695 0-.476-.096-1.14-.476-1.711zm-23.464-30.02h-9.405v-17.67h9.405c5.32 0 8.55 2.185 8.55 8.835s-3.23 8.835-8.55 8.835z" fill="url(#SVGID_00000052811264860494268960000011865577187096325023_)"/></g><g fill="#fff"><path d="m148.773 155.287h-105.658c-5.311 0-9.615 4.305-9.615 9.615s4.305 9.615 9.615 9.615h105.657c5.31 0 9.615-4.305 9.615-9.615.001-5.31-4.304-9.615-9.614-9.615z"/><path d="m110.185 199.675c0-5.31-4.305-9.615-9.615-9.615h-57.455c-5.311 0-9.615 4.305-9.615 9.615 0 5.311 4.305 9.615 9.615 9.615h57.454c5.311 0 9.616-4.304 9.616-9.615z"/><path d="m61.781 391.957c5.311 0 9.615-4.305 9.615-9.615 0-5.311-4.305-9.615-9.615-9.615h-18.666c-5.31 0-9.615 4.305-9.615 9.615s4.305 9.615 9.615 9.615z"/></g><path d="m477.216 53.647h-170.216v395.137h170.216c12.583 0 22.784-10.201 22.784-22.784v-349.568c0-12.584-10.201-22.785-22.784-22.785z" fill="url(#SVGID_00000158712026450948550890000000076965488536846227_)"/><path d="m477.216 53.647h-444.432c-12.583 0-22.784 10.201-22.784 22.785v152.568h490v-152.568c0-12.584-10.201-22.785-22.784-22.785z" fill="url(#SVGID_00000024719544101750748440000008802028042213487271_)"/><path d="m10 269v157c0 12.583 10.201 22.784 22.784 22.784h444.431c12.584 0 22.785-10.201 22.785-22.784v-157z" fill="url(#SVGID_00000048460426760086032620000014033050251151408543_)"/><path d="m395.5 334v114.784h81.716c8.945 0 16.682-5.157 20.411-12.658z" fill="url(#SVGID_00000068648290513805326970000004756324713920632233_)"/></g><g><path d="m488.686 0h-467.372c-11.772 0-21.314 9.542-21.314 21.314v68.601c0 11.771 9.542 21.314 21.314 21.314h467.373c11.771 0 21.314-9.542 21.314-21.314v-68.601c-.001-11.772-9.543-21.314-21.315-21.314z" fill="url(#SVGID_00000087406145556404794690000011749173859222007452_)"/><g><path d="m477.216 53.647h-444.432c-12.583 0-22.784 10.201-22.784 22.785v31.523c3.281 2.062 7.152 3.274 11.314 3.274h467.373c4.162 0 8.032-1.211 11.314-3.274v-31.523c-.001-12.584-10.202-22.785-22.785-22.785z" fill="url(#SVGID_00000137834656289836353810000005764410160250093727_)"/><path d="m477.216 53.647h-170.216v57.581h181.686c4.162 0 8.032-1.211 11.314-3.274v-31.522c0-12.584-10.201-22.785-22.784-22.785z" fill="url(#SVGID_00000173130147093883644140000008984723175750552223_)"/></g><path d="m0 29.206v60.709c0 11.771 9.542 21.314 21.314 21.314h467.373c11.771 0 21.314-9.542 21.314-21.314v-60.709z" fill="url(#SVGID_00000161614343572594019980000014087329034542487175_)"/><path d="m488.686 0h-137.6v111.228h137.601c11.771 0 21.314-9.542 21.314-21.314v-68.6c-.001-11.772-9.543-21.314-21.315-21.314z" fill="url(#SVGID_00000065763578576321259300000008229918610675614084_)"/></g></g><path d="m234 63.114h-193c-4.142 0-7.5-3.358-7.5-7.5s3.358-7.5 7.5-7.5h193c4.142 0 7.5 3.358 7.5 7.5s-3.358 7.5-7.5 7.5z" fill="url(#SVGID_00000176013933191680279700000009209791767219252106_)"/><g><circle cx="302.336" cy="55.614" fill="url(#SVGID_00000134242744847424955910000012130623681254119318_)" r="28.499"/><circle cx="379.333" cy="55.614" fill="url(#SVGID_00000010310878268001203960000007871121952554956429_)" r="28.499"/><circle cx="456.331" cy="55.614" fill="url(#SVGID_00000112625559926298165470000010195537686802788747_)" r="28.499"/></g></g><g><g><path d="m370.133 510h-230.266c-19.256 0-34.867-15.611-34.867-34.867v-118.266c0-19.256 15.611-34.867 34.867-34.867h230.266c19.256 0 34.867 15.611 34.867 34.867v118.266c0 19.256-15.611 34.867-34.867 34.867z" fill="url(#SVGID_00000139296118668475351910000013942108281802822816_)"/><path d="m370.133 322h-116.8v188h116.799c19.257 0 34.868-15.611 34.868-34.867v-118.266c0-19.256-15.611-34.867-34.867-34.867z" fill="url(#SVGID_00000083060080779294043570000010278783316686995125_)"/><path d="m105 398v77.133c0 19.256 15.611 34.867 34.867 34.867h230.266c19.256 0 34.867-15.611 34.867-34.867v-77.133z" fill="url(#SVGID_00000011005651693737204300000009521032142949090729_)"/><path d="m370.133 322h-230.266c-19.256 0-34.867 15.611-34.867 34.867v91.917h300v-91.917c0-19.256-15.611-34.867-34.867-34.867z" fill="url(#SVGID_00000056427759116628142260000006750135829049190283_)"/></g><g><path d="m202.749 426.26h-6.84v-11.135c0-5.249-6.204-7.476-12.408-7.476s-12.407 2.227-12.407 7.476v11.135h-13.681l28.156-56.471c.477-1.114.795-2.068.795-3.022 0-5.727-8.113-9.385-12.408-9.385-3.977 0-7.954 1.75-10.34 6.363l-36.746 72.06c-.954 1.75-1.272 3.5-1.272 4.772 0 5.567 3.659 8.59 8.272 8.59h37.223v16.861c0 5.091 6.204 7.636 12.407 7.636 6.204 0 12.408-2.545 12.408-7.636v-16.861h6.84c3.818 0 7.636-5.727 7.636-11.454.001-5.726-2.545-11.453-7.635-11.453z" fill="url(#SVGID_00000069364561507782604290000017002802928925649282_)"/><path d="m255.081 357.382c-21.952 0-38.973 10.181-38.973 37.541v42.154c0 27.361 17.021 37.542 38.973 37.542s39.132-10.181 39.132-37.542v-42.154c0-27.361-17.181-37.541-39.132-37.541zm14.316 79.695c0 10.976-5.409 15.907-14.317 15.907s-14.158-4.931-14.158-15.907v-42.154c0-10.976 5.25-15.907 14.158-15.907s14.317 4.931 14.317 15.907z" fill="url(#SVGID_00000114075781185527828860000015206627674058265270_)"/><path d="m376.767 426.26h-6.841v-11.135c0-5.249-6.204-7.476-12.407-7.476-6.204 0-12.408 2.227-12.408 7.476v11.135h-13.68l28.155-56.471c.478-1.114.796-2.068.796-3.022 0-5.727-8.113-9.385-12.408-9.385-3.977 0-7.953 1.75-10.34 6.363l-36.745 72.06c-.955 1.75-1.272 3.5-1.272 4.772 0 5.567 3.658 8.59 8.271 8.59h37.223v16.861c0 5.091 6.204 7.636 12.408 7.636 6.203 0 12.407-2.545 12.407-7.636v-16.861h6.841c3.817 0 7.635-5.727 7.635-11.454-.001-5.726-2.546-11.453-7.635-11.453z" fill="url(#SVGID_00000179644469344807436140000013739574103045926017_)"/></g></g></g></svg>