<svg id="Layer_1" enable-background="new 0 0 512 512" viewBox="0 0 512 512" xmlns="http://www.w3.org/2000/svg" xmlns:xlink="http://www.w3.org/1999/xlink"><linearGradient id="lg1"><stop offset="0" stop-color="#c8effe"/><stop offset="1" stop-color="#91dcfa"/></linearGradient><linearGradient id="SVGID_1_" gradientUnits="userSpaceOnUse" x1="326.715" x2="483.322" xlink:href="#lg1" y1="275.691" y2="343.153"/><linearGradient id="lg2"><stop offset="0" stop-color="#60b7ff" stop-opacity="0"/><stop offset=".1999" stop-color="#5cb5fe" stop-opacity=".2"/><stop offset=".4071" stop-color="#50aefe" stop-opacity=".407"/><stop offset=".6176" stop-color="#3ba3fd" stop-opacity=".618"/><stop offset=".829" stop-color="#1e92fd" stop-opacity=".829"/><stop offset="1" stop-color="#0182fc"/></linearGradient><linearGradient id="SVGID_00000017503418024311107210000001164553624261560459_" gradientUnits="userSpaceOnUse" x1="428.627" x2="470.388" xlink:href="#lg2" y1="291.064" y2="288.654"/><linearGradient id="SVGID_00000181785912438619330050000008853352098901805227_" gradientUnits="userSpaceOnUse" x1="411.991" x2="411.991" xlink:href="#lg2" y1="407.934" y2="432.882"/><linearGradient id="SVGID_00000135676974249889321070000004045822752659783075_" gradientUnits="userSpaceOnUse" x1="382.554" x2="359.264" xlink:href="#lg2" y1="405.463" y2="411.887"/><linearGradient id="SVGID_00000041269192906822781240000016056719507550730884_" gradientUnits="userSpaceOnUse" x1="401.069" x2="360.111" xlink:href="#lg2" y1="192.985" y2="193.788"/><linearGradient id="SVGID_00000091003460793512372040000017048853817578270857_" gradientUnits="userSpaceOnUse" x1="153.076" x2="367.645" xlink:href="#lg1" y1="460.769" y2="460.769"/><linearGradient id="SVGID_00000034777079872159557120000005036556738916183946_" gradientUnits="userSpaceOnUse" x1="214.589" x2="214.589" xlink:href="#lg2" y1="492.261" y2="511.535"/><linearGradient id="SVGID_00000082350599920024271670000001838959212076973986_" gradientUnits="userSpaceOnUse" x1="325.171" x2="365.327" xlink:href="#lg2" y1="456.813" y2="452.798"/><linearGradient id="SVGID_00000019636547087957345490000005957077259682651319_" gradientUnits="userSpaceOnUse" x1="157.895" x2="274.545" y1="280.47" y2="280.47"><stop offset="0" stop-color="#fef0ae"/><stop offset="1" stop-color="#fac600"/></linearGradient><linearGradient id="lg3"><stop offset="0" stop-color="#fff" stop-opacity="0"/><stop offset="1" stop-color="#fff"/></linearGradient><linearGradient id="SVGID_00000126306041079861736780000007215146945655213977_" gradientUnits="userSpaceOnUse" x1="188.298" x2="168.999" xlink:href="#lg3" y1="411.076" y2="391.777"/><linearGradient id="SVGID_00000088134159544231894380000010260400306319390593_" gradientUnits="userSpaceOnUse" x1="206.367" x2="187.068" xlink:href="#lg3" y1="349.821" y2="330.522"/><linearGradient id="SVGID_00000049179763139374847700000007947987327351906495_" gradientUnits="userSpaceOnUse" x1="227.381" x2="214.607" xlink:href="#lg3" y1="384.359" y2="371.585"/><linearGradient id="SVGID_00000130619545399900532450000016881207724178483362_" gradientUnits="userSpaceOnUse" x1="243.498" x2="230.723" xlink:href="#lg3" y1="306.741" y2="293.967"/><linearGradient id="SVGID_00000165943501095151837440000002227357920798602391_" gradientUnits="userSpaceOnUse" x1="258.107" x2="245.333" xlink:href="#lg3" y1="362.675" y2="349.901"/><linearGradient id="SVGID_00000048499389197423822760000009848540105611197061_" gradientUnits="userSpaceOnUse" x1="273.925" x2="254.626" xlink:href="#lg3" y1="255.91" y2="236.611"/><linearGradient id="SVGID_00000113334246973024423470000008639319850905133453_" gradientUnits="userSpaceOnUse" x1="166.354" x2="147.056" xlink:href="#lg3" y1="268.625" y2="249.327"/><linearGradient id="SVGID_00000145045017073707483320000014097924992163451273_" gradientUnits="userSpaceOnUse" x1="236.024" x2="216.725" xlink:href="#lg3" y1="296.919" y2="277.62"/><linearGradient id="SVGID_00000104700843613351445160000005381118655302432676_" gradientUnits="userSpaceOnUse" x1="187.368" x2="174.594" xlink:href="#lg3" y1="303.163" y2="290.389"/><linearGradient id="SVGID_00000008841462166326839160000010271826280784625310_" gradientUnits="userSpaceOnUse" x1="203.485" x2="190.71" xlink:href="#lg3" y1="212.212" y2="199.437"/><linearGradient id="SVGID_00000183224998299329264530000000819693052828087211_" gradientUnits="userSpaceOnUse" x1="244.036" x2="231.262" xlink:href="#lg3" y1="232.72" y2="219.946"/><linearGradient id="SVGID_00000029743939578153737590000004870990550402368433_" gradientUnits="userSpaceOnUse" x1="124.432" x2="92.303" xlink:href="#lg3" y1="291.488" y2="291.488"/><linearGradient id="SVGID_00000032608221507209827440000017166538316334312619_" gradientUnits="userSpaceOnUse" x1="308.076" x2="273.806" xlink:href="#lg3" y1="291.488" y2="291.488"/><linearGradient id="SVGID_00000057140735228386789170000001152556070779221950_" gradientUnits="userSpaceOnUse" x1="210.632" x2="179.039" xlink:href="#lg3" y1="291.488" y2="291.488"/><linearGradient id="lg4"><stop offset="0" stop-color="#fe9738" stop-opacity="0"/><stop offset="1" stop-color="#fe9738"/></linearGradient><linearGradient id="SVGID_00000028317167131315881920000017320958401731331240_" gradientUnits="userSpaceOnUse" x1="316.643" x2="354.052" xlink:href="#lg4" y1="280.47" y2="280.47"/><linearGradient id="SVGID_00000125568644054564218650000002983951026660906676_" gradientUnits="userSpaceOnUse" x1="214.592" x2="214.592" xlink:href="#lg4" y1="220.479" y2="137.619"/><linearGradient id="SVGID_00000031894796693524677910000016614480704826891681_" gradientUnits="userSpaceOnUse" x1="361.183" x2="293.721" xlink:href="#lg4" y1="223.624" y2="196.72"/><linearGradient id="SVGID_00000144314867599919787180000014255829677279711419_" gradientUnits="userSpaceOnUse" x1="214.592" x2="214.592" xlink:href="#lg4" y1="418.107" y2="451.876"/><linearGradient id="SVGID_00000092427332794267449570000006603716872612509328_" gradientUnits="userSpaceOnUse" x1="189.216" x2="278.087" y1="42.299" y2="262.338"><stop offset="0" stop-color="#f5fdff"/><stop offset="1" stop-color="#b4d2e2"/></linearGradient><linearGradient id="lg5"><stop offset="0" stop-color="#7bacdf" stop-opacity="0"/><stop offset="1" stop-color="#7bacdf"/></linearGradient><linearGradient id="SVGID_00000141416353611633339580000005582732309565022623_" gradientUnits="userSpaceOnUse" x1="77.573" x2="77.573" xlink:href="#lg5" y1="93.059" y2="171.4"/><linearGradient id="SVGID_00000111887553870101350930000003415436736586397080_" gradientUnits="userSpaceOnUse" x1="293.934" x2="293.934" xlink:href="#lg5" y1="227.975" y2="260.104"/><linearGradient id="SVGID_00000115508621902544789570000010976079736902427831_" gradientUnits="userSpaceOnUse" x1="98.029" x2="61.435" xlink:href="#lg5" y1="37.823" y2="31.645"/><linearGradient id="SVGID_00000066489480024624075840000016973375900197443982_" gradientUnits="userSpaceOnUse" x1="123.921" x2="101.584" xlink:href="#lg5" y1="132.529" y2="137.282"/><linearGradient id="SVGID_00000103983418620547157120000015808520973514836393_" gradientUnits="userSpaceOnUse" x1="175.766" x2="157.707" xlink:href="#lg5" y1="43.886" y2="15.847"/><linearGradient id="SVGID_00000181799327177442097460000006499274842525506216_" gradientUnits="userSpaceOnUse" x1="189.699" x2="275.719" xlink:href="#lg5" y1="69.449" y2="114.597"/><linearGradient id="SVGID_00000003087588371693462760000011205535215678210472_" gradientUnits="userSpaceOnUse" x1="251.328" x2="228.517" xlink:href="#lg5" y1="60.242" y2="32.202"/><linearGradient id="SVGID_00000147216947541007167240000007401791527906227343_" gradientUnits="userSpaceOnUse" x1="238.411" x2="255.678" xlink:href="#lg5" y1="159.15" y2="191.676"/><linearGradient id="SVGID_00000017489532450673677190000007954489097836948873_" gradientUnits="userSpaceOnUse" x1="352.7" x2="363.408" xlink:href="#lg5" y1="109.759" y2="154.733"/><linearGradient id="SVGID_00000137834378426241224220000001192108108137113265_" gradientUnits="userSpaceOnUse" x1="322.891" x2="355.208" xlink:href="#lg5" y1="49.59" y2="37.234"/><linearGradient id="SVGID_00000165206780627421997280000001327133156811377302_" gradientUnits="userSpaceOnUse" x1="307.61" x2="331.168" xlink:href="#lg5" y1="194.63" y2="204.535"/><g><g><g><path d="m406.084 432.544h-69.096v-39.43h69.096c12.394 0 24.037-5.473 31.945-15.016s11.122-22 8.82-34.178l-21.833-115.478c-3.7-19.573-20.845-33.78-40.764-33.78h-32.809v-39.43h32.809c38.853 0 72.291 27.709 79.508 65.885l21.833 115.478c4.49 23.752-1.78 48.049-17.203 66.662-15.424 18.612-38.133 29.287-62.306 29.287z" fill="url(#SVGID_1_)"/></g><path d="m466.221 340.258-21.832-115.478c-5.465-28.905-30.72-49.833-60.137-49.833h-32.808v19.715h32.809c19.92 0 37.064 14.207 40.764 33.78l21.833 115.478c2.302 12.178-.913 24.635-8.82 34.178-7.908 9.542-19.551 15.016-31.945 15.016h-69.096v19.715h69.096c38.358 0 67.262-34.881 60.136-72.571z" fill="url(#SVGID_00000017503418024311107210000001164553624261560459_)"/><path d="m447.567 350.913c.18 9.842-3.142 19.467-9.538 27.185-7.908 9.542-19.551 15.016-31.945 15.016h-69.096v39.43h69.096c24.173 0 46.882-10.675 62.306-29.288 12.327-14.876 18.787-33.385 18.599-52.343z" fill="url(#SVGID_00000181785912438619330050000008853352098901805227_)"/><path d="m447.567 350.913c.18 9.842-3.142 19.467-9.538 27.185-7.908 9.542-19.551 15.016-31.945 15.016h-69.096v39.43h69.096c24.173 0 46.882-10.675 62.306-29.288 12.327-14.876 18.787-33.385 18.599-52.343z" fill="url(#SVGID_00000135676974249889321070000004045822752659783075_)"/><path d="m463.761 221.117c-7.217-38.177-40.656-65.885-79.508-65.885h-32.809v39.43h32.809c19.92 0 37.064 14.207 40.764 33.78l.379 2.005h40.129z" fill="url(#SVGID_00000041269192906822781240000016056719507550730884_)"/></g><path d="m355.516 512h-281.849c-12.449 0-21.856-10.195-21.856-21.799 0-2.219.349-4.495 1.082-6.759 3.864-11.919 7.21-23.985 10.038-36.152l151.661-37.752 151.661 37.752c2.828 12.167 6.174 24.233 10.038 36.152 4.562 14.093-5.949 28.558-20.775 28.558z" fill="url(#SVGID_00000091003460793512372040000017048853817578270857_)"/><path d="m355.516 512h-281.849c-12.449 0-21.856-10.195-21.856-21.799 0-2.219.349-4.495 1.082-6.759 3.864-11.919 7.21-23.985 10.038-36.152l151.661-37.752 151.661 37.752c2.828 12.167 6.174 24.233 10.038 36.152 4.562 14.093-5.949 28.558-20.775 28.558z" fill="url(#SVGID_00000034777079872159557120000005036556738916183946_)"/><path d="m366.253 447.289-151.661-37.752-.002.001v102.462h140.927c14.826 0 25.337-14.465 20.774-28.559-3.865-11.919-7.211-23.985-10.038-36.152z" fill="url(#SVGID_00000082350599920024271670000001838959212076973986_)"/><path d="m366.264 447.289h-303.344c9.531-40.929 13.192-83.086 10.815-125.175l-11.739-208.463h305.192l-11.739 208.463c-2.377 42.089 1.284 84.246 10.815 125.175z" fill="url(#SVGID_00000019636547087957345490000005957077259682651319_)"/><g><g opacity=".55"><circle cx="182.75" cy="405.528" fill="url(#SVGID_00000126306041079861736780000007215146945655213977_)" r="10.894"/><circle cx="200.819" cy="344.273" fill="url(#SVGID_00000088134159544231894380000010260400306319390593_)" r="10.894"/><circle cx="222.763" cy="379.741" fill="url(#SVGID_00000049179763139374847700000007947987327351906495_)" r="7.175"/><circle cx="238.88" cy="302.123" fill="url(#SVGID_00000130619545399900532450000016881207724178483362_)" r="7.175"/><circle cx="253.489" cy="358.058" fill="url(#SVGID_00000165943501095151837440000002227357920798602391_)" r="7.175"/></g><g><circle cx="268.377" cy="250.362" fill="url(#SVGID_00000048499389197423822760000009848540105611197061_)" r="10.894"/><circle cx="160.806" cy="263.078" fill="url(#SVGID_00000113334246973024423470000008639319850905133453_)" r="10.894"/><circle cx="230.476" cy="291.371" fill="url(#SVGID_00000145045017073707483320000014097924992163451273_)" r="10.894"/><circle cx="182.75" cy="298.546" fill="url(#SVGID_00000104700843613351445160000005381118655302432676_)" r="7.175"/><circle cx="198.867" cy="207.594" fill="url(#SVGID_00000008841462166326839160000010271826280784625310_)" r="7.175"/><circle cx="239.418" cy="228.103" fill="url(#SVGID_00000183224998299329264530000000819693052828087211_)" r="7.175"/></g></g><g><path d="m122.757 421.592c-13.425 0-24.045-11.496-22.83-24.866 2.247-24.713 2.818-49.672 1.68-74.611l-6.174-136.783c-.589-13.047 9.83-23.947 22.891-23.947h1.854c12.414 0 22.57 9.885 22.906 22.294l3.745 138.436c.713 26.054.312 52.128-1.189 77.922-.705 12.107-10.755 21.555-22.883 21.555z" fill="url(#SVGID_00000029743939578153737590000004870990550402368433_)"/><path d="m306.427 421.592c-12.128 0-22.178-9.448-22.883-21.556-1.5-25.794-1.902-51.868-1.189-77.922l3.745-138.436c.336-12.409 10.492-22.294 22.906-22.294h1.854c13.061 0 23.48 10.9 22.891 23.947l-6.174 136.783c-1.138 24.939-.567 49.898 1.68 74.611 1.216 13.371-9.404 24.867-22.83 24.867z" fill="url(#SVGID_00000032608221507209827440000017166538316334312619_)"/><path d="m219.111 421.592h-9.039c-12.877 0-23.194-10.605-22.904-23.478.566-25.167.717-50.593.442-75.999l-1.485-137.569c-.138-12.751 10.161-23.161 22.913-23.161h11.108c12.752 0 23.05 10.41 22.913 23.161l-1.485 137.569c-.275 25.407-.124 50.833.442 75.999.289 12.873-10.028 23.478-22.905 23.478z" fill="url(#SVGID_00000057140735228386789170000001152556070779221950_)"/></g><path d="m367.188 113.651h-152.599v333.638h151.675c-9.531-40.929-13.192-83.086-10.815-125.175z" fill="url(#SVGID_00000028317167131315881920000017320958401731331240_)"/><path d="m71.032 274.114h287.12l9.036-160.463h-305.192z" fill="url(#SVGID_00000125568644054564218650000002983951026660906676_)"/><path d="m294.916 231.429-21.016 21.016 81.069 81.069c.116-3.8.264-7.6.479-11.4l11.739-208.463h-72.271z" fill="url(#SVGID_00000031894796693524677910000016614480704826891681_)"/><path d="m74.073 329.229c1.602 39.721-2.159 79.437-11.153 118.06h303.344c-8.994-38.623-12.755-78.339-11.153-118.06z" fill="url(#SVGID_00000144314867599919787180000014255829677279711419_)"/><g><path d="m351.611 52.587c-1.651 0-3.281.086-4.893.235-1.913-13.844-13.785-24.506-28.155-24.506-11.42 0-21.261 6.736-25.783 16.449-7.403-6.139-16.908-9.831-27.277-9.831-10.18 0-19.524 3.563-26.866 9.503-9.191-15.317-25.955-25.57-45.118-25.57-10.789 0-20.816 3.254-29.162 8.827-6.095-16.181-21.711-27.694-40.022-27.694-23.615 0-42.759 19.144-42.759 42.759 0 3.476.425 6.851 1.208 10.087-1.714-.169-3.452-.259-5.211-.259-29.71 0-53.665 24.638-52.549 54.596 1.007 27.038 22.851 49.167 49.874 50.511 11.555.575 22.332-2.597 31.254-8.387 7.328 13.025 21.274 21.829 37.283 21.829 14.221 0 26.813-6.949 34.587-17.629 5.221 23.545 26.211 41.158 51.327 41.158 12.105 0 23.246-4.101 32.134-10.974 1.902 3.478 4.273 6.662 7.028 9.468 6.03 6.14 6.968 15.85 2.057 22.916-3.764 5.417-5.692 12.205-4.882 19.466 1.512 13.554 12.808 24.253 26.419 25.105 16.53 1.034 30.26-12.066 30.26-28.374 0-4.529-1.059-8.809-2.943-12.608-3.817-7.697-1.506-17.146 5.35-22.323 10.333-7.802 17.011-20.185 17.011-34.131 0-2.198-.167-4.358-.487-6.467 3.336.664 6.784 1.018 10.315 1.018 29.043 0 52.587-23.544 52.587-52.587-.001-29.043-23.545-52.587-52.587-52.587z" fill="url(#SVGID_00000092427332794267449570000006603716872612509328_)"/><circle cx="77.573" cy="105.174" fill="url(#SVGID_00000141416353611633339580000005582732309565022623_)" r="52.587"/><circle cx="293.934" cy="232.272" fill="url(#SVGID_00000111887553870101350930000003415436736586397080_)" r="28.431"/><path d="m167.095 42.757c0 22.937-18.059 41.661-40.749 42.72-7.165-17.744-23.748-30.688-43.565-32.626-.789-3.233-1.205-6.613-1.205-10.094 0-23.613 19.141-42.754 42.754-42.754 23.624 0 42.765 19.141 42.765 42.754z" fill="url(#SVGID_00000115508621902544789570000010976079736902427831_)"/><path d="m186.191 128.378c0 23.613-19.141 42.754-42.754 42.754-16.009 0-29.956-8.787-37.29-21.811 14.454-9.362 24.019-25.641 24.019-44.151 0-5.757-.924-11.311-2.636-16.493 4.923-1.972 10.286-3.053 15.907-3.053 23.613 0 42.754 19.14 42.754 42.754z" fill="url(#SVGID_00000066489480024624075840000016973375900197443982_)"/><path d="m246.103 71.451c0 29.043-23.546 52.589-52.589 52.589-25.528 0-46.787-18.183-51.564-42.303 14.837-6.714 25.145-21.653 25.145-38.98 0-5.306-.969-10.398-2.738-15.085 8.348-5.565 18.375-8.81 29.156-8.81 29.044 0 52.59 23.546 52.59 52.589z" fill="url(#SVGID_00000103983418620547157120000015808520973514836393_)"/><path d="m246.103 71.451c0 29.043-23.546 52.589-52.589 52.589-25.528 0-46.787-18.183-51.564-42.303 14.837-6.714 25.145-21.653 25.145-38.98 0-5.306-.969-10.398-2.738-15.085 8.348-5.565 18.375-8.81 29.156-8.81 29.044 0 52.59 23.546 52.59 52.589z" fill="url(#SVGID_00000181799327177442097460000006499274842525506216_)"/><path d="m308.267 77.693c0 23.613-19.152 42.754-42.765 42.754-12.843 0-24.357-5.655-32.187-14.612 7.954-9.215 12.787-21.236 12.787-34.383 0-9.88-2.726-19.118-7.469-27.015 7.334-5.948 16.685-9.508 26.869-9.508 23.614-.002 42.765 19.15 42.765 42.764z" fill="url(#SVGID_00000003087588371693462760000011205535215678210472_)"/><circle cx="229.348" cy="142.078" fill="url(#SVGID_00000147216947541007167240000007401791527906227343_)" r="52.587"/><path d="m404.196 105.17c0 29.043-23.546 52.589-52.589 52.589-3.526 0-6.974-.349-10.308-1.014-3.008-19.817-19.603-35.172-40.005-36.242-1.487-4.844-2.276-10.004-2.276-15.333 0-29.043 23.546-52.578 52.589-52.578 29.044 0 52.589 23.535 52.589 52.578z" fill="url(#SVGID_00000017489532450673677190000007954489097836948873_)"/><path d="m346.707 52.818c-18.442 1.701-34.124 12.922-42.089 28.705-8.652-4.878-14.488-14.139-14.488-24.774 0-15.705 12.73-28.435 28.435-28.435 14.363 0 26.238 10.658 28.142 24.504z" fill="url(#SVGID_00000137834378426241224220000001192108108137113265_)"/><path d="m341.783 163.212c0 13.947-6.681 26.328-17.011 34.124-2.49 1.882-4.371 4.315-5.588 7.03-2.141 4.777-2.197 10.398.237 15.299 1.881 3.797 2.94 8.078 2.94 12.606 0 16.313-13.722 29.404-30.26 28.379-3.571-.225-6.974-1.149-10.083-2.591v-134.098c5.205-2.264 10.962-3.515 17-3.515 21.428 0 39.16 15.75 42.281 36.299.315 2.107.484 4.27.484 6.467z" fill="url(#SVGID_00000165206780627421997280000001327133156811377302_)"/></g></g><g/><g/><g/><g/><g/><g/><g/><g/><g/><g/><g/><g/><g/><g/><g/></svg>