<svg id="Capa_1" enable-background="new 0 0 510 510" height="512" viewBox="0 0 510 510" width="512" xmlns="http://www.w3.org/2000/svg" xmlns:xlink="http://www.w3.org/1999/xlink"><linearGradient id="lg1"><stop offset="0" stop-color="#eaf6ff"/><stop offset="1" stop-color="#b3dafe"/></linearGradient><linearGradient id="SVGID_1_" gradientUnits="userSpaceOnUse" x1="195.345" x2="195.345" xlink:href="#lg1" y1="474.091" y2="512.091"/><linearGradient id="lg2"><stop offset="0" stop-color="#d8ecfe" stop-opacity="0"/><stop offset="1" stop-color="#678d98"/></linearGradient><linearGradient id="SVGID_00000129914810337901385140000015719907738168876721_" gradientUnits="userSpaceOnUse" x1="195.345" x2="195.345" xlink:href="#lg2" y1="501.091" y2="471.075"/><linearGradient id="SVGID_00000071531827843689537290000017268450649012996493_" gradientUnits="userSpaceOnUse" x1="337.095" x2="441.095" xlink:href="#lg1" y1="275.299" y2="343.299"/><linearGradient id="SVGID_00000078004652623325693250000001536979749562375863_" gradientUnits="userSpaceOnUse" x1="424" x2="366.86" xlink:href="#lg2" y1="200.804" y2="200.804"/><linearGradient id="SVGID_00000179636060649484708990000006293044402595441835_" gradientUnits="userSpaceOnUse" x1="424" x2="366.86" xlink:href="#lg2" y1="357.01" y2="357.01"/><linearGradient id="SVGID_00000025441191945558411980000012615551821772705464_" gradientUnits="userSpaceOnUse" x1="157.621" x2="250.287" xlink:href="#lg1" y1="247.857" y2="355.857"/><linearGradient id="SVGID_00000026164518881508724000000002175821150628592045_" gradientUnits="userSpaceOnUse" x1="190.255" x2="190.255" xlink:href="#lg2" y1="400.977" y2="486.654"/><linearGradient id="lg3"><stop offset="0" stop-color="#ffdfcf"/><stop offset="1" stop-color="#ffa78f"/></linearGradient><linearGradient id="SVGID_00000090981689459035119130000007479154002224960165_" gradientUnits="userSpaceOnUse" x1="176.186" x2="206.186" xlink:href="#lg3" y1="138.678" y2="191.678"/><linearGradient id="lg4"><stop offset="0" stop-color="#fff" stop-opacity="0"/><stop offset="1" stop-color="#fff"/></linearGradient><linearGradient id="SVGID_00000154402421751104445130000014625315405809804936_" gradientUnits="userSpaceOnUse" x1="204.776" x2="150.276" xlink:href="#lg4" y1="195.193" y2="100.193"/><linearGradient id="SVGID_00000075153574660423409810000017916923826387846567_" gradientUnits="userSpaceOnUse" x1="258.562" x2="279.562" xlink:href="#lg3" y1="162.51" y2="231.51"/><linearGradient id="SVGID_00000165200471220113324940000012940006394614723766_" gradientUnits="userSpaceOnUse" x1="268.418" x2="246.918" xlink:href="#lg4" y1="194.785" y2="130.285"/><linearGradient id="lg5"><stop offset="0" stop-color="#904d24"/><stop offset="1" stop-color="#6d3326"/></linearGradient><linearGradient id="SVGID_00000093858734722239238600000014406347800424973246_" gradientUnits="userSpaceOnUse" x1="141.858" x2="231.858" xlink:href="#lg5" y1="249.942" y2="364.942"/><linearGradient id="SVGID_00000124147752221881302940000008980410321949827972_" gradientUnits="userSpaceOnUse" x1="62.379" x2="125.379" xlink:href="#lg5" y1="162.367" y2="233.867"/><linearGradient id="SVGID_00000173858155458478478170000011111837265296879755_" gradientUnits="userSpaceOnUse" x1="190.255" x2="190.255" y1="382.97" y2="443.504"><stop offset="0" stop-color="#433f43" stop-opacity="0"/><stop offset="1" stop-color="#433f43"/></linearGradient><linearGradient id="SVGID_00000139284551157639196110000001718545116814425729_" gradientUnits="userSpaceOnUse" x1="144.001" x2="246.001" xlink:href="#lg1" y1="49.957" y2="223.957"/><linearGradient id="SVGID_00000084491010732326131660000009300396141495630988_" gradientUnits="userSpaceOnUse" x1="178.628" x2="280.628" xlink:href="#lg1" y1="29.658" y2="203.658"/><linearGradient id="SVGID_00000025439392172486589990000009226674068134686131_" gradientUnits="userSpaceOnUse" x1="202.116" x2="304.116" xlink:href="#lg1" y1="15.889" y2="189.889"/><g><g><path d="m283.539 510h-176.389c-10.196 0-18.461-8.265-18.461-18.461v-17.578h213.311v17.578c0 10.196-8.265 18.461-18.461 18.461z" fill="url(#SVGID_1_)"/><path d="m283.539 510h-176.389c-10.196 0-18.461-8.265-18.461-18.461v-17.578h213.311v17.578c0 10.196-8.265 18.461-18.461 18.461z" fill="url(#SVGID_00000129914810337901385140000015719907738168876721_)"/><path d="m361.619 410.5h-86.418c-13.429 0-24.315-10.886-24.315-24.315s10.886-24.315 24.315-24.315h86.418c45.553 0 84.673-32.504 93.02-77.286l6.339-34.015c1.685-9.038-2.293-15.479-4.816-18.514-2.521-3.035-8.125-8.127-17.319-8.127h-163.642c-13.429 0-24.315-10.886-24.315-24.315s10.886-24.315 24.315-24.315h163.642c21.219 0 41.165 9.36 54.724 25.68s19.106 37.643 15.219 58.501l-6.339 34.015c-12.638 67.798-71.864 117.006-140.828 117.006z" fill="url(#SVGID_00000071531827843689537290000017268450649012996493_)"/><g><path d="m275.201 175.297c-13.429 0-24.315 10.886-24.315 24.315s10.886 24.315 24.315 24.315h163.642c4.078 0 7.447 1.004 10.157 2.384v-50.266c-3.34-.478-6.729-.748-10.157-.748z" fill="url(#SVGID_00000078004652623325693250000001536979749562375863_)"/><path d="m449 303.521c-14.403 34.716-48.546 58.349-87.381 58.349h-86.418c-13.429 0-24.315 10.886-24.315 24.315s10.886 24.315 24.315 24.315h86.418c32.603 0 63.025-11.002 87.381-29.762z" fill="url(#SVGID_00000179636060649484708990000006293044402595441835_)"/></g><path d="m268.338 480.457h-156.165c-61.952 0-112.173-50.221-112.173-112.172v-192.175c0-21.095 17.101-38.196 38.196-38.196h304.119c21.095 0 38.196 17.101 38.196 38.196v192.174c0 61.952-50.222 112.173-112.173 112.173z" fill="url(#SVGID_00000025441191945558411980000012615551821772705464_)"/><path d="m0 300.424v67.86c0 61.951 50.221 112.173 112.173 112.173h156.165c61.951 0 112.173-50.221 112.173-112.173v-67.86z" fill="url(#SVGID_00000026164518881508724000000002175821150628592045_)"/><path d="m213.996 108.916c-18.153-4.587-33.894-4.587-52.047 0-10.232 2.586-17.443 11.743-17.443 22.297v56.549c0 10.889 7.649 20.308 18.316 22.495 17.504 3.588 32.932 3.574 50.326.003 10.657-2.188 18.292-11.61 18.292-22.49v-56.557c-.001-10.554-7.212-19.712-17.444-22.297z" fill="url(#SVGID_00000090981689459035119130000007479154002224960165_)"/><path d="m144.505 137.914v49.848c0 10.889 7.649 20.308 18.316 22.495 17.503 3.588 32.932 3.574 50.326.003 10.657-2.188 18.292-11.61 18.292-22.49v-49.855h-86.934z" fill="url(#SVGID_00000154402421751104445130000014625315405809804936_)"/><path d="m324.528 186.963c-6.351-17.614-15.155-30.662-29.111-43.145-7.867-7.036-19.491-7.891-28.24-1.988l-46.876 31.629c-9.026 6.09-12.556 17.7-8.403 27.765 6.816 16.516 15.457 29.298 28.147 41.72 7.775 7.611 19.855 8.669 28.874 2.584l46.882-31.634c8.749-5.903 12.307-17.003 8.727-26.931z" fill="url(#SVGID_00000075153574660423409810000017916923826387846567_)"/><path d="m324.528 186.963c-6.351-17.614-15.155-30.662-29.111-43.145-7.867-7.036-19.491-7.891-28.24-1.988l-46.876 31.629c-9.026 6.09-12.556 17.7-8.403 27.765 6.816 16.516 15.457 29.298 28.147 41.72 7.775 7.611 19.855 8.669 28.874 2.584l46.882-31.634c8.749-5.903 12.307-17.003 8.727-26.931z" fill="url(#SVGID_00000165200471220113324940000012940006394614723766_)"/><path d="m46.953 194.418c-8.807 1.96-15.072 9.783-15.113 18.805-.221 48.738-.34 141.248-.34 141.248 0 51.694 41.906 93.601 93.601 93.601h130.31c51.694 0 93.601-41.906 93.601-93.601 0 0-.001-63.586-.003-111.046 0-10.256-8.043-18.627-18.281-19.229-86.552-5.086-152.5-58.988-283.775-29.778z" fill="url(#SVGID_00000093858734722239238600000014406347800424973246_)"/><path d="m90.805 128.519h-34.9c-13.147 0-23.805 10.658-23.805 23.805v60.753c0 12.54 10.166 22.705 22.705 22.705 12.54 0 22.705-10.166 22.705-22.705v-7.438c0-5.838 4.732-10.57 10.57-10.57 5.838 0 10.57 4.732 10.57 10.57v34.058c0 12.54 10.166 22.705 22.705 22.705h.132c12.488 0 22.632-10.085 22.705-22.573l.335-57.272c.176-29.793-23.928-54.038-53.722-54.038z" fill="url(#SVGID_00000124147752221881302940000008980410321949827972_)"/><path d="m349.011 354.471s0-18.621-.001-54.046h-317.407c-.067 36.26-.103 54.046-.103 54.046 0 51.694 41.906 93.601 93.601 93.601h130.31c51.693-.001 93.6-41.907 93.6-93.601z" fill="url(#SVGID_00000173858155458478478170000011111837265296879755_)"/></g><g><path d="m165.19 67.878-.318-.462c-8.997-13.06-13.764-28.482-13.791-44.193-.005-2.972-3.735-4.295-5.619-1.997l-8.088 9.865c-6.859 8.365-6.256 20.568 1.393 28.217 8.965 13.014 13.735 28.381 13.791 44.051.01 2.9 3.541 4.302 5.505 2.168l6.736-7.324c6.549-9.003 6.706-21.158.391-30.325z" fill="url(#SVGID_00000139284551157639196110000001718545116814425729_)"/><path d="m199.958 47.819-.318-.462c-8.997-13.06-13.764-28.482-13.791-44.193-.005-2.972-3.735-4.295-5.619-1.997l-8.088 9.865c-6.858 8.365-6.256 20.568 1.393 28.217 8.965 13.014 13.735 28.381 13.791 44.051.01 2.9 3.541 4.302 5.504 2.168l6.736-7.324c6.55-9.003 6.707-21.158.392-30.325z" fill="url(#SVGID_00000084491010732326131660000009300396141495630988_)"/><path d="m243.275 67.878-.318-.462c-8.997-13.06-13.764-28.482-13.791-44.193-.005-2.972-3.735-4.295-5.619-1.997l-8.088 9.865c-6.859 8.365-6.256 20.568 1.393 28.217 8.965 13.014 13.735 28.381 13.791 44.051.01 2.9 3.541 4.302 5.504 2.168l6.736-7.324c6.551-9.003 6.708-21.158.392-30.325z" fill="url(#SVGID_00000025439392172486589990000009226674068134686131_)"/></g></g></svg>