<?xml version="1.0" encoding="iso-8859-1"?>
<!-- Generator: Adobe Illustrator 19.0.0, SVG Export Plug-In . SVG Version: 6.00 Build 0)  -->
<svg version="1.1" id="Capa_1" xmlns="http://www.w3.org/2000/svg" xmlns:xlink="http://www.w3.org/1999/xlink" x="0px" y="0px"
	 viewBox="0 0 512.001 512.001" style="enable-background:new 0 0 512.001 512.001;" xml:space="preserve">
<linearGradient id="SVGID_1_" gradientUnits="userSpaceOnUse" x1="257.7896" y1="138.7936" x2="257.7896" y2="33.4636" gradientTransform="matrix(1.0039 0 0 -1.0039 0.1922 516.562)">
	<stop  offset="0" style="stop-color:#E2EDF2"/>
	<stop  offset="0.207" style="stop-color:#DFEAEF"/>
	<stop  offset="0.386" style="stop-color:#D4DFE5"/>
	<stop  offset="0.554" style="stop-color:#C2CED6"/>
	<stop  offset="0.716" style="stop-color:#A9B6BF"/>
	<stop  offset="0.872" style="stop-color:#8996A3"/>
	<stop  offset="1" style="stop-color:#697786"/>
</linearGradient>
<ellipse style="fill:url(#SVGID_1_);" cx="258.993" cy="417.542" rx="253.008" ry="54.583"/>
<linearGradient id="SVGID_2_" gradientUnits="userSpaceOnUse" x1="257.7896" y1="156.0336" x2="257.7896" y2="-50.6364" gradientTransform="matrix(1.0039 0 0 -1.0039 0.1922 516.562)">
	<stop  offset="0" style="stop-color:#E2EDF2"/>
	<stop  offset="0.207" style="stop-color:#DFEAEF"/>
	<stop  offset="0.386" style="stop-color:#D4DFE5"/>
	<stop  offset="0.554" style="stop-color:#C2CED6"/>
	<stop  offset="0.716" style="stop-color:#A9B6BF"/>
	<stop  offset="0.872" style="stop-color:#8996A3"/>
	<stop  offset="1" style="stop-color:#697786"/>
</linearGradient>
<ellipse style="fill:url(#SVGID_2_);" cx="258.993" cy="415.765" rx="253.008" ry="52.802"/>
<linearGradient id="SVGID_3_" gradientUnits="userSpaceOnUse" x1="257.7896" y1="61.7136" x2="257.7896" y2="221.4336" gradientTransform="matrix(1.0039 0 0 -1.0039 0.1922 516.562)">
	<stop  offset="0" style="stop-color:#E2EDF2"/>
	<stop  offset="0.207" style="stop-color:#DFEAEF"/>
	<stop  offset="0.386" style="stop-color:#D4DFE5"/>
	<stop  offset="0.554" style="stop-color:#C2CED6"/>
	<stop  offset="0.716" style="stop-color:#A9B6BF"/>
	<stop  offset="0.872" style="stop-color:#8996A3"/>
	<stop  offset="1" style="stop-color:#697786"/>
</linearGradient>
<ellipse style="fill:url(#SVGID_3_);" cx="258.993" cy="411.438" rx="233.623" ry="40.807"/>
<linearGradient id="SVGID_4_" gradientUnits="userSpaceOnUse" x1="350.9784" y1="35.2632" x2="278.6983" y2="254.8032" gradientTransform="matrix(1.0039 0 0 -1.0039 0.1922 516.562)">
	<stop  offset="0" style="stop-color:#E2EDF2;stop-opacity:0"/>
	<stop  offset="0.352" style="stop-color:#BBC7CF;stop-opacity:0.352"/>
	<stop  offset="1" style="stop-color:#697786"/>
</linearGradient>
<path style="fill:url(#SVGID_4_);" d="M512.001,415.767c0-29.162-113.276-52.802-253.008-52.802
	c-45.342,0-87.891,2.492-124.695,6.851l98.473,98.473c8.621,0.185,17.368,0.281,26.222,0.281
	C398.726,468.569,512.001,444.929,512.001,415.767z"/>
<linearGradient id="SVGID_5_" gradientUnits="userSpaceOnUse" x1="295.581" y1="67.8245" x2="236.231" y2="156.2945" gradientTransform="matrix(1.0039 0 0 -1.0039 0.1922 516.562)">
	<stop  offset="0" style="stop-color:#E2EDF2;stop-opacity:0"/>
	<stop  offset="0.352" style="stop-color:#BBC7CF;stop-opacity:0.352"/>
	<stop  offset="1" style="stop-color:#697786"/>
</linearGradient>
<path style="fill:url(#SVGID_5_);" d="M313.769,399.562h-111.57v10.022c0,2.825,1.391,5.321,3.522,6.855l52.128,52.128
	c0.383,0,0.762,0.003,1.145,0.003c42.508,0,82.559-2.191,117.726-6.057L313.769,399.562z"/>
<linearGradient id="SVGID_6_" gradientUnits="userSpaceOnUse" x1="252.1973" y1="89.6241" x2="268.7593" y2="167.1532" gradientTransform="matrix(1.0039 0 0 -1.0039 0.1922 516.562)">
	<stop  offset="0" style="stop-color:#E2EDF2"/>
	<stop  offset="0.146" style="stop-color:#D9E5EA"/>
	<stop  offset="0.382" style="stop-color:#C2CDD5"/>
	<stop  offset="0.678" style="stop-color:#9BA8B3"/>
	<stop  offset="1" style="stop-color:#697786"/>
</linearGradient>
<path style="fill:url(#SVGID_6_);" d="M305.32,418.035h-94.671c-4.666,0-8.449-3.783-8.449-8.449v-10.022h111.57v10.022
	C313.769,414.251,309.986,418.035,305.32,418.035z"/>
<radialGradient id="SVGID_7_" cx="64.0196" cy="354.1036" r="411.89" gradientTransform="matrix(1.0039 0 0 -1.0039 0.1922 516.562)" gradientUnits="userSpaceOnUse">
	<stop  offset="0" style="stop-color:#E2EDF2"/>
	<stop  offset="0.433" style="stop-color:#E0EBF0"/>
	<stop  offset="0.589" style="stop-color:#D9E5EA"/>
	<stop  offset="0.7" style="stop-color:#CED9E0"/>
	<stop  offset="0.79" style="stop-color:#BDC9D1"/>
	<stop  offset="0.867" style="stop-color:#A7B3BD"/>
	<stop  offset="0.934" style="stop-color:#8C99A5"/>
	<stop  offset="0.994" style="stop-color:#6D7B89"/>
	<stop  offset="1" style="stop-color:#697786"/>
</radialGradient>
<path style="fill:url(#SVGID_7_);" d="M448.283,225.037c0,44.492-15.265,85.41-40.846,117.807
	c-22.173,28.105-52.109,49.793-86.567,61.855c-3.091,1.082-6.321,1.713-9.591,1.858c-17.047,0.757-34.898,1.157-53.295,1.157
	s-36.25-0.4-53.295-1.157c-3.271-0.146-6.5-0.776-9.591-1.858c-34.459-12.061-64.395-33.749-86.567-61.855
	c-25.581-32.398-40.846-73.316-40.846-117.807C67.684,186.418,448.283,188.296,448.283,225.037z"/>
<linearGradient id="SVGID_8_" gradientUnits="userSpaceOnUse" x1="245.6456" y1="342.0149" x2="279.2456" y2="192.7649" gradientTransform="matrix(1.0039 0 0 -1.0039 0.1922 516.562)">
	<stop  offset="0" style="stop-color:#E2EDF2"/>
	<stop  offset="0.146" style="stop-color:#D9E5EA"/>
	<stop  offset="0.382" style="stop-color:#C2CDD5"/>
	<stop  offset="0.678" style="stop-color:#9BA8B3"/>
	<stop  offset="1" style="stop-color:#697786"/>
</linearGradient>
<ellipse style="fill:url(#SVGID_8_);" cx="257.989" cy="222.901" rx="190.303" ry="26.81"/>
<radialGradient id="SVGID_9_" cx="306.2841" cy="420.6382" r="192.8412" gradientTransform="matrix(1.0555 0 0 -1.2197 -65.3011 735.0253)" gradientUnits="userSpaceOnUse">
	<stop  offset="0" style="stop-color:#E2EDF2"/>
	<stop  offset="0.267" style="stop-color:#DFEAF0"/>
	<stop  offset="0.442" style="stop-color:#D7E2E8"/>
	<stop  offset="0.59" style="stop-color:#C8D3DA"/>
	<stop  offset="0.723" style="stop-color:#B2BFC8"/>
	<stop  offset="0.847" style="stop-color:#97A4AF"/>
	<stop  offset="0.961" style="stop-color:#768492"/>
	<stop  offset="1" style="stop-color:#697786"/>
</radialGradient>
<ellipse style="fill:url(#SVGID_9_);" cx="257.989" cy="221.988" rx="181.429" ry="22.741"/>
<linearGradient id="SVGID_10_" gradientUnits="userSpaceOnUse" x1="272.5811" y1="264.9251" x2="126.2611" y2="411.2451" gradientTransform="matrix(1.0039 0 0 -1.0039 0.1922 516.562)">
	<stop  offset="0" style="stop-color:#654E48"/>
	<stop  offset="1" style="stop-color:#503837"/>
</linearGradient>
<path style="fill:url(#SVGID_10_);" d="M107.765,234.741c32.633,6.026,87.736,9.985,150.22,9.985s117.586-3.959,150.22-9.985
	c-32.633-6.026-87.736-9.985-150.22-9.985S140.397,228.715,107.765,234.741z"/>
<linearGradient id="SVGID_11_" gradientUnits="userSpaceOnUse" x1="47.9275" y1="202.9283" x2="128.1775" y2="237.7883" gradientTransform="matrix(1.0039 0 0 -1.0039 0.1922 516.562)">
	<stop  offset="0" style="stop-color:#E2EDF2"/>
	<stop  offset="0.146" style="stop-color:#D9E5EA"/>
	<stop  offset="0.382" style="stop-color:#C2CDD5"/>
	<stop  offset="0.678" style="stop-color:#9BA8B3"/>
	<stop  offset="1" style="stop-color:#697786"/>
</linearGradient>
<path style="fill:url(#SVGID_11_);" d="M91.008,369.997c-10.824,2.291-21.495-4.652-23.786-15.476l-1.588-7.504
	c-0.69-3.261,1.393-6.462,4.654-7.153c3.261-0.691,6.462,1.393,7.153,4.654l1.588,7.504c0.914,4.315,5.165,7.082,9.48,6.168
	c4.315-0.914,7.082-5.165,6.168-9.48c-3.263-15.416-18.459-25.305-33.876-22.042l-13.178,2.789
	c-20.312,4.299-40.335-8.729-44.633-29.041l-2.169-10.25c-4.299-20.312,8.729-40.335,29.041-44.633
	c20.312-4.299,40.335,8.729,44.633,29.041l0.89,4.21c1.928,9.109-3.914,18.088-13.024,20.016
	c-9.109,1.928-18.088-3.914-20.016-13.024l-0.542-2.563c-0.69-3.261,1.393-6.463,4.654-7.153s6.462,1.393,7.153,4.654l0.542,2.563
	c0.55,2.599,3.111,4.266,5.71,3.715c2.599-0.55,4.266-3.111,3.716-5.71l-0.89-4.21c-2.92-13.802-16.526-22.655-30.327-19.733
	c-13.802,2.92-22.654,16.526-19.733,30.327l2.169,10.25c2.92,13.802,16.526,22.654,30.327,19.733l13.178-2.789
	c21.928-4.64,43.541,9.423,48.181,31.35C108.776,357.036,101.834,367.706,91.008,369.997z"/>
<linearGradient id="SVGID_12_" gradientUnits="userSpaceOnUse" x1="142.6296" y1="179.144" x2="8.2676" y2="186.434" gradientTransform="matrix(1.0039 0 0 -1.0039 0.1922 516.562)">
	<stop  offset="0" style="stop-color:#E2EDF2;stop-opacity:0"/>
	<stop  offset="0.352" style="stop-color:#BBC7CF;stop-opacity:0.352"/>
	<stop  offset="1" style="stop-color:#697786"/>
</linearGradient>
<path style="fill:url(#SVGID_12_);" d="M72.185,266.336c6.287,28.414,18.919,54.44,36.345,76.509
	c22.173,28.106,52.109,49.792,86.567,61.854c3.091,1.082,6.321,1.714,9.591,1.858c2.659,0.117,5.345,0.224,8.042,0.324
	L72.185,266.336z"/>
<linearGradient id="SVGID_13_" gradientUnits="userSpaceOnUse" x1="221.6296" y1="244.3296" x2="355.5396" y2="244.3296" gradientTransform="matrix(1.0039 0 0 -1.0039 0.1922 516.562)">
	<stop  offset="0" style="stop-color:#FFE7A5"/>
	<stop  offset="0.216" style="stop-color:#FFE29C"/>
	<stop  offset="0.577" style="stop-color:#FFD482"/>
	<stop  offset="1" style="stop-color:#FFBF5C"/>
</linearGradient>
<path style="fill:url(#SVGID_13_);" d="M412.522,256.652c-42.115,8.001-96.999,12.408-154.534,12.408
	c-57.545,0-112.429-4.407-154.544-12.408c-14.175-2.701-25.449-5.522-34.344-8.252c1.155,9.437,3.002,18.653,5.481,27.608
	c5.331,1.345,11.023,2.65,17.087,3.895c44.554,9.196,103.625,14.256,166.32,14.256c62.685,0,121.756-5.06,166.31-14.256
	c6.064-1.245,11.756-2.55,17.077-3.895c2.49-8.955,4.337-18.181,5.491-27.618C437.972,251.131,426.698,253.952,412.522,256.652z"/>
<linearGradient id="SVGID_14_" gradientUnits="userSpaceOnUse" x1="367.4858" y1="271.0198" x2="341.2259" y2="297.2798" gradientTransform="matrix(1.0039 0 0 -1.0039 0.1922 516.562)">
	<stop  offset="0" style="stop-color:#E2EDF2;stop-opacity:0"/>
	<stop  offset="0.352" style="stop-color:#BBC7CF;stop-opacity:0.352"/>
	<stop  offset="1" style="stop-color:#697786"/>
</linearGradient>
<path style="fill:url(#SVGID_14_);" d="M390.736,232c-12.352-1.667-26.66-3.096-42.476-4.227
	c-10.021-0.725-20.638-1.329-31.75-1.806l1.766-9.099l3.721-19.219c12.878,0.645,25.122,1.488,36.543,2.491
	c0.129,0.01,0.248,0.02,0.367,0.03L390.736,232z"/>
<linearGradient id="SVGID_15_" gradientUnits="userSpaceOnUse" x1="331.5096" y1="317.2746" x2="375.0696" y2="317.2746" gradientTransform="matrix(1.0039 0 0 -1.0039 0.1922 516.562)">
	<stop  offset="0" style="stop-color:#E2EDF2"/>
	<stop  offset="0.146" style="stop-color:#D9E5EA"/>
	<stop  offset="0.382" style="stop-color:#C2CDD5"/>
	<stop  offset="0.678" style="stop-color:#9BA8B3"/>
	<stop  offset="1" style="stop-color:#697786"/>
</linearGradient>
<path style="fill:url(#SVGID_15_);" d="M365.115,178.959c0,2.252-0.397,4.564-1.24,6.846l-11.996,32.227l-6.125,16.464
	c-0.336,0.904-1.164,1.534-2.125,1.602c-5.288,0.379-10.797,0.576-16.454,0.576c-3.337,0-6.62-0.07-9.832-0.208
	c-1.499-0.064-2.582-1.458-2.297-2.93l3.23-16.666l8.046-41.613c1.776-9.198,9.832-15.845,19.209-15.845
	C356.742,159.413,365.115,168.591,365.115,178.959z"/>
<radialGradient id="SVGID_16_" cx="41.108" cy="783.7789" r="194.05" gradientTransform="matrix(0.963 -0.284 -0.284 -0.963 365.0722 830.4239)" gradientUnits="userSpaceOnUse">
	<stop  offset="0" style="stop-color:#E2EDF2"/>
	<stop  offset="0.433" style="stop-color:#E0EBF0"/>
	<stop  offset="0.589" style="stop-color:#D9E5EA"/>
	<stop  offset="0.7" style="stop-color:#CED9E0"/>
	<stop  offset="0.79" style="stop-color:#BDC9D1"/>
	<stop  offset="0.867" style="stop-color:#A7B3BD"/>
	<stop  offset="0.934" style="stop-color:#8C99A5"/>
	<stop  offset="0.994" style="stop-color:#6D7B89"/>
	<stop  offset="1" style="stop-color:#697786"/>
</radialGradient>
<path style="fill:url(#SVGID_16_);" d="M255.808,39.877c14.465-0.139,26.304,11.476,26.441,25.94c0.015,1.551-0.113,3.07-0.357,4.55
	c11.849,5.783,20.068,17.887,20.204,31.968c0.166,17.335-12.08,31.442-28.27,35.453c-34.915,8.652-23.235,38.739-23.235,38.739
	c-1.933,2.576-5.715,2.8-7.939,0.47l-6.205-6.502c-7.909-8.288-12.371-19.275-12.481-30.731l0,0
	c-0.091-9.6-5.145-18.307-13.089-23.695c-7.99-5.419-13.278-14.539-13.377-24.924c-0.161-16.819,13.342-30.582,30.161-30.743
	c0.946-0.009,1.879,0.031,2.804,0.106C232.995,48.813,243.339,39.997,255.808,39.877z"/>
<radialGradient id="SVGID_17_" cx="125.338" cy="648.0889" r="133.37" gradientTransform="matrix(0.963 -0.284 -0.284 -0.963 365.0722 830.4239)" gradientUnits="userSpaceOnUse">
	<stop  offset="0" style="stop-color:#E2EDF2;stop-opacity:0"/>
	<stop  offset="0.433" style="stop-color:#E0EBF0;stop-opacity:0.433"/>
	<stop  offset="0.589" style="stop-color:#D9E5EA;stop-opacity:0.589"/>
	<stop  offset="0.7" style="stop-color:#CED9E0;stop-opacity:0.7"/>
	<stop  offset="0.79" style="stop-color:#BDC9D1;stop-opacity:0.79"/>
	<stop  offset="0.867" style="stop-color:#A7B3BD;stop-opacity:0.867"/>
	<stop  offset="0.934" style="stop-color:#8C99A5;stop-opacity:0.934"/>
	<stop  offset="0.994" style="stop-color:#6D7B89;stop-opacity:0.994"/>
	<stop  offset="1" style="stop-color:#697786"/>
</radialGradient>
<circle style="fill:url(#SVGID_17_);" cx="266.161" cy="102.682" r="35.94"/>
<radialGradient id="SVGID_18_" cx="142.0179" cy="734.3289" r="80.1" gradientTransform="matrix(0.963 -0.284 -0.284 -0.963 365.0722 830.4239)" gradientUnits="userSpaceOnUse">
	<stop  offset="0" style="stop-color:#E2EDF2;stop-opacity:0"/>
	<stop  offset="0.433" style="stop-color:#E0EBF0;stop-opacity:0.433"/>
	<stop  offset="0.589" style="stop-color:#D9E5EA;stop-opacity:0.589"/>
	<stop  offset="0.7" style="stop-color:#CED9E0;stop-opacity:0.7"/>
	<stop  offset="0.79" style="stop-color:#BDC9D1;stop-opacity:0.79"/>
	<stop  offset="0.867" style="stop-color:#A7B3BD;stop-opacity:0.867"/>
	<stop  offset="0.934" style="stop-color:#8C99A5;stop-opacity:0.934"/>
	<stop  offset="0.994" style="stop-color:#6D7B89;stop-opacity:0.994"/>
	<stop  offset="1" style="stop-color:#697786"/>
</radialGradient>
<circle style="fill:url(#SVGID_18_);" cx="256.061" cy="66.069" r="26.192"/>
<g>
</g>
<g>
</g>
<g>
</g>
<g>
</g>
<g>
</g>
<g>
</g>
<g>
</g>
<g>
</g>
<g>
</g>
<g>
</g>
<g>
</g>
<g>
</g>
<g>
</g>
<g>
</g>
<g>
</g>
</svg>
