<?xml version="1.0" encoding="UTF-8"?>
<svg id="Layer_1" data-name="Layer 1" xmlns="http://www.w3.org/2000/svg" xmlns:xlink="http://www.w3.org/1999/xlink" viewBox="0 0 1269.02 512">
  <defs>
    <style>
      .cls-1 {
        fill: url(#linear-gradient-75);
      }

      .cls-2 {
        fill: url(#linear-gradient-2);
      }

      .cls-3 {
        fill: url(#linear-gradient-51);
      }

      .cls-4 {
        fill: url(#linear-gradient-17);
      }

      .cls-5 {
        fill: url(#linear-gradient-87);
      }

      .cls-6 {
        fill: url(#linear-gradient-93);
      }

      .cls-7 {
        fill: url(#linear-gradient-92);
      }

      .cls-8 {
        fill: url(#linear-gradient-80);
      }

      .cls-9 {
        fill: url(#linear-gradient-43);
      }

      .cls-10 {
        fill: url(#linear-gradient-15);
      }

      .cls-11 {
        fill: url(#linear-gradient-58);
      }

      .cls-12 {
        fill: url(#linear-gradient-69);
      }

      .cls-13 {
        fill: url(#linear-gradient-81);
      }

      .cls-14 {
        fill: url(#linear-gradient-18);
      }

      .cls-15 {
        fill: url(#linear-gradient-56);
      }

      .cls-16 {
        fill: url(#linear-gradient-40);
      }

      .cls-17 {
        fill: url(#linear-gradient-52);
      }

      .cls-18 {
        fill: url(#linear-gradient-28);
      }

      .cls-19 {
        fill: url(#linear-gradient-14);
      }

      .cls-20 {
        fill: url(#linear-gradient-36);
      }

      .cls-21 {
        fill: url(#linear-gradient-78);
      }

      .cls-22 {
        fill: url(#linear-gradient-20);
      }

      .cls-23 {
        fill: url(#linear-gradient-6);
      }

      .cls-24 {
        fill: url(#linear-gradient-53);
      }

      .cls-25 {
        fill: url(#linear-gradient-91);
      }

      .cls-26 {
        fill: url(#linear-gradient-60);
      }

      .cls-27 {
        fill: url(#linear-gradient-84);
      }

      .cls-28 {
        fill: url(#linear-gradient-35);
      }

      .cls-29 {
        fill: url(#linear-gradient-48);
      }

      .cls-30 {
        fill: url(#linear-gradient-32);
      }

      .cls-31 {
        fill: url(#linear-gradient-97);
      }

      .cls-32 {
        fill: url(#linear-gradient-11);
      }

      .cls-33 {
        fill: url(#linear-gradient-50);
      }

      .cls-34 {
        fill: url(#linear-gradient-63);
      }

      .cls-35 {
        fill: url(#linear-gradient-67);
      }

      .cls-36 {
        fill: url(#linear-gradient-95);
      }

      .cls-37 {
        fill: url(#linear-gradient-86);
      }

      .cls-38 {
        fill: url(#linear-gradient-39);
      }

      .cls-39 {
        fill: url(#linear-gradient-10);
      }

      .cls-40 {
        fill: url(#linear-gradient-59);
      }

      .cls-41 {
        fill: url(#linear-gradient-49);
      }

      .cls-42 {
        fill: url(#linear-gradient-37);
      }

      .cls-43 {
        fill: url(#linear-gradient-82);
      }

      .cls-44 {
        fill: url(#linear-gradient-16);
      }

      .cls-45 {
        fill: url(#linear-gradient-31);
      }

      .cls-46 {
        fill: url(#linear-gradient-85);
      }

      .cls-47 {
        fill: url(#linear-gradient-61);
      }

      .cls-48 {
        fill: url(#linear-gradient-68);
      }

      .cls-49 {
        fill: url(#linear-gradient-62);
      }

      .cls-50 {
        fill: url(#linear-gradient-41);
      }

      .cls-51 {
        fill: url(#linear-gradient-76);
      }

      .cls-52 {
        fill: url(#linear-gradient-98);
      }

      .cls-53 {
        fill: url(#linear-gradient-21);
      }

      .cls-54 {
        fill: url(#linear-gradient-72);
      }

      .cls-55 {
        fill: url(#linear-gradient-25);
      }

      .cls-56 {
        fill: url(#linear-gradient-89);
      }

      .cls-57 {
        fill: url(#linear-gradient-5);
      }

      .cls-58 {
        fill: url(#linear-gradient-64);
      }

      .cls-59 {
        fill: url(#linear-gradient-102);
      }

      .cls-60 {
        fill: url(#linear-gradient-83);
      }

      .cls-61 {
        fill: url(#linear-gradient-54);
      }

      .cls-62 {
        fill: url(#linear-gradient-45);
      }

      .cls-63 {
        fill: url(#linear-gradient-55);
      }

      .cls-64 {
        fill: url(#linear-gradient-34);
      }

      .cls-65 {
        fill: url(#linear-gradient-65);
      }

      .cls-66 {
        fill: url(#linear-gradient-70);
      }

      .cls-67 {
        fill: url(#linear-gradient-79);
      }

      .cls-68 {
        fill: url(#linear-gradient-88);
      }

      .cls-69 {
        fill: url(#linear-gradient-7);
      }

      .cls-70 {
        fill: url(#linear-gradient-66);
      }

      .cls-71 {
        fill: url(#linear-gradient-96);
      }

      .cls-72 {
        fill: url(#linear-gradient-24);
      }

      .cls-73 {
        fill: url(#linear-gradient-73);
      }

      .cls-74 {
        fill: url(#linear-gradient-100);
      }

      .cls-75 {
        fill: url(#linear-gradient-9);
      }

      .cls-76 {
        fill: url(#linear-gradient-22);
      }

      .cls-77 {
        fill: url(#linear-gradient-74);
      }

      .cls-78 {
        fill: url(#linear-gradient-42);
      }

      .cls-79 {
        fill: url(#linear-gradient-99);
      }

      .cls-80 {
        fill: url(#linear-gradient-3);
      }

      .cls-81 {
        fill: url(#linear-gradient);
      }

      .cls-82 {
        fill: url(#linear-gradient-27);
      }

      .cls-83 {
        fill: url(#linear-gradient-33);
      }

      .cls-84 {
        fill: url(#linear-gradient-38);
      }

      .cls-85 {
        fill: url(#linear-gradient-94);
      }

      .cls-86 {
        fill: url(#linear-gradient-29);
      }

      .cls-87 {
        fill: url(#linear-gradient-30);
      }

      .cls-88 {
        fill: url(#linear-gradient-23);
      }

      .cls-89 {
        fill: url(#linear-gradient-19);
      }

      .cls-90 {
        fill: url(#linear-gradient-71);
      }

      .cls-91 {
        fill: url(#linear-gradient-4);
      }

      .cls-92 {
        fill: url(#linear-gradient-77);
      }

      .cls-93 {
        fill: url(#linear-gradient-8);
      }

      .cls-94 {
        fill: url(#linear-gradient-90);
      }

      .cls-95 {
        fill: url(#linear-gradient-44);
      }

      .cls-96 {
        fill: url(#linear-gradient-57);
      }

      .cls-97 {
        fill: url(#linear-gradient-47);
      }

      .cls-98 {
        fill: url(#linear-gradient-46);
      }

      .cls-99 {
        fill: url(#linear-gradient-12);
      }

      .cls-100 {
        fill: url(#linear-gradient-13);
      }

      .cls-101 {
        fill: url(#linear-gradient-26);
      }

      .cls-102 {
        fill: url(#linear-gradient-101);
      }
    </style>
    <linearGradient id="linear-gradient" x1="115.96" y1="451.59" x2="137.49" y2="271.66" gradientTransform="translate(-1.5 463.7) scale(1 -1)" gradientUnits="userSpaceOnUse">
      <stop offset="0" stop-color="#fd4755"/>
      <stop offset="1" stop-color="#a72b2b"/>
    </linearGradient>
    <linearGradient id="linear-gradient-2" x1="121.97" y1="466.38" x2="106.25" y2="400.08" gradientTransform="translate(-1.5 463.7) scale(1 -1)" gradientUnits="userSpaceOnUse">
      <stop offset="0" stop-color="#a72b2b" stop-opacity="0"/>
      <stop offset="1" stop-color="#42210b"/>
    </linearGradient>
    <linearGradient id="linear-gradient-3" x1="123.86" y1="470.63" x2="106.77" y2="407.74" xlink:href="#linear-gradient-2"/>
    <linearGradient id="linear-gradient-4" x1="2575.71" y1="-2558.11" x2="2624.55" y2="-2587.7" gradientTransform="translate(1288.28 -3061.66) rotate(69.26) scale(1 -.85) skewX(.03)" gradientUnits="userSpaceOnUse">
      <stop offset="0" stop-color="#bbec6c"/>
      <stop offset="1" stop-color="#81b823"/>
    </linearGradient>
    <linearGradient id="linear-gradient-5" x1="2606.49" y1="-2569.39" x2="2582.96" y2="-2579.38" gradientTransform="translate(1288.28 -3061.66) rotate(69.26) scale(1 -.85) skewX(.03)" gradientUnits="userSpaceOnUse">
      <stop offset="0" stop-color="#78a91f" stop-opacity="0"/>
      <stop offset="1" stop-color="#78a91f"/>
    </linearGradient>
    <linearGradient id="linear-gradient-6" x1="2599.13" y1="-2581.29" x2="2599.13" y2="-2627.39" xlink:href="#linear-gradient-5"/>
    <linearGradient id="linear-gradient-7" x1="1086.79" y1="-968.19" x2="1065.95" y2="-991.14" gradientTransform="translate(-183.72 -1267.29) rotate(34.33) scale(1 -1)" gradientUnits="userSpaceOnUse">
      <stop offset="0" stop-color="#78a91f" stop-opacity="0"/>
      <stop offset="1" stop-color="#3e5959"/>
    </linearGradient>
    <linearGradient id="linear-gradient-8" x1="2599.13" y1="-2549.34" x2="2599.13" y2="-2600.09" xlink:href="#linear-gradient-5"/>
    <linearGradient id="linear-gradient-9" x1="2599.13" y1="-2528.06" x2="2599.13" y2="-2555.75" xlink:href="#linear-gradient-5"/>
    <linearGradient id="linear-gradient-10" x1="-2006.02" y1="-2536.98" x2="-1957.17" y2="-2566.57" gradientTransform="translate(2441.33 -1700.22) rotate(9.32) scale(1 -.85) skewX(-.03)" xlink:href="#linear-gradient-4"/>
    <linearGradient id="linear-gradient-11" x1="-1976.48" y1="-2547.44" x2="-2000.02" y2="-2557.42" gradientTransform="translate(2441.33 -1700.22) rotate(9.32) scale(1 -.85) skewX(-.03)" xlink:href="#linear-gradient-5"/>
    <linearGradient id="linear-gradient-12" x1="-1983.91" y1="-2561.03" x2="-1983.91" y2="-2607.13" gradientTransform="translate(2441.33 -1700.22) rotate(9.32) scale(1 -.85) skewX(-.03)" xlink:href="#linear-gradient-5"/>
    <linearGradient id="linear-gradient-13" x1="-1983.91" y1="-2529.08" x2="-1983.91" y2="-2579.83" gradientTransform="translate(2441.33 -1700.22) rotate(9.32) scale(1 -.85) skewX(-.03)" xlink:href="#linear-gradient-5"/>
    <linearGradient id="linear-gradient-14" x1="-1983.91" y1="-2507.8" x2="-1983.91" y2="-2535.49" gradientTransform="translate(2441.33 -1700.22) rotate(9.32) scale(1 -.85) skewX(-.03)" xlink:href="#linear-gradient-5"/>
    <linearGradient id="linear-gradient-15" x1="19.61" y1="343.27" x2="157.17" y2="205.7" gradientTransform="translate(-1.5 463.7) scale(1 -1)" gradientUnits="userSpaceOnUse">
      <stop offset="0" stop-color="#fea613"/>
      <stop offset="1" stop-color="#fe7701"/>
    </linearGradient>
    <linearGradient id="linear-gradient-16" x1="-52.35" y1="415.22" x2="133.47" y2="229.41" gradientTransform="translate(-1.5 463.7) scale(1 -1)" gradientUnits="userSpaceOnUse">
      <stop offset="0" stop-color="#fff" stop-opacity="0"/>
      <stop offset="1" stop-color="#fff"/>
    </linearGradient>
    <linearGradient id="linear-gradient-17" x1="79.95" y1="321.69" x2="101.96" y2="299.68" xlink:href="#linear-gradient-15"/>
    <linearGradient id="linear-gradient-18" x1="75.62" y1="300.67" x2="110.09" y2="266.21" xlink:href="#linear-gradient-15"/>
    <linearGradient id="linear-gradient-19" x1="51.73" y1="280.03" x2="81" y2="250.76" xlink:href="#linear-gradient-15"/>
    <linearGradient id="linear-gradient-20" x1="32.14" y1="291.97" x2="59.62" y2="264.49" xlink:href="#linear-gradient-15"/>
    <linearGradient id="linear-gradient-21" x1="25.34" y1="324.12" x2="60.72" y2="288.73" xlink:href="#linear-gradient-15"/>
    <linearGradient id="linear-gradient-22" x1="52.24" y1="341.75" x2="79.2" y2="314.79" xlink:href="#linear-gradient-15"/>
    <linearGradient id="linear-gradient-23" x1="865.92" y1="404.14" x2="875.28" y2="398.08" gradientTransform="translate(-800.33 646.39) rotate(-1.37) scale(1.47 -1.09) skewX(-17.58)" gradientUnits="userSpaceOnUse">
      <stop offset="0" stop-color="#eaf6ff"/>
      <stop offset="1" stop-color="#b3dafe"/>
    </linearGradient>
    <linearGradient id="linear-gradient-24" x1="293.93" y1="291.3" x2="307.92" y2="304.82" gradientTransform="translate(-1.5 463.7) scale(1 -1)" gradientUnits="userSpaceOnUse">
      <stop offset="0" stop-color="#d8ecfe" stop-opacity="0"/>
      <stop offset="1" stop-color="#678d98"/>
    </linearGradient>
    <linearGradient id="linear-gradient-25" x1="297.95" y1="357.85" x2="297.95" y2="295.72" gradientTransform="translate(-1.5 463.7) scale(1 -1)" xlink:href="#linear-gradient-23"/>
    <linearGradient id="linear-gradient-26" x1="301" y1="332.61" x2="294.12" y2="312.45" xlink:href="#linear-gradient-24"/>
    <linearGradient id="linear-gradient-27" x1="291.39" y1="358.35" x2="308.46" y2="316.62" gradientTransform="translate(-1.5 463.7) scale(1 -1)" gradientUnits="userSpaceOnUse">
      <stop offset="0" stop-color="#feaee1"/>
      <stop offset="1" stop-color="#fe5694"/>
    </linearGradient>
    <linearGradient id="linear-gradient-28" x1="298.19" y1="324.51" x2="294.16" y2="312.65" gradientTransform="translate(-1.5 463.7) scale(1 -1)" gradientUnits="userSpaceOnUse">
      <stop offset="0" stop-color="#e30256" stop-opacity="0"/>
      <stop offset="1" stop-color="#e30256"/>
    </linearGradient>
    <linearGradient id="linear-gradient-29" x1="181.84" y1="278.89" x2="181.84" y2="254.89" gradientTransform="translate(-1.5 463.7) scale(1 -1)" gradientUnits="userSpaceOnUse">
      <stop offset="0" stop-color="#ffdfcf"/>
      <stop offset="1" stop-color="#ffa78f"/>
    </linearGradient>
    <linearGradient id="linear-gradient-30" x1="133.48" y1="107.04" x2="292.6" y2="107.04" gradientTransform="translate(-1.5 463.7) scale(1 -1)" gradientUnits="userSpaceOnUse">
      <stop offset="0" stop-color="#fee45a"/>
      <stop offset="1" stop-color="#fea613"/>
    </linearGradient>
    <linearGradient id="linear-gradient-31" x1="153.15" y1="138.33" x2="-100.18" y2="267.67" gradientTransform="translate(-1.5 463.7) scale(1 -1)" gradientUnits="userSpaceOnUse">
      <stop offset="0" stop-color="#fea613" stop-opacity="0"/>
      <stop offset="1" stop-color="#e94444"/>
    </linearGradient>
    <linearGradient id="linear-gradient-32" x1="217" y1="101.96" x2="81" y2="209.29" xlink:href="#linear-gradient-31"/>
    <linearGradient id="linear-gradient-33" x1="295.28" y1="22.11" x2="180.61" y2="82.77" xlink:href="#linear-gradient-31"/>
    <linearGradient id="linear-gradient-34" x1="164.03" y1="109.78" x2="380.69" y2="137.78" xlink:href="#linear-gradient-31"/>
    <linearGradient id="linear-gradient-35" x1="114.02" y1="95.14" x2="292.69" y2="158.47" xlink:href="#linear-gradient-31"/>
    <linearGradient id="linear-gradient-36" x1="94.59" y1="44.13" x2="274.59" y2="102.8" xlink:href="#linear-gradient-31"/>
    <linearGradient id="linear-gradient-37" x1="181.84" y1="43.22" x2="181.84" y2="-42.24" xlink:href="#linear-gradient-31"/>
    <linearGradient id="linear-gradient-38" x1="399.38" y1="430.73" x2="543.13" y2="286.97" gradientTransform="translate(-1.5 463.7) scale(1 -1)" gradientUnits="userSpaceOnUse">
      <stop offset="0" stop-color="#5a5a5a"/>
      <stop offset="1" stop-color="#444"/>
    </linearGradient>
    <linearGradient id="linear-gradient-39" x1="368.87" y1="461.95" x2="551.03" y2="279.79" gradientTransform="translate(-1.5 463.7) scale(1 -1)" gradientUnits="userSpaceOnUse">
      <stop offset="0" stop-color="#433f43" stop-opacity="0"/>
      <stop offset="1" stop-color="#1a1a1a"/>
    </linearGradient>
    <linearGradient id="linear-gradient-40" x1="446.83" y1="349.07" x2="431" y2="349.07" xlink:href="#linear-gradient-39"/>
    <linearGradient id="linear-gradient-41" x1="494.97" y1="427.57" x2="494.97" y2="449.8" xlink:href="#linear-gradient-39"/>
    <linearGradient id="linear-gradient-42" x1="550.92" y1="349.07" x2="570.08" y2="349.07" xlink:href="#linear-gradient-39"/>
    <linearGradient id="linear-gradient-43" x1="495.84" y1="267.4" x2="468.08" y2="267.4" xlink:href="#linear-gradient-39"/>
    <linearGradient id="linear-gradient-44" x1="494.97" y1="266.66" x2="494.97" y2="232.93" xlink:href="#linear-gradient-39"/>
    <linearGradient id="linear-gradient-45" x1="580.03" y1="419.77" x2="738.82" y2="288.03" xlink:href="#linear-gradient-38"/>
    <linearGradient id="linear-gradient-46" x1="560.69" y1="456.41" x2="777.06" y2="236.12" xlink:href="#linear-gradient-39"/>
    <linearGradient id="linear-gradient-47" x1="626.99" y1="350.62" x2="612.81" y2="350.62" xlink:href="#linear-gradient-39"/>
    <linearGradient id="linear-gradient-48" x1="676.9" y1="424.3" x2="676.9" y2="449.33" xlink:href="#linear-gradient-39"/>
    <linearGradient id="linear-gradient-49" x1="666.03" y1="330.63" x2="648.28" y2="330.63" xlink:href="#linear-gradient-39"/>
    <linearGradient id="linear-gradient-50" x1="712.57" y1="268.33" x2="712.57" y2="242.78" xlink:href="#linear-gradient-39"/>
    <linearGradient id="linear-gradient-51" x1="624.83" y1="268.33" x2="624.83" y2="242.78" xlink:href="#linear-gradient-39"/>
    <linearGradient id="linear-gradient-52" x1="725.79" y1="349.71" x2="755.92" y2="349.71" xlink:href="#linear-gradient-39"/>
    <linearGradient id="linear-gradient-53" x1="749.08" y1="427.55" x2="923.62" y2="276.46" xlink:href="#linear-gradient-38"/>
    <linearGradient id="linear-gradient-54" x1="712.39" y1="431.16" x2="930.34" y2="291.36" xlink:href="#linear-gradient-39"/>
    <linearGradient id="linear-gradient-55" x1="817.21" y1="350.62" x2="790.72" y2="350.62" xlink:href="#linear-gradient-39"/>
    <linearGradient id="linear-gradient-56" x1="838.05" y1="435.28" x2="838.05" y2="450.02" xlink:href="#linear-gradient-39"/>
    <linearGradient id="linear-gradient-57" x1="838.05" y1="350.62" x2="820.25" y2="350.62" xlink:href="#linear-gradient-39"/>
    <linearGradient id="linear-gradient-58" x1="838.05" y1="259.44" x2="838.05" y2="237.26" xlink:href="#linear-gradient-39"/>
    <linearGradient id="linear-gradient-59" x1="871.48" y1="350.62" x2="904.48" y2="350.62" xlink:href="#linear-gradient-39"/>
    <linearGradient id="linear-gradient-60" x1="925.53" y1="394.41" x2="1084.43" y2="304.6" xlink:href="#linear-gradient-38"/>
    <linearGradient id="linear-gradient-61" x1="903.06" y1="441.8" x2="1074.06" y2="286.35" xlink:href="#linear-gradient-39"/>
    <linearGradient id="linear-gradient-62" x1="951.88" y1="350.01" x2="937.19" y2="350.01" xlink:href="#linear-gradient-39"/>
    <linearGradient id="linear-gradient-63" x1="971.27" y1="428.17" x2="971.27" y2="448.08" xlink:href="#linear-gradient-39"/>
    <linearGradient id="linear-gradient-64" x1="1057.31" y1="428.17" x2="1057.31" y2="448.08" xlink:href="#linear-gradient-39"/>
    <linearGradient id="linear-gradient-65" x1="1067.75" y1="350.01" x2="1082.59" y2="350.01" xlink:href="#linear-gradient-39"/>
    <linearGradient id="linear-gradient-66" x1="950.37" y1="261.49" x2="950.37" y2="239.03" xlink:href="#linear-gradient-39"/>
    <linearGradient id="linear-gradient-67" x1="1035.6" y1="261.49" x2="1035.6" y2="239.03" xlink:href="#linear-gradient-39"/>
    <linearGradient id="linear-gradient-68" x1="1074.65" y1="407.42" x2="1256.98" y2="306.48" xlink:href="#linear-gradient-38"/>
    <linearGradient id="linear-gradient-69" x1="1085.94" y1="420.53" x2="1241.8" y2="301.57" xlink:href="#linear-gradient-39"/>
    <linearGradient id="linear-gradient-70" x1="1139.27" y1="350.31" x2="1119.28" y2="350.31" xlink:href="#linear-gradient-39"/>
    <linearGradient id="linear-gradient-71" x1="1133.66" y1="429.29" x2="1133.66" y2="451.44" xlink:href="#linear-gradient-39"/>
    <linearGradient id="linear-gradient-72" x1="1214.8" y1="417.56" x2="1228.25" y2="447.96" xlink:href="#linear-gradient-39"/>
    <linearGradient id="linear-gradient-73" x1="1145.25" y1="364.13" x2="1271.59" y2="251.25" xlink:href="#linear-gradient-39"/>
    <linearGradient id="linear-gradient-74" x1="1199.41" y1="323.67" x2="1181.17" y2="338.43" xlink:href="#linear-gradient-39"/>
    <linearGradient id="linear-gradient-75" x1="1197.88" y1="326.37" x2="1181.82" y2="345.04" xlink:href="#linear-gradient-39"/>
    <linearGradient id="linear-gradient-76" x1="1223.34" y1="267.35" x2="1223.34" y2="243.81" xlink:href="#linear-gradient-39"/>
    <linearGradient id="linear-gradient-77" x1="1133.66" y1="267.35" x2="1133.66" y2="243.81" xlink:href="#linear-gradient-39"/>
    <linearGradient id="linear-gradient-78" x1="420.46" y1="64.15" x2="574.5" y2="64.15" xlink:href="#linear-gradient-38"/>
    <linearGradient id="linear-gradient-79" x1="375.9" y1="122.87" x2="515.33" y2="2.95" xlink:href="#linear-gradient-39"/>
    <linearGradient id="linear-gradient-80" x1="482.91" y1="122.87" x2="622.34" y2="2.95" xlink:href="#linear-gradient-39"/>
    <linearGradient id="linear-gradient-81" x1="550.86" y1="64.15" x2="538.68" y2="64.15" xlink:href="#linear-gradient-39"/>
    <linearGradient id="linear-gradient-82" x1="448.8" y1="64.15" x2="431.17" y2="64.15" xlink:href="#linear-gradient-39"/>
    <linearGradient id="linear-gradient-83" x1="550.99" y1="143.93" x2="550.99" y2="161.81" xlink:href="#linear-gradient-39"/>
    <linearGradient id="linear-gradient-84" x1="443.97" y1="143.93" x2="443.97" y2="161.81" xlink:href="#linear-gradient-39"/>
    <linearGradient id="linear-gradient-85" x1="509.14" y1="55.8" x2="529.82" y2="55.8" xlink:href="#linear-gradient-39"/>
    <linearGradient id="linear-gradient-86" x1="497.48" y1="-23.13" x2="497.48" y2="-47.79" xlink:href="#linear-gradient-39"/>
    <linearGradient id="linear-gradient-87" x1="560.13" y1="64.15" x2="577.76" y2="64.15" xlink:href="#linear-gradient-39"/>
    <linearGradient id="linear-gradient-88" x1="586.09" y1="152.1" x2="753.94" y2="12.77" xlink:href="#linear-gradient-38"/>
    <linearGradient id="linear-gradient-89" x1="575.02" y1="189.27" x2="772.68" y2="-25.24" xlink:href="#linear-gradient-39"/>
    <linearGradient id="linear-gradient-90" x1="637.01" y1="64.15" x2="612.81" y2="64.15" xlink:href="#linear-gradient-39"/>
    <linearGradient id="linear-gradient-91" x1="728.92" y1="129.68" x2="728.92" y2="160.84" xlink:href="#linear-gradient-39"/>
    <linearGradient id="linear-gradient-92" x1="624.88" y1="129.68" x2="624.88" y2="160.84" xlink:href="#linear-gradient-39"/>
    <linearGradient id="linear-gradient-93" x1="676.9" y1="-7.14" x2="676.9" y2="-46" xlink:href="#linear-gradient-39"/>
    <linearGradient id="linear-gradient-94" x1="733.07" y1="64.15" x2="755.55" y2="64.15" xlink:href="#linear-gradient-39"/>
    <linearGradient id="linear-gradient-95" x1="782.65" y1="119.4" x2="883.15" y2="34" xlink:href="#linear-gradient-38"/>
    <linearGradient id="linear-gradient-96" x1="744.77" y1="163.5" x2="910.3" y2="6.51" xlink:href="#linear-gradient-39"/>
    <linearGradient id="linear-gradient-97" x1="852.4" y1="71.51" x2="834" y2="71.51" xlink:href="#linear-gradient-39"/>
    <linearGradient id="linear-gradient-98" x1="856.78" y1="-15.05" x2="832.93" y2="-15.05" xlink:href="#linear-gradient-39"/>
    <linearGradient id="linear-gradient-99" x1="861.68" y1="-21.4" x2="861.68" y2="-42.93" xlink:href="#linear-gradient-39"/>
    <linearGradient id="linear-gradient-100" x1="896.63" y1="63.56" x2="937.07" y2="63.56" xlink:href="#linear-gradient-39"/>
    <linearGradient id="linear-gradient-101" x1="811.67" y1="63.56" x2="797.34" y2="63.56" xlink:href="#linear-gradient-39"/>
    <linearGradient id="linear-gradient-102" x1="858.93" y1="146.33" x2="858.93" y2="164.72" xlink:href="#linear-gradient-39"/>
  </defs>
  <g>
    <g>
      <path class="cls-81" d="m271.66,361.41h-38.43L137.29,89.58l-15.99-42.65c-1.84-4.91-5.78-8.63-10.81-10.16-5.03-1.55-10.37-.68-14.65,2.36l-60.31,42.81c-8.1,5.74-19.33,3.83-25.08-4.28-5.76-8.1-3.85-19.33,4.26-25.08L75.01,9.77C88.48.21,105.25-2.48,121.04,2.34c15.79,4.85,28.16,16.49,33.97,31.95l20.08,53.55,96.59,273.56Z"/>
      <path class="cls-2" d="m121.04,2.35c9.59,2.94,17.91,8.4,24.28,15.7l-27.88,22.9c-1.91-1.91-4.27-3.36-6.95-4.19-3.21-.98-6.54-.98-9.64-.06L89.57,2.5c10.09-3.23,20.99-3.36,31.47-.15Z"/>
      <path class="cls-80" d="m111.2.36c3.3.36,6.59,1,9.84,1.99,2.49.76,4.89,1.71,7.2,2.8l-16.11,32.23c-.53-.23-1.07-.44-1.63-.61-.71-.22-1.43-.38-2.14-.5L111.2.36Z"/>
    </g>
    <g>
      <g>
        <path class="cls-91" d="m206.39,138.91c.37-1.98-.45-4.14-2.03-5.38-13.33-10.44-33.36-13.45-52.42-6.24-19.06,7.2-32.1,22.71-35.19,39.36-.37,1.98.45,4.14,2.03,5.38,13.33,10.44,33.36,13.45,52.42,6.24,19.06-7.2,32.1-22.71,35.19-39.36h0Z"/>
        <path class="cls-57" d="m118.77,172.02c13.33,10.44,33.36,13.45,52.42,6.24,19.06-7.2,32.1-22.71,35.19-39.36.18-.99.07-2.02-.29-2.97l-89.08,33.67c.36.94.96,1.79,1.75,2.42Z"/>
        <path class="cls-23" d="m156.5,181.83c4.88-.55,9.82-1.72,14.7-3.56,19.06-7.2,32.1-22.71,35.19-39.36.37-1.98-.45-4.14-2.03-5.38-13.33-10.44-33.36-13.45-52.42-6.24-4.88,1.84-9.36,4.24-13.38,7.05l-11.18,31.37,29.13,16.13Z"/>
        <path class="cls-69" d="m206.39,138.91c.37-1.98-.45-4.14-2.03-5.38-13.33-10.44-33.36-13.45-52.42-6.24-19.06,7.2-32.1,22.71-35.19,39.36-.37,1.98.45,4.14,2.03,5.38,13.33,10.44,33.36,13.45,52.42,6.24,19.06-7.2,32.1-22.71,35.19-39.36h0Z"/>
        <path class="cls-93" d="m154.29,155.52l29.42,16.29c12.19-8.2,20.33-20.24,22.68-32.94.36-1.95-.45-4.1-2.01-5.32-10.17-7.97-24.23-11.62-38.8-9.71l-11.29,31.68Z"/>
        <path class="cls-75" d="m181.22,145.34l18.48,10.23c3.33-5.23,5.62-10.9,6.7-16.7.36-1.95-.45-4.1-2.01-5.32-4.65-3.64-10.12-6.38-16.07-8.1l-7.09,19.89Z"/>
      </g>
      <g>
        <path class="cls-39" d="m135.16,76.97c-1.53-1.31-3.81-1.68-5.68-.93-15.71,6.33-28.33,22.17-31.62,42.28-3.29,20.11,3.62,39.15,16.49,50.15,1.53,1.31,3.81,1.68,5.68.93,15.71-6.33,28.33-22.17,31.62-42.28,3.29-20.11-3.62-39.15-16.49-50.15Z"/>
        <path class="cls-32" d="m120.03,169.4c15.71-6.33,28.33-22.17,31.62-42.28s-3.62-39.15-16.49-50.15c-.76-.65-1.72-1.07-2.71-1.24l-15.38,93.98c.99.16,2.03.07,2.97-.31Z"/>
        <path class="cls-99" d="m147.39,141.63c1.96-4.5,3.42-9.36,4.26-14.51,3.29-20.11-3.62-39.15-16.49-50.15-1.53-1.31-3.81-1.68-5.68-.93-15.71,6.33-28.33,22.17-31.62,42.28-.84,5.15-1.01,10.22-.59,15.11l21.58,25.36,28.54-17.16Z"/>
        <path class="cls-100" d="m123.5,130.39l28.82-17.33c-1.01-14.65-7.36-27.72-17.19-36.11-1.51-1.29-3.77-1.66-5.62-.92-11.99,4.82-22.18,15.18-27.8,28.75l21.79,25.62Z"/>
        <path class="cls-19" d="m128.15,101.98l18.1-10.89c-2.86-5.5-6.63-10.31-11.12-14.15-1.51-1.29-3.77-1.66-5.62-.92-5.48,2.2-10.58,5.57-15.05,9.87l13.69,16.09Z"/>
      </g>
    </g>
    <g>
      <circle class="cls-10" cx="65.24" cy="166.14" r="65.24"/>
      <circle class="cls-44" cx="65.24" cy="166.14" r="57.35"/>
      <g>
        <path class="cls-4" d="m71.31,166.15l27.2-1.53c11.95-.67,18.99-13.71,13.01-24.07l-.97-1.69c-5.98-10.36-20.79-10.78-27.35-.77l-14.93,22.79c-1.53,2.34.25,5.43,3.04,5.27h0Z"/>
        <path class="cls-14" d="m68.26,171.4l14.93,22.79c6.56,10.01,21.37,9.59,27.35-.77l.97-1.69c5.98-10.36-1.06-23.4-13.01-24.07l-27.2-1.53c-2.79-.16-4.57,2.93-3.04,5.27h0Z"/>
        <path class="cls-89" d="m62.19,171.39l-12.27,24.32c-5.39,10.68,2.37,23.3,14.34,23.3h1.95c11.97,0,19.73-12.62,14.34-23.3l-12.27-24.32c-1.26-2.5-4.83-2.5-6.09,0h0Z"/>
        <path class="cls-22" d="m59.16,166.13l-27.2,1.53c-11.95.67-18.99,13.71-13.01,24.07l.97,1.69c5.98,10.36,20.79,10.78,27.35.77l14.93-22.79c1.53-2.34-.25-5.43-3.04-5.27Z"/>
        <path class="cls-53" d="m62.21,160.88l-14.93-22.79c-6.56-10.01-21.37-9.59-27.35.77l-.97,1.69c-5.98,10.36,1.06,23.4,13.01,24.07l27.2,1.53c2.79.16,4.57-2.93,3.04-5.27h0Z"/>
        <path class="cls-76" d="m68.28,160.88l12.27-24.32c5.39-10.68-2.37-23.3-14.34-23.3h-1.95c-11.97,0-19.73,12.62-14.34,23.3l12.27,24.32c1.26,2.5,4.83,2.5,6.09,0h0Z"/>
      </g>
    </g>
    <g>
      <g>
        <path class="cls-88" d="m275.52,233.87l-19.13-6.6,33.75-97.86,19.13,6.6-33.75,97.86Z"/>
        <path class="cls-72" d="m275.52,233.87l-19.13-6.6,33.75-97.86,19.13,6.6-33.75,97.86Z"/>
        <g>
          <path class="cls-55" d="m316.24,84.78c-31.89-11-66.36,3.08-81.94,31.78-2.85,5.25-.29,11.81,5.36,13.76l108.8,37.53c5.65,1.95,11.71-1.64,12.7-7.53,5.43-32.2-13.03-64.54-44.92-75.54h0Z"/>
          <path class="cls-101" d="m251.99,95.64c-7.12,5.59-13.19,12.65-17.69,20.93-2.85,5.25-.29,11.81,5.36,13.76l108.8,37.53c5.65,1.95,11.71-1.64,12.7-7.53,1.57-9.29,1.13-18.58-1.03-27.38l-108.15-37.3Z"/>
          <path class="cls-82" d="m316.24,84.78c-14.56-5.02-36.29,19.7-48.54,55.21l52.72,18.19c12.25-35.51,10.38-68.38-4.18-73.4Z"/>
        </g>
      </g>
      <path class="cls-18" d="m283.89,106.64c-6.11,9.12-11.77,20.53-16.19,33.35l52.72,18.19c4.42-12.82,7-25.3,7.81-36.25l-44.34-15.29Z"/>
    </g>
    <path class="cls-86" d="m269.06,176.76H93.04c-20.14,0-36.47,16.33-36.47,36.47v60.15h248.97v-60.15c0-20.14-16.33-36.47-36.47-36.47Z"/>
    <path class="cls-87" d="m280.7,200.47H81.4c-23.6,0-43.07,18.48-44.3,42.05l-4.81,92.25c-2.32,44.53,9.92,88.62,34.88,125.57,21.81,32.3,58.24,51.66,97.21,51.66h33.34c38.97,0,75.4-19.36,97.21-51.66,24.96-36.96,37.2-81.04,34.88-125.57l-4.81-92.25c-1.23-23.57-20.7-42.05-44.3-42.05h0Z"/>
    <g>
      <g>
        <path class="cls-45" d="m330.09,345.45c0,1.35-.01,2.68-.05,4.02-.67,34.77-10.17,68.8-27.6,98.88-2.36,4.08-4.86,8.08-7.51,12-14.85,21.99-36.46,37.98-61.04,45.95-11.54,3.73-23.72,5.71-36.18,5.71h-33.33c-12.46,0-24.65-1.98-36.18-5.71-6.52-2.12-12.83-4.8-18.86-8-16.71-8.87-31.27-21.8-42.17-37.95-2.65-3.92-5.15-7.92-7.51-12-17.43-30.08-26.93-64.11-27.6-98.88l22.5-22.51,126.49-126.49h.01s99.64.01,99.64.01c7.73,0,15.02,1.98,21.36,5.47,13.03,7.17,22.11,20.72,22.94,36.57l3.32,63.66,1.49,28.59c.18,3.56.28,7.13.28,10.68h0Z"/>
        <path class="cls-30" d="m294.94,460.34c-14.85,21.99-36.46,37.98-61.04,45.95-11.54,3.73-23.72,5.71-36.18,5.71h-33.33c-12.46,0-24.65-1.98-36.18-5.71-6.52-2.12-12.83-4.8-18.86-8-16.71-8.87-31.27-21.8-42.17-37.95-2.65-3.92-5.15-7.92-7.51-12l58.15-58.15,63.25-63.24,121.01-121.01c13.03,7.17,22.11,20.72,22.94,36.57l3.32,63.66,1.49,28.59c.18,3.56.28,7.13.28,10.68,0,1.35-.01,2.68-.05,4.02-.67,34.77-10.17,68.8-27.6,98.88-2.36,4.08-4.86,8.08-7.51,12h0Z"/>
        <path class="cls-83" d="m294.94,460.34c-14.85,21.99-36.46,37.98-61.04,45.95-11.54,3.73-23.72,5.71-36.18,5.71h-33.33c-12.46,0-24.65-1.98-36.18-5.71l116.09-116.09,63.25-63.24,20.78-20.78,1.49,28.59c.18,3.56.28,7.13.28,10.68,0,1.35-.01,2.68-.05,4.02-.67,34.77-10.17,68.8-27.6,98.88-2.36,4.08-4.86,8.08-7.51,12h0Z"/>
      </g>
      <g>
        <path class="cls-64" d="m330.04,349.47c-.67,34.77-10.17,68.8-27.6,98.88-2.36,4.08-4.86,8.08-7.51,12-14.85,21.99-36.46,37.98-61.04,45.95-11.54,3.73-23.72,5.71-36.18,5.71h-33.33c-12.46,0-24.65-1.98-36.18-5.71-6.52-2.12-12.83-4.8-18.86-8-16.71-8.87-31.27-21.8-42.17-37.95-2.65-3.92-5.15-7.92-7.51-12-17.43-30.08-26.93-64.11-27.6-98.88-.1-4.88-.02-9.79.23-14.7l1.49-28.59,3.32-63.66c.83-15.85,9.91-29.4,22.94-36.57,6.34-3.49,13.63-5.47,21.36-5.47h99.65s126.49,126.48,126.49,126.48l22.5,22.51Z"/>
        <path class="cls-28" d="m302.45,448.34c-2.36,4.08-4.86,8.08-7.51,12-14.85,21.99-36.46,37.98-61.04,45.95-11.54,3.73-23.72,5.71-36.18,5.71h-33.33c-12.46,0-24.65-1.98-36.18-5.71-6.52-2.12-12.83-4.8-18.86-8-16.71-8.87-31.27-21.8-42.17-37.95-2.65-3.92-5.15-7.92-7.51-12-17.43-30.08-26.93-64.11-27.6-98.88-.1-4.88-.02-9.79.23-14.7l1.49-28.59,3.32-63.66c.83-15.85,9.91-29.4,22.94-36.57l121.01,121.01,63.25,63.24,58.15,58.15Z"/>
        <path class="cls-20" d="m233.9,506.29c-11.54,3.73-23.72,5.71-36.18,5.71h-33.33c-12.46,0-24.65-1.98-36.18-5.71-6.52-2.12-12.83-4.8-18.86-8-16.71-8.87-31.27-21.8-42.17-37.95-2.65-3.92-5.15-7.92-7.51-12-17.43-30.08-26.93-64.11-27.6-98.88-.1-4.88-.02-9.79.23-14.7l1.49-28.59,20.78,20.78,63.25,63.24,116.09,116.09Z"/>
      </g>
    </g>
    <path class="cls-42" d="m36.1,386.18c5.34,26.36,15.82,51.59,31.07,74.17,21.81,32.3,58.24,51.66,97.21,51.66h33.34c38.97,0,75.4-19.36,97.21-51.66,15.24-22.57,25.73-47.8,31.07-74.17H36.1Z"/>
  </g>
  <g>
    <path class="cls-84" d="m495.26,2.23h-53.77c-12.45,0-20.66,6.68-20.66,14.28v193.51c0,7.59,8.2,14.28,20.66,14.28h53.77c41.92,0,74.73-19.44,74.73-71.69v-78.68c0-52.25-32.81-71.69-74.73-71.69h0Zm27.34,150.37c0,20.66-10.33,30.38-27.34,30.38h-27.04V43.54h27.04c17.01,0,27.34,9.72,27.34,30.38v78.68Z"/>
    <g>
      <path class="cls-38" d="m541.31,26.79c-10.71-9.07-26.2-13.67-46.05-13.67h-53.77c-6.61,0-9.5,2.64-9.77,3.44v188.88c0,3.9,2.86,7.21,6.72,7.76.91.13,1.93.21,3.05.21h9.52c3.49,0,6.33-2.83,6.33-6.33V43.54c0-6.01,4.87-10.89,10.89-10.89h27.04c23.94,0,38.23,15.43,38.23,41.26v78.68c0,25.84-14.29,41.26-38.23,41.26h-27.04v19.54h27.04c19.85,0,35.34-4.6,46.05-13.67,11.81-10.01,17.8-25.86,17.8-47.13v-78.68c0-21.27-5.99-37.13-17.8-47.13h0Z"/>
      <path class="cls-16" d="m467.98,13.11v19.55c-5.9.13-10.64,4.95-10.64,10.88v163.54c0,3.49-2.83,6.33-6.33,6.33h-9.52c-1.12,0-2.14-.08-3.05-.21-3.86-.55-6.72-3.87-6.72-7.76V16.55c.27-.8,3.16-3.44,9.77-3.44h26.49Z"/>
      <path class="cls-50" d="m541.31,26.78c-10.7-9.07-26.2-13.67-46.05-13.67h-53.77c-6.61,0-9.5,2.64-9.77,3.44v96.71h25.62V43.54c0-6.01,4.87-10.89,10.89-10.89h27.04c23.94,0,38.23,15.43,38.23,41.26v39.34h25.62v-39.34c0-21.27-5.99-37.13-17.8-47.14h0Z"/>
    </g>
    <path class="cls-78" d="m495.26,2.23h-3.57v41.31h3.57c17.01,0,27.34,9.72,27.34,30.38v78.68c0,20.66-10.33,30.38-27.34,30.38h-3.57v41.31h3.57c41.92,0,74.73-19.44,74.73-71.69v-78.68c0-52.25-32.81-71.69-74.73-71.69h0Z"/>
    <path class="cls-9" d="m495.26,224.29c8.96,0,17.51-.89,25.41-2.8v-55.28c-3.73,11.34-12.71,16.76-25.41,16.76h-27.04v41.31h27.04Z"/>
    <path class="cls-95" d="m522.6,115.44v37.16c0,20.66-10.33,30.38-27.34,30.38h-27.04v-67.54h-47.39v94.58c0,7.59,8.2,14.28,20.66,14.28h53.77c41.92,0,74.73-19.44,74.73-71.69v-37.16h-47.39Z"/>
  </g>
  <g>
    <path class="cls-62" d="m754.27,194.29l-36.97-66.97c21.21-8.18,36.67-27.58,36.67-61.52,0-49.4-33.03-64.85-74.55-64.85h-62.73c-8.79,0-14.55,6.67-14.55,14.24v192.74c0,9.7,11.82,14.55,23.64,14.55s23.64-4.85,23.64-14.55v-73.03c12.28,0,23.54,6.86,29.16,17.78l32.36,62.83c3.33,6.36,9.09,8.79,15.15,8.79,13.94,0,29.7-12.73,29.7-24.55,0-1.52-.3-3.64-1.52-5.45h0Zm-74.85-95.76h-30v-56.37h30c16.97,0,27.27,6.97,27.27,28.18s-10.3,28.18-27.27,28.18Z"/>
    <path class="cls-98" d="m744.69,199.58l-36.97-66.97c-1.53-2.77-1.79-6.06-.71-9.03,1.09-2.97,3.4-5.33,6.35-6.47,9-3.47,16.08-9.13,21.03-16.82,5.73-8.89,8.64-20.5,8.64-34.49,0-19.69-5.66-33.48-17.31-42.18-10.43-7.78-26-11.73-46.29-11.73h-62.73c-3.42,0-3.6,2.75-3.6,3.29v192.76c.64,1.06,5.19,3.58,12.69,3.58s12.05-2.52,12.69-3.58V42.16c0-6.05,4.9-10.95,10.95-10.95h30c25.01,0,38.22,13.53,38.22,39.13s-13.22,39.13-38.22,39.13h-30v14.47c16.46,0,31.36,9.09,38.89,23.72l32.34,62.79c.8,1.51,2.01,2.89,5.44,2.89,8.76,0,18.61-8.75,18.75-13.5-.05-.08-.1-.17-.15-.26h0Z"/>
    <path class="cls-97" d="m649.42,11.89h-32.73c-3.42,0-3.6,2.75-3.6,3.29v192.76c.64,1.06,5.19,3.58,12.69,3.58s12.05-2.52,12.69-3.58V42.16c0-6.05,4.9-10.95,10.95-10.95V11.89Z"/>
    <path class="cls-29" d="m725.71,23.62c-10.43-7.78-26-11.73-46.29-11.73h-62.73c-3.42,0-3.6,2.75-3.6,3.29v66.61h25.38v-39.64c0-6.05,4.9-10.95,10.95-10.95h30c25.01,0,38.22,13.53,38.22,39.13,0,4.14-.35,7.95-1.03,11.45h24.94c.97-4.92,1.47-10.25,1.47-16,0-19.69-5.66-33.48-17.31-42.18Z"/>
    <path class="cls-41" d="m678.58,152.67l6.36,12.35h53.18l-20.82-37.71c13.1-5.05,24-14.39,30.43-28.79h-98.31v36.37c12.28,0,23.54,6.86,29.16,17.78Z"/>
    <g>
      <path class="cls-33" d="m678.58,152.67l32.36,62.83c3.33,6.36,9.09,8.79,15.15,8.79,13.94,0,29.7-12.73,29.7-24.55,0-1.52-.3-3.64-1.52-5.45l-27.85-50.45h-54.49c2.66,2.51,4.92,5.48,6.65,8.83h0Z"/>
      <path class="cls-3" d="m625.78,222.47c11.82,0,23.64-4.85,23.64-14.55v-64.09h-47.28v64.09c0,9.7,11.82,14.55,23.64,14.55h0Z"/>
    </g>
    <path class="cls-17" d="m717.3,127.32c21.21-8.18,36.67-27.58,36.67-61.52,0-49.4-33.03-64.85-74.55-64.85h-.6v41.22h.6c16.97,0,27.27,6.97,27.27,28.18s-10.3,28.18-27.27,28.18h-.6v54.61l32.12,62.37c3.33,6.36,9.09,8.79,15.15,8.79,13.94,0,29.7-12.73,29.7-24.55,0-1.52-.3-3.64-1.52-5.45l-36.97-66.97Z"/>
  </g>
  <g>
    <path class="cls-24" d="m885.76,186.37h-22.2V37.05h22.2c10.04,0,14.29-9.73,14.29-17.94,0-9.73-5.17-18.55-14.29-18.55h-91.84c-9.12,0-14.29,8.82-14.29,18.55,0,8.21,4.26,17.94,14.29,17.94h22.2v149.31h-22.2c-9.12,0-14.29,8.82-14.29,18.55,0,8.21,4.26,17.94,14.29,17.94h91.84c10.04,0,14.29-9.73,14.29-17.94,0-9.73-5.17-18.55-14.29-18.55Z"/>
    <g>
      <path class="cls-61" d="m793.92,211.96c-.8,0-1.21-.1-1.86-1.06-.95-1.41-1.54-3.71-1.54-5.98,0-2.63.64-5.1,1.71-6.61.74-1.04,1.24-1.04,1.69-1.04h22.2c6.02,0,10.9-4.88,10.9-10.9V37.05c0-6.02-4.88-10.9-10.9-10.9h-22.2c-.8,0-1.21-.1-1.86-1.06-.95-1.41-1.54-3.71-1.54-5.98,0-2.63.64-5.1,1.71-6.61.74-1.04,1.24-1.04,1.69-1.04h91.84c.44,0,.94,0,1.69,1.04,1.07,1.5,1.71,3.98,1.71,6.61,0,2.28-.59,4.57-1.54,5.98-.64.96-1.06,1.06-1.86,1.06h-22.2c-6.02,0-10.9,4.88-10.9,10.9v149.31c0,6.02,4.88,10.9,10.9,10.9h22.2c.44,0,.94,0,1.69,1.04,1.07,1.5,1.71,3.98,1.71,6.61,0,2.28-.59,4.57-1.54,5.98-.64.96-1.06,1.06-1.86,1.06h-91.84,0Z"/>
      <path class="cls-63" d="m852.04,11.46h-58.12c-.44,0-.94,0-1.69,1.04-1.07,1.5-1.71,3.98-1.71,6.61,0,2.28.59,4.57,1.54,5.98.64.96,1.06,1.06,1.86,1.06h22.2c6.02,0,10.9,4.88,10.9,10.9v149.31c0,6.02-4.88,10.9-10.9,10.9h-22.2c-.44,0-.94,0-1.69,1.04-1.07,1.5-1.71,3.98-1.71,6.61,0,2.28.59,4.57,1.54,5.98.64.96,1.06,1.06,1.86,1.06h58.12V11.46Z"/>
      <path class="cls-15" d="m885.76,11.46h-91.84c-.44,0-.94,0-1.69,1.04-1.07,1.5-1.71,3.98-1.71,6.61,0,2.28.59,4.57,1.54,5.98.64.96,1.06,1.06,1.86,1.06h22.2c6.02,0,10.9,4.88,10.9,10.9v47.2h25.65v-47.2c0-6.02,4.88-10.9,10.9-10.9h22.2c.8,0,1.21-.1,1.86-1.06.95-1.41,1.54-3.71,1.54-5.98,0-2.63-.64-5.1-1.71-6.61-.74-1.04-1.25-1.04-1.69-1.04h0Z"/>
      <path class="cls-96" d="m816.12,197.26c6.02,0,10.9-4.88,10.9-10.9V37.05c0-6.02-4.88-10.9-10.9-10.9h47.44c-6.02,0-10.9,4.88-10.9,10.9v149.31c0,6.02,4.88,10.9,10.9,10.9h-47.44Z"/>
    </g>
    <path class="cls-11" d="m816.12,135.25v51.12h-22.2c-9.12,0-14.29,8.82-14.29,18.55,0,8.21,4.26,17.94,14.29,17.94h91.84c10.04,0,14.29-9.73,14.29-17.94,0-9.73-5.17-18.55-14.29-18.55h-22.2v-51.12h-47.44Z"/>
    <path class="cls-40" d="m885.76,37.05c10.04,0,14.29-9.73,14.29-17.94,0-9.73-5.17-18.55-14.29-18.55h-47.23v222.29h47.23c10.04,0,14.29-9.73,14.29-17.94,0-9.73-5.17-18.55-14.29-18.55h-22.2V37.05h22.2Z"/>
  </g>
  <g>
    <path class="cls-26" d="m1059.96,1.78c-11.79,0-23.59,4.23-23.59,14.21v102.83l-48.99-93.45c-11.49-22.08-17.84-23.59-34.78-23.59-11.79,0-23.59,4.54-23.59,14.52v192.05c0,9.68,11.79,14.52,23.59,14.52s23.59-4.84,23.59-14.52v-102.83l57.46,104.64c5.75,10.59,15.42,12.7,26.31,12.7,11.8,0,23.59-4.84,23.59-14.52V15.99c0-9.98-11.79-14.21-23.59-14.21h0Z"/>
    <g>
      <path class="cls-47" d="m1059.96,212.02c-10.85,0-14.37-2.58-16.79-7.04,0-.02-57.49-104.69-57.49-104.69-1.94-3.53-5.61-5.62-9.5-5.62-.89,0-1.8.11-2.69.34-4.79,1.23-8.14,5.55-8.14,10.5,0,0,0,102.86,0,102.87-.59,1.07-5.14,3.64-12.75,3.64s-12.16-2.57-12.75-3.64c0-.01,0-192.09,0-192.09,0-.11,0-.17.01-.19.46-.99,4.93-3.49,12.74-3.49,7.2,0,11.1.29,13.79,1.93,3.19,1.94,6.7,6.83,11.38,15.83l49.01,93.48c1.9,3.63,5.64,5.81,9.6,5.81.86,0,1.73-.1,2.59-.32,4.84-1.19,8.25-5.54,8.25-10.52V15.99c0-.06,0-.11,0-.13.57-.87,4.66-3.25,12.75-3.25s12.17,2.38,12.75,3.25c0,.03,0,.07,0,.13,0,0,0,192.38,0,192.39-.59,1.07-5.14,3.64-12.75,3.64h0Z"/>
      <path class="cls-49" d="m952.6,212.02c7.61,0,12.16-2.57,12.75-3.64,0-.01,0-102.87,0-102.87,0-4.95,3.35-9.27,8.14-10.5.9-.23,1.8-.34,2.69-.34V27.42c-3.91-7.13-6.99-11.16-9.8-12.88-2.69-1.64-6.59-1.93-13.79-1.93-7.81,0-12.28,2.51-12.74,3.49,0,.01-.01.08-.01.19,0,0,0,192.08,0,192.09.59,1.07,5.14,3.64,12.75,3.64Z"/>
      <g>
        <path class="cls-34" d="m966.38,14.54c-2.69-1.64-6.59-1.93-13.79-1.93-7.81,0-12.28,2.51-12.74,3.49,0,.01-.01.08-.01.19v70.45h67.47l-29.55-56.37c-4.69-9-8.2-13.88-11.38-15.83h0Z"/>
        <path class="cls-58" d="m1059.96,12.61c-8.08,0-12.17,2.38-12.75,3.25,0,.03,0,.07,0,.13v70.75h25.5V15.99c0-.06,0-.11,0-.13-.57-.87-4.66-3.25-12.75-3.25Z"/>
      </g>
    </g>
    <path class="cls-65" d="m1059.96,222.86c11.8,0,23.59-4.84,23.59-14.52V15.99c0-9.98-11.79-14.21-23.59-14.21s-23.59,4.23-23.59,14.21v198.22c5.84,7.09,14.27,8.64,23.59,8.64Z"/>
    <g>
      <path class="cls-70" d="m952.6,222.86c11.8,0,23.59-4.84,23.59-14.52v-72.61h-47.18v72.61c0,9.68,11.79,14.52,23.59,14.52Z"/>
      <path class="cls-35" d="m992.78,135.73l40.87,74.43c5.75,10.59,15.42,12.7,26.31,12.7,11.8,0,23.59-4.84,23.59-14.52v-72.61h-90.77Z"/>
    </g>
  </g>
  <g>
    <path class="cls-48" d="m1266.6,192.7l-62.43-95.61,49.46-62.13c2.41-3.32,3.02-6.64,3.02-9.05,0-11.76-15.68-24.13-27.75-24.13-4.83,0-9.05,1.81-12.37,6.64l-56.4,79.93V15.95c0-9.95-11.76-14.18-23.53-14.18s-23.53,4.22-23.53,14.18v191.83c0,9.65,11.76,14.48,23.53,14.48s23.53-4.83,23.53-14.48v-54.59l12.67-16.29,51.58,78.42c3.92,6.33,9.95,8.75,16.29,8.75,13.57,0,28.35-11.76,28.35-23.53,0-2.71-.9-5.43-2.41-7.84h0Z"/>
    <g>
      <path class="cls-12" d="m1151.53,146.49c-1.49,1.91-2.3,4.27-2.3,6.69v54.61c-.64,1.05-5.17,3.57-12.63,3.57s-11.99-2.51-12.63-3.57V15.95s0-.07,0-.1c.62-.87,4.7-3.18,12.63-3.18s12,2.31,12.62,3.18c0,.02,0,.06,0,.1v72.39c0,4.75,3.07,8.95,7.6,10.39,1.09.34,2.2.51,3.3.51,3.47,0,6.82-1.66,8.9-4.61,0,0,56.45-80,56.47-80.04,1.19-1.73,1.98-1.91,3.39-1.91,2.65,0,7.2,1.58,11.38,5.1,3.76,3.16,5.47,6.43,5.47,8.13,0,.85-.28,1.69-.83,2.49l-93.39,118.1Z"/>
      <path class="cls-66" d="m1160.13,99.23c-1.1,0-2.21-.17-3.3-.51-4.53-1.43-7.6-5.64-7.6-10.39V15.95s0-.07,0-.1c-.62-.87-4.7-3.18-12.62-3.18s-12.01,2.31-12.63,3.18c0,.02,0,.06,0,.1v191.84c.64,1.05,5.17,3.57,12.63,3.57s11.99-2.51,12.63-3.57v-54.61c0-2.42.81-4.78,2.3-6.69l8.6-10.87v-36.39Z"/>
      <path class="cls-90" d="m1136.61,12.67c-7.92,0-12.01,2.31-12.63,3.18,0,.02,0,.06,0,.1v47.28h25.26V15.95s0-.07,0-.1c-.62-.87-4.7-3.18-12.62-3.18Z"/>
      <path class="cls-54" d="m1240.29,17.77c-4.19-3.52-8.74-5.1-11.38-5.1-1.41,0-2.21.19-3.39,1.91-.01.02-21.28,30.16-37.71,53.44h25.78l31.34-39.63c.55-.81.83-1.64.83-2.49,0-1.7-1.71-4.98-5.47-8.13Z"/>
    </g>
    <g>
      <path class="cls-73" d="m1258.12,200.54c0,4.53-8.8,12.63-17.46,12.63-4.23,0-5.92-1.81-7.02-3.59-.05-.08-.1-.17-.16-.25,0,0-53.03-80.28-53.94-80.99l17.51-22.22,60.36,92.43c.66,1.08.71,1.8.71,1.99h0Z"/>
      <path class="cls-77" d="m1197.05,106.12l-17.51,22.22c.48.37,15.15,22.42,29.08,43.42h31.3l-42.87-65.64Z"/>
    </g>
    <path class="cls-1" d="m1204.17,97.09l-31.37,39.81,24.65,37.48h57.19l-50.47-77.29Z"/>
    <g>
      <path class="cls-51" d="m1224.38,215.32c3.92,6.33,9.95,8.75,16.29,8.75,13.57,0,28.35-11.76,28.35-23.53,0-2.71-.9-5.43-2.41-7.84l-25.06-38.37h-57.28l40.11,60.99Z"/>
      <path class="cls-92" d="m1136.61,222.26c11.76,0,23.53-4.83,23.53-14.48v-53.45h-47.05v53.45c0,9.65,11.76,14.48,23.53,14.48h0Z"/>
    </g>
  </g>
  <g>
    <path class="cls-21" d="m528.04,413.37h-35.29c-13.77,0-24.94,11.16-24.94,24.94v57.07c0,9.68-11.8,14.53-23.6,14.53s-23.6-4.84-23.6-14.53v-192.47c0-9.99,11.8-14.22,23.6-14.22s23.6,4.24,23.6,14.22v74.14h60.22v-74.14c0-9.99,11.8-14.22,23.6-14.22s23.6,4.24,23.6,14.22v192.47c0,9.68-11.8,14.53-23.6,14.53s-23.6-4.84-23.6-14.53v-82.01Z"/>
    <path class="cls-67" d="m467.82,387.9h60.22v14.63h-35.29c-19.73,0-35.78,16.05-35.78,35.78v57.12c-.59,1.07-5.14,3.64-12.76,3.64s-12.16-2.57-12.76-3.64c0,0,0-192.51,0-192.51,0-.06,0-.1,0-.13.57-.87,4.66-3.25,12.75-3.25s12.18,2.38,12.76,3.25c0,.03,0,.07,0,.13v74.14c0,5.99,4.85,10.84,10.84,10.84h0Z"/>
    <path class="cls-8" d="m564.41,302.91s0,192.5,0,192.51c-.59,1.07-5.14,3.64-12.76,3.64s-12.17-2.57-12.76-3.64v-192.51c0-.06,0-.1,0-.13.58-.87,4.67-3.25,12.76-3.25s12.18,2.38,12.75,3.25c0,.03,0,.07,0,.13h0Z"/>
    <path class="cls-13" d="m564.41,302.91s0,192.5,0,192.51c-.59,1.07-5.14,3.64-12.76,3.64s-12.17-2.57-12.76-3.64v-192.51c0-.06,0-.1,0-.13.58-.87,4.67-3.25,12.76-3.25s12.18,2.38,12.75,3.25c0,.03,0,.07,0,.13h0Z"/>
    <path class="cls-43" d="m467.82,387.9c-5.99,0-10.84-4.86-10.84-10.84v-74.14c0-.06,0-.11,0-.13-.57-.87-4.67-3.25-12.75-3.25s-12.18,2.38-12.75,3.25c0,.03,0,.07,0,.13,0,0,0,192.5,0,192.51.59,1.07,5.14,3.64,12.76,3.64s12.17-2.57,12.76-3.64c0-.01,0-57.12,0-57.12,0-10.04,4.16-19.12,10.84-25.62v-24.78h0Z"/>
    <g>
      <path class="cls-60" d="m551.65,299.53c-8.09,0-12.18,2.38-12.75,3.25,0,.03,0,.07,0,.13v58.67h25.52v-58.67c0-.06,0-.11,0-.13-.57-.87-4.66-3.25-12.75-3.25Z"/>
      <path class="cls-27" d="m444.22,299.53c-8.09,0-12.18,2.38-12.75,3.25,0,.03,0,.07,0,.13v58.67h25.52v-58.67c0-.06,0-.11,0-.13-.57-.87-4.67-3.25-12.75-3.25Z"/>
    </g>
    <path class="cls-46" d="m492.76,413.37h35.29v-36.31h-60.22v61.25c0-13.77,11.16-24.94,24.94-24.94h0Z"/>
    <path class="cls-37" d="m420.61,413.26v82.12c0,9.68,11.8,14.53,23.6,14.53s23.6-4.84,23.6-14.53v-57.07c0-13.77,11.16-24.94,24.94-24.94h35.29v82.01c0,9.68,11.8,14.53,23.6,14.53s23.6-4.84,23.6-14.53v-82.12h-154.64Z"/>
    <path class="cls-5" d="m551.65,288.69c-11.8,0-23.61,4.24-23.61,14.22v192.47c0,9.69,11.8,14.53,23.61,14.53s23.61-4.84,23.61-14.53v-192.47c0-9.99-11.8-14.22-23.61-14.22Z"/>
  </g>
  <g>
    <path class="cls-68" d="m730.28,288.69c-12.01,0-23.41,4.2-23.41,14.11v136.27c0,20.41-10.81,30.02-28.82,30.02s-28.82-9.61-28.82-30.02v-136.27c0-9.91-12.01-14.11-23.41-14.11-12.01,0-23.41,4.2-23.41,14.11v136.27c0,51.63,33.02,70.84,75.64,70.84s75.64-19.21,75.64-70.84v-136.27c0-9.91-12.01-14.11-23.41-14.11h0Z"/>
    <g>
      <path class="cls-56" d="m678.06,499.06c-20.25,0-36.02-4.56-46.88-13.56-11.89-9.85-17.91-25.47-17.91-46.43v-136.27c0-.08,0-.13,0-.17.57-.83,4.6-3.1,12.56-3.1s11.9,2.33,12.57,3.23c0,0,0,136.31,0,136.31,0,25.58,14.83,40.86,39.66,40.86s39.66-15.27,39.66-40.86v-136.27c0-.08,0-.13,0-.17.57-.83,4.6-3.1,12.56-3.1s11.9,2.33,12.57,3.23c0,0,0,136.31,0,136.31,0,20.92-6.06,36.54-18.01,46.42-10.9,9.01-26.64,13.57-46.78,13.57h0Z"/>
      <path class="cls-94" d="m638.4,439.07s0-136.3,0-136.31c-.67-.89-4.77-3.23-12.57-3.23s-11.99,2.27-12.56,3.1c0,.03,0,.08,0,.17v136.27c0,20.96,6.03,36.58,17.91,46.43,10.86,9,26.63,13.56,46.88,13.56v-19.13c-24.83,0-39.66-15.27-39.66-40.86h0Z"/>
      <g>
        <path class="cls-25" d="m730.28,299.53c-7.96,0-11.99,2.27-12.56,3.1,0,.03,0,.08,0,.17v81.61h25.14c0-37.92,0-81.64,0-81.64-.67-.9-4.77-3.23-12.57-3.23Z"/>
        <path class="cls-7" d="m625.83,299.53c-7.96,0-11.99,2.27-12.56,3.1,0,.03,0,.08,0,.17v81.61h25.14c0-37.92,0-81.64,0-81.64-.67-.9-4.77-3.23-12.57-3.23h0Z"/>
      </g>
    </g>
    <path class="cls-6" d="m706.87,401.92v37.15c0,20.41-10.81,30.02-28.82,30.02s-28.82-9.61-28.82-30.02v-37.15h-46.82v37.15c0,51.63,33.02,70.84,75.64,70.84s75.64-19.21,75.64-70.84v-37.15h-46.83Z"/>
    <path class="cls-85" d="m730.28,288.69c-12.01,0-23.41,4.2-23.41,14.11v136.27c0,20.41-10.81,30.02-28.82,30.02v40.82c42.32,0,75.64-19.21,75.64-70.84v-136.27c0-9.91-12.01-14.11-23.41-14.11h0Z"/>
  </g>
  <g>
    <g>
      <path class="cls-36" d="m788.25,302.5c0-9.82,10.43-14.72,20.86-14.72h62.88c30.67,0,61.35,11.04,61.35,54.6,0,24.85-9.82,41.1-26.07,48.16,18.71,7.05,31.59,18.4,31.59,49.08v6.44c0,48.46-26.99,65.95-61.65,65.95h-68.09c-12.88,0-20.86-6.75-20.86-14.42v-195.08Zm47.54,69.63h32.21c11.66,0,17.48-10.74,17.48-21.16s-5.83-21.47-17.48-21.47h-32.21v42.64Zm30.67,98.15c15.34,0,24.54-8.59,24.54-28.22v-4.91c0-20.86-9.2-28.22-24.54-28.22h-9.27c-11.82,0-21.41,9.58-21.41,21.41v39.94h30.67Z"/>
      <path class="cls-71" d="m921.22,412.73c-3.65-4.96-9.15-8.64-17.84-11.91-4.19-1.58-7-5.54-7.11-10.02s2.51-8.57,6.61-10.35c16.08-6.98,19.45-24.56,19.45-38.07,0-16.35-4.76-27.7-14.56-34.69-8.3-5.92-20.34-8.92-35.79-8.92h-62.88c-3.32,0-6.5.75-8.5,2-1.37.86-1.37,1.36-1.37,1.73v188.72c0,5.36,4.3,9.74,9.66,9.78.07,0,.14,0,.21,0h8.43c4.01,0,7.26-3.25,7.26-7.26v-164.25c0-6.07,4.92-10.99,10.99-10.99h32.21c16.5,0,28.48,13.66,28.48,32.46s-12.24,32.16-28.48,32.16h-32.21v14.83h30.67c13.27,0,35.53,5.1,35.53,39.21v4.91c0,13.35-3.93,23.78-11.1,30.51-6.01,5.65-14.28,8.7-24.43,8.7h-30.67v19.73h41.41c4.91,0,9.48-.39,13.7-1.16,9.3-1.7,16.86-5.26,22.59-10.66,9.54-8.97,14.37-23.49,14.37-43.14v-6.44c0-12.02-2.17-20.81-6.64-26.88Z"/>
    </g>
    <path class="cls-31" d="m868,372.13h-32.21v58.21c0-11.82,9.58-21.41,21.41-21.41h9.27c8.22,0,14.68,2.12,18.9,7.3v-62.75c-.86,9.57-6.65,18.65-17.37,18.65h0Z"/>
    <path class="cls-52" d="m877.21,512c4.72,0,9.3-.33,13.7-1.01v-65.36c-1.07,17.11-10.05,24.66-24.43,24.66h-30.67v41.72h41.41Z"/>
    <path class="cls-79" d="m891.01,437.16v4.91c0,19.63-9.2,28.22-24.54,28.22h-30.67v-39.94c0-3.89,1.04-7.53,2.85-10.67h-50.4v77.91c0,7.67,7.97,14.42,20.86,14.42h68.09c34.66,0,61.65-17.48,61.65-65.95v-6.44c0-7.82-.84-14.38-2.4-19.94h-48.86c2.22,4.29,3.4,10.02,3.4,17.48h0Z"/>
    <path class="cls-74" d="m907.27,390.54c16.26-7.06,26.07-23.31,26.07-48.16,0-43.56-30.67-54.6-61.35-54.6h-15.16v41.72h11.17c11.66,0,17.48,10.74,17.48,21.47s-5.83,21.16-17.48,21.16h-11.17v36.82c.12,0,.25,0,.37,0h9.27c15.34,0,24.54,7.36,24.54,28.22v4.91c0,19.63-9.2,28.22-24.54,28.22h-9.64v41.72h20.38c34.66,0,61.65-17.48,61.65-65.95v-6.44c0-30.67-12.88-42.02-31.59-49.08h0Z"/>
    <path class="cls-102" d="m834.56,298.77h-25.45c-3.32,0-6.5.75-8.5,2-1.37.86-1.37,1.36-1.37,1.73v188.72c0,5.36,4.3,9.74,9.66,9.78.07,0,.14,0,.21,0h8.43c4.01,0,7.26-3.25,7.26-7.26v-164.25c0-5.65,4.26-10.3,9.75-10.92v-19.8Z"/>
    <path class="cls-59" d="m907.78,307.69c-8.3-5.92-20.34-8.92-35.79-8.92h-62.88c-3.32,0-6.5.75-8.5,2-1.37.86-1.37,1.36-1.37,1.73v60.65h25.56v-33.66c0-6.07,4.92-10.99,10.99-10.99h32.21c16.5,0,28.48,13.66,28.48,32.46,0,4.36-.7,8.46-1.97,12.19h24.42c2.63-6.77,3.42-14.25,3.42-20.77,0-16.35-4.76-27.7-14.56-34.69h0Z"/>
  </g>
</svg>