<svg id="Capa_1" enable-background="new 0 0 510 510" height="512" viewBox="0 0 510 510" width="512" xmlns="http://www.w3.org/2000/svg" xmlns:xlink="http://www.w3.org/1999/xlink"><linearGradient id="lg1"><stop offset="0" stop-color="#b3dafe"/><stop offset="1" stop-color="#0182fc"/></linearGradient><linearGradient id="SVGID_1_" gradientUnits="userSpaceOnUse" x1="38.204" x2="323.319" xlink:href="#lg1" y1="77.845" y2="362.96"/><linearGradient id="lg2"><stop offset="0" stop-color="#0182fc" stop-opacity="0"/><stop offset="1" stop-color="#024c67"/></linearGradient><linearGradient id="SVGID_00000016775372844328532990000001684969505406464425_" gradientUnits="userSpaceOnUse" x1="212.769" x2="212.769" xlink:href="#lg2" y1="270.236" y2="457.148"/><linearGradient id="SVGID_00000084492313844529389970000010220788986464265140_" gradientUnits="userSpaceOnUse" x1="384.537" x2="438.87" xlink:href="#lg2" y1="254.793" y2="254.793"/><linearGradient id="SVGID_00000047756097746455678930000011875560341234631823_" gradientUnits="userSpaceOnUse" x1="203.453" x2="336.904" xlink:href="#lg1" y1="102.443" y2="464.428"/><linearGradient id="SVGID_00000175317997900939109550000010334286874907826343_" gradientUnits="userSpaceOnUse" x1="276.116" x2="276.116" xlink:href="#lg2" y1="374.876" y2="471.401"/><linearGradient id="SVGID_00000166661502765468860910000005802831032454866849_" gradientUnits="userSpaceOnUse" x1="469" x2="523.332" xlink:href="#lg2" y1="285.551" y2="285.551"/><linearGradient id="SVGID_00000106826866235000761650000011368518777748683957_" gradientUnits="userSpaceOnUse" x1="332.684" x2="557.864" xlink:href="#lg2" y1="279.516" y2="216.676"/><linearGradient id="SVGID_00000116224044004652743710000008721387862115266960_" gradientUnits="userSpaceOnUse" x1="293.765" x2="281.099" y1="165.245" y2="37.912"><stop offset="0" stop-color="#fff" stop-opacity="0"/><stop offset="1" stop-color="#fff"/></linearGradient><linearGradient id="SVGID_00000107590137870322952300000010413435313257504171_" gradientUnits="userSpaceOnUse" x1="561.917" x2="385.759" xlink:href="#lg2" y1="497.966" y2="390.552"/><linearGradient id="SVGID_00000156560871156664802760000008791375262240058245_" gradientUnits="userSpaceOnUse" x1="276.204" x2="372.873" y1="360.667" y2="457.336"><stop offset="0" stop-color="#eaf9fa"/><stop offset="1" stop-color="#b3dafe"/></linearGradient><linearGradient id="lg3"><stop offset="0" stop-color="#7bacdf" stop-opacity="0"/><stop offset="1" stop-color="#7bacdf"/></linearGradient><linearGradient id="SVGID_00000070840171688388492270000018113194698771151255_" gradientUnits="userSpaceOnUse" x1="414.96" x2="350.852" xlink:href="#lg3" y1="485.512" y2="421.404"/><linearGradient id="SVGID_00000139268549950139428610000008434130225691655818_" gradientUnits="userSpaceOnUse" x1="327.037" x2="327.037" xlink:href="#lg3" y1="456" y2="515.304"/><linearGradient id="SVGID_00000126293808579635545470000003252568958748732853_" gradientUnits="userSpaceOnUse" x1="306.043" x2="364.98" y1="376.706" y2="435.643"><stop offset="0" stop-color="#feaee1"/><stop offset="1" stop-color="#fe2aa8"/></linearGradient><linearGradient id="lg4"><stop offset="0" stop-color="#ca2e43" stop-opacity="0"/><stop offset=".3673" stop-color="#c72144" stop-opacity=".367"/><stop offset="1" stop-color="#c00148"/></linearGradient><linearGradient id="SVGID_00000083060074083973294700000016058877051441056702_" gradientUnits="userSpaceOnUse" x1="327.037" x2="327.037" xlink:href="#lg4" y1="432.042" y2="478.833"/><linearGradient id="SVGID_00000085252881202595813820000009062008262560721066_" gradientUnits="userSpaceOnUse" x1="305.488" x2="342.054" xlink:href="#lg4" y1="374.318" y2="350.576"/><g><g><path d="m153.132 28.502c0-15.741-12.761-28.502-28.503-28.502h-96.127c-15.741 0-28.502 12.761-28.502 28.502v381.848c0 23.324 18.908 42.231 42.231 42.231h349.211c18.83 0 34.095-15.265 34.095-34.095v-327.386c0-18.83-15.265-34.095-34.095-34.095h-209.808c-15.742 0-28.502-12.761-28.502-28.503z" fill="url(#SVGID_1_)"/><path d="m425.537 418.487v-232.198h-425.537v224.061c0 23.324 18.908 42.231 42.231 42.231h349.211c18.831.001 34.095-15.264 34.095-34.094z" fill="url(#SVGID_00000016775372844328532990000001684969505406464425_)"/><path d="m391.443 57.005h-50.365v395.577h50.365c18.83 0 34.095-15.265 34.095-34.095v-327.387c-.001-18.83-15.265-34.095-34.095-34.095z" fill="url(#SVGID_00000084492313844529389970000010220788986464265140_)"/><path d="m510 418.487c0 18.83-15.265 34.095-34.095 34.095h-433.674c23.324 0 42.231-18.908 42.231-42.231v-257.742c0-18.83 15.265-34.095 34.095-34.095h357.348c18.83 0 34.095 15.265 34.095 34.095z" fill="url(#SVGID_00000047756097746455678930000011875560341234631823_)"/><g fill="#fff"><path d="m135.786 152.801h-10.897c-5.31 0-9.615 4.305-9.615 9.615s4.305 9.615 9.615 9.615h10.897c5.31 0 9.615-4.305 9.615-9.615s-4.305-9.615-9.615-9.615z"/><path d="m275.158 152.801h-105.657c-5.311 0-9.615 4.305-9.615 9.615s4.305 9.615 9.615 9.615h105.657c5.31 0 9.615-4.305 9.615-9.615s-4.305-9.615-9.615-9.615z"/><path d="m236.57 197.189c0-5.31-4.305-9.615-9.615-9.615h-57.454c-5.311 0-9.615 4.305-9.615 9.615 0 5.311 4.305 9.615 9.615 9.615h57.454c5.31 0 9.615-4.304 9.615-9.615z"/><path d="m274.984 206.804c5.311 0 9.615-4.305 9.615-9.615 0-5.311-4.305-9.615-9.615-9.615h-18.666c-5.31 0-9.615 4.305-9.615 9.615s4.305 9.615 9.615 9.615z"/></g><path d="m84.463 249.286v161.064c0 23.324-18.908 42.231-42.231 42.231h433.674c18.83 0 34.095-15.265 34.095-34.095v-169.2z" fill="url(#SVGID_00000175317997900939109550000010334286874907826343_)"/><path d="m510 152.608v265.876c0 18.83-15.26 34.1-34.09 34.1h-50.37v-334.066h50.37c18.83 0 34.09 15.26 34.09 34.09z" fill="url(#SVGID_00000166661502765468860910000005802831032454866849_)"/><path d="m425.537 418.487v-299.973h-199.537v334.068h165.443c18.83 0 34.094-15.265 34.094-34.095z" fill="url(#SVGID_00000106826866235000761650000011368518777748683957_)"/><path d="m475.905 118.514h-357.348c-18.83 0-34.095 15.265-34.095 34.095v96.677h425.538v-96.677c0-18.83-15.265-34.095-34.095-34.095z" fill="url(#SVGID_00000116224044004652743710000008721387862115266960_)"/></g><path d="m475.905 452.582c8.758 0 16.743-3.305 22.781-8.733l-101.999-101.999v110.732z" fill="url(#SVGID_00000107590137870322952300000010413435313257504171_)"/><g><circle cx="327.037" cy="411.5" fill="url(#SVGID_00000156560871156664802760000008791375262240058245_)" r="98.5"/><path d="m288.863 444.535 62.447 62.447c42.661-10.812 74.227-49.46 74.227-95.483 0-.18-.006-.358-.007-.537l-40.863-40.863z" fill="url(#SVGID_00000070840171688388492270000018113194698771151255_)"/><path d="m228.537 411.5c0 54.4 44.1 98.5 98.5 98.5s98.5-44.1 98.5-98.5c0-2.132-.076-4.246-.209-6.344h-196.582c-.133 2.098-.209 4.212-.209 6.344z" fill="url(#SVGID_00000139268549950139428610000008434130225691655818_)"/><g><g><path d="m327.037 466.604c-2.406 0-4.816-.57-6.97-1.647-6.508-3.257-19.216-10.24-31.204-20.421-15.595-13.244-24.839-27.459-27.474-42.252-2.047-11.491.876-23.222 8.019-32.185 6.616-8.3 15.99-13.151 26.396-13.658.612-.03 1.232-.045 1.842-.045 9.75 0 18.954 3.757 25.917 10.58 1.258 1.233 2.417 2.54 3.473 3.913 1.057-1.373 2.216-2.681 3.474-3.913 6.963-6.822 16.167-10.58 25.917-10.58.61 0 1.23.015 1.842.045 10.407.507 19.781 5.358 26.397 13.659 7.143 8.962 10.066 20.693 8.018 32.184-2.635 14.792-11.879 29.008-27.474 42.252-11.988 10.18-24.696 17.164-31.204 20.421-2.152 1.078-4.563 1.647-6.969 1.647z" fill="url(#SVGID_00000126293808579635545470000003252568958748732853_)"/><path d="m265.15 414.559c4.547 10.398 12.483 20.439 23.714 29.977 11.988 10.181 24.697 17.164 31.204 20.421 2.153 1.078 4.564 1.647 6.97 1.647s4.816-.57 6.97-1.647c6.509-3.257 19.217-10.241 31.204-20.421 11.231-9.537 19.167-19.579 23.713-29.977z" fill="url(#SVGID_00000083060074083973294700000016058877051441056702_)"/><path d="m323.564 366.976c-6.963-6.823-16.167-10.58-25.917-10.58-.61 0-1.23.015-1.842.045-10.407.507-19.781 5.358-26.396 13.658-7.143 8.963-10.066 20.693-8.019 32.185 1.454 8.162 4.925 16.149 10.36 23.893l55.288-55.288c-1.057-1.373-2.217-2.681-3.474-3.913z" fill="url(#SVGID_00000085252881202595813820000009062008262560721066_)"/></g></g></g></g></svg>