<?xml version="1.0" encoding="utf-8"?>
<!-- Generator: Adobe Illustrator 27.4.1, SVG Export Plug-In . SVG Version: 6.00 Build 0)  -->
<svg version="1.1" id="Capa_1" xmlns="http://www.w3.org/2000/svg" xmlns:xlink="http://www.w3.org/1999/xlink" x="0px" y="0px"
	 viewBox="0 0 478 405" style="enable-background:new 0 0 478 405;" xml:space="preserve">
<style type="text/css">
	.st0{fill:url(#SVGID_1_);}
	.st1{fill:url(#SVGID_00000031183108578276271540000011212840377145677993_);}
	.st2{fill:url(#SVGID_00000044895069503796972650000006253964750590254977_);}
	.st3{fill:url(#SVGID_00000119112808818887447560000010001414398973875632_);}
</style>
<g>
	<g>
		
			<linearGradient id="SVGID_1_" gradientUnits="userSpaceOnUse" x1="104.7783" y1="551.5002" x2="402.3313" y2="253.9462" gradientTransform="matrix(1.0039 0 0 -1.0039 2.9138 565.0628)">
			<stop  offset="0" style="stop-color:#FDB4BA"/>
			<stop  offset="0.237" style="stop-color:#FDA7AD"/>
			<stop  offset="0.6831" style="stop-color:#FE828B"/>
			<stop  offset="1" style="stop-color:#FE646F"/>
		</linearGradient>
		<path class="st0" d="M469.9,111.6l-0.5-3.1C460.1,49.2,410.9,3.8,351,0.3c-0.7,0-1.4-0.1-2.1-0.1c-2.2-0.1-4.5-0.2-6.7-0.2
			c-35.3,0-68.5,12.8-93.7,36c-4.6,4.2-8.7,8.6-12.6,13.3c-3.8-4.7-8-9.1-12.6-13.3c-25.2-23.2-58.5-36-93.7-36
			c-2.2,0-4.4,0.1-6.7,0.2c-0.7,0-1.4,0.1-2.1,0.1C60.9,3.8,11.7,49.2,2.4,108.5l-0.5,3.1c-10.5,67,22.4,133.5,82.2,165.3
			c1.1,0.6,2.2,1.2,3.3,1.8c57.9,30.3,107,67.6,131.6,112.5c7.2,13.1,26.3,13.1,33.6,0c24.7-44.9,73.8-82.2,131.6-112.5
			c1.1-0.6,2.2-1.2,3.3-1.8C447.5,245.1,480.4,178.6,469.9,111.6L469.9,111.6z"/>
		
			<linearGradient id="SVGID_00000062183113175098151230000017095423811865626007_" gradientUnits="userSpaceOnUse" x1="107.9387" y1="493.8384" x2="204.9827" y2="590.8834" gradientTransform="matrix(1.0039 0 0 -1.0039 2.9138 565.0628)">
			<stop  offset="0" style="stop-color:#FE646F;stop-opacity:0"/>
			<stop  offset="0.2018" style="stop-color:#F95E69;stop-opacity:0.202"/>
			<stop  offset="0.4738" style="stop-color:#EC4D58;stop-opacity:0.474"/>
			<stop  offset="0.7843" style="stop-color:#D7313D;stop-opacity:0.784"/>
			<stop  offset="1" style="stop-color:#C41926"/>
		</linearGradient>
		<path style="fill:url(#SVGID_00000062183113175098151230000017095423811865626007_);" d="M223.4,36c-25.2-23.2-58.5-36-93.7-36
			c-2.2,0-4.4,0.1-6.7,0.2c-0.7,0-1.4,0.1-2.1,0.1C60.9,3.8,11.7,49.2,2.4,108.5l-0.5,3.1c-7.6,48.7,7.7,97.1,39.6,132.1L235.9,49.3
			C232.1,44.6,227.9,40.2,223.4,36z"/>
		
			<linearGradient id="SVGID_00000084506667990269620420000002102981630311298950_" gradientUnits="userSpaceOnUse" x1="232.0976" y1="311.0335" x2="232.0976" y2="163.4005" gradientTransform="matrix(1.0039 0 0 -1.0039 2.9138 565.0628)">
			<stop  offset="0" style="stop-color:#FE646F;stop-opacity:0"/>
			<stop  offset="0.2018" style="stop-color:#F95E69;stop-opacity:0.202"/>
			<stop  offset="0.4738" style="stop-color:#EC4D58;stop-opacity:0.474"/>
			<stop  offset="0.7843" style="stop-color:#D7313D;stop-opacity:0.784"/>
			<stop  offset="1" style="stop-color:#C41926"/>
		</linearGradient>
		<path style="fill:url(#SVGID_00000084506667990269620420000002102981630311298950_);" d="M3.6,170.2
			c9.7,44.8,38.5,84.3,80.6,106.7c1.1,0.6,2.2,1.2,3.3,1.8c57.9,30.3,107,67.6,131.6,112.5c7.2,13.1,26.3,13.1,33.6,0
			c24.7-44.9,73.8-82.2,131.6-112.5c1.1-0.6,2.2-1.2,3.3-1.8c42.1-22.4,70.9-61.9,80.6-106.7L3.6,170.2z"/>
		
			<linearGradient id="SVGID_00000179609869565717233150000001458690067129616054_" gradientUnits="userSpaceOnUse" x1="284.9574" y1="380.4613" x2="389.1694" y2="270.4593" gradientTransform="matrix(1.0039 0 0 -1.0039 2.9138 565.0628)">
			<stop  offset="0" style="stop-color:#FE646F;stop-opacity:0"/>
			<stop  offset="0.2018" style="stop-color:#F95E69;stop-opacity:0.202"/>
			<stop  offset="0.4738" style="stop-color:#EC4D58;stop-opacity:0.474"/>
			<stop  offset="0.7843" style="stop-color:#D7313D;stop-opacity:0.784"/>
			<stop  offset="1" style="stop-color:#C41926"/>
		</linearGradient>
		<path style="fill:url(#SVGID_00000179609869565717233150000001458690067129616054_);" d="M469.9,111.6l-0.5-3.1
			c-7.2-46.3-38.8-84.1-80.8-100.1L107.4,289.6c49.1,28.2,89.9,62,111.7,101.6c7.2,13.1,26.3,13.1,33.6,0
			c24.7-44.9,73.8-82.2,131.6-112.5c1.1-0.6,2.2-1.2,3.3-1.8C447.5,245.1,480.4,178.6,469.9,111.6L469.9,111.6z"/>
	</g>
</g>
</svg>
