<svg id="Capa_1" enable-background="new 0 0 510 510" height="512" viewBox="0 0 510 510" width="512" xmlns="http://www.w3.org/2000/svg" xmlns:xlink="http://www.w3.org/1999/xlink"><linearGradient id="SVGID_1_" gradientUnits="userSpaceOnUse" x1="107.681" x2="405.234" y1="11.355" y2="308.909"><stop offset="0" stop-color="#fdb4ba"/><stop offset=".237" stop-color="#fda7ad"/><stop offset=".6831" stop-color="#fe828b"/><stop offset="1" stop-color="#fe646f"/></linearGradient><linearGradient id="lg1"><stop offset="0" stop-color="#fe646f" stop-opacity="0"/><stop offset=".2018" stop-color="#f95e69" stop-opacity=".202"/><stop offset=".4738" stop-color="#ec4d58" stop-opacity=".474"/><stop offset=".7843" stop-color="#d7313d" stop-opacity=".784"/><stop offset="1" stop-color="#c41926"/></linearGradient><linearGradient id="SVGID_00000145740589826516002960000014316077724713445567_" gradientUnits="userSpaceOnUse" x1="110.841" x2="207.885" xlink:href="#lg1" y1="69.017" y2="-28.028"/><linearGradient id="SVGID_00000088102248433725838750000012071423858310591387_" gradientUnits="userSpaceOnUse" x1="235" x2="235" xlink:href="#lg1" y1="251.822" y2="399.455"/><linearGradient id="SVGID_00000004522671602776667790000001102273949326716302_" gradientUnits="userSpaceOnUse" x1="287.86" x2="392.072" xlink:href="#lg1" y1="182.394" y2="292.396"/><linearGradient id="SVGID_00000107570465145793803930000004081065077509734531_" gradientUnits="userSpaceOnUse" x1="265.299" x2="180.299" xlink:href="#lg1" y1="269.199" y2="311.199"/><linearGradient id="SVGID_00000134228018359981978520000015058615673664135341_" gradientTransform="matrix(-.707 .707 .463 .463 -1216.112 680.954)" gradientUnits="userSpaceOnUse" x1="-1361.444" x2="-1321.875" y1="1524.917" y2="1524.917"><stop offset="0" stop-color="#537983"/><stop offset="1" stop-color="#384949"/></linearGradient><linearGradient id="lg2"><stop offset="0" stop-color="#554e56" stop-opacity="0"/><stop offset=".269" stop-color="#524b52" stop-opacity=".269"/><stop offset=".521" stop-color="#464147" stop-opacity=".521"/><stop offset=".7654" stop-color="#343034" stop-opacity=".765"/><stop offset="1" stop-color="#1a1a1a"/></linearGradient><linearGradient id="SVGID_00000067199539827586238430000012958364350157660804_" gradientTransform="matrix(-.707 .707 .463 .463 -1216.112 680.954)" gradientUnits="userSpaceOnUse" x1="-1334.393" x2="-1301.116" xlink:href="#lg2" y1="1523.162" y2="1518.17"/><linearGradient id="SVGID_00000155835763607080055410000001282703390121914788_" gradientTransform="matrix(-.707 .707 .463 .463 -1216.112 680.954)" gradientUnits="userSpaceOnUse" x1="-1341.43" x2="-1341.43" xlink:href="#lg2" y1="1436.185" y2="1414.927"/><linearGradient id="SVGID_00000062876501655172792350000007629191231780921276_" gradientTransform="matrix(-.707 .707 .463 .463 -1216.112 680.954)" gradientUnits="userSpaceOnUse" x1="-1341.428" x2="-1341.428" xlink:href="#lg2" y1="1599.245" y2="1639.424"/><linearGradient id="SVGID_00000106149008394352353800000013100648442322155925_" gradientTransform="matrix(-.707 .707 .707 .707 -1570.061 327.005)" gradientUnits="userSpaceOnUse" x1="-1341.881" x2="-1341.881" y1="1405.892" y2="1444.631"><stop offset="0" stop-color="#fef0ae"/><stop offset="1" stop-color="#fac600"/></linearGradient><linearGradient id="SVGID_00000140001543754390847220000008290028989774614962_" gradientUnits="userSpaceOnUse" x1="373.064" x2="354.761" y1="384.098" y2="418.208"><stop offset="0" stop-color="#fea613" stop-opacity="0"/><stop offset=".2032" stop-color="#fda215" stop-opacity=".203"/><stop offset=".4052" stop-color="#fb961b" stop-opacity=".405"/><stop offset=".6066" stop-color="#f68225" stop-opacity=".607"/><stop offset=".8066" stop-color="#f06633" stop-opacity=".807"/><stop offset="1" stop-color="#e94444"/></linearGradient><linearGradient id="SVGID_00000028288170765055202540000012649504916136335000_" gradientUnits="userSpaceOnUse" x1="302.738" x2="157.898" y1="302.738" y2="157.898"><stop offset="0" stop-color="#fff" stop-opacity="0"/><stop offset="1" stop-color="#fff"/></linearGradient><linearGradient id="SVGID_00000159436073890140649090000003419399063446046378_" gradientUnits="userSpaceOnUse" x1="185.001" x2="384.583" y1="184.999" y2="384.582"><stop offset="0" stop-color="#c8effe"/><stop offset="1" stop-color="#62dbfb"/></linearGradient><linearGradient id="lg3"><stop offset="0" stop-color="#07b2cd" stop-opacity="0"/><stop offset=".4553" stop-color="#05a5ce" stop-opacity=".455"/><stop offset="1" stop-color="#0290cf"/></linearGradient><linearGradient id="SVGID_00000061468790032003155610000004932210331561304464_" gradientUnits="userSpaceOnUse" x1="122.501" x2="496.502" xlink:href="#lg3" y1="122.499" y2="496.501"/><linearGradient id="SVGID_00000026123052501910547840000005429122224677582496_" gradientUnits="userSpaceOnUse" x1="277.091" x2="277.091" xlink:href="#lg3" y1="358" y2="431.498"/><linearGradient id="SVGID_00000135692322367898507110000015663742202002525887_" gradientTransform="matrix(.707 -.707 .707 .707 -162.626 296.912)" gradientUnits="userSpaceOnUse" x1="324.942" x2="324.942" xlink:href="#lg3" y1="377.821" y2="451.32"/><g><g><path d="m468.077 111.178-.492-3.097c-9.254-59.111-58.243-104.289-117.972-107.811-.714-.048-1.428-.087-2.123-.116-2.209-.096-4.438-.154-6.638-.154-35.114 0-68.259 12.727-93.337 35.837-4.535 4.178-8.713 8.607-12.515 13.248-3.802-4.641-7.98-9.07-12.515-13.248-25.078-23.11-58.223-35.837-93.337-35.837-2.2 0-4.429.058-6.639.154-.695.029-1.409.068-2.123.116-59.728 3.522-108.717 48.7-117.971 107.811l-.492 3.097c-10.44 66.715 22.299 132.947 81.922 164.645 1.09.579 2.2 1.168 3.31 1.746 57.64 30.134 106.566 67.362 131.133 112.041 7.2 13.095 26.224 13.095 33.424 0 24.567-44.679 73.493-81.907 131.133-112.041 1.11-.579 2.219-1.168 3.31-1.746 59.623-31.698 92.362-97.93 81.922-164.645z" fill="url(#SVGID_1_)"/><path d="m222.485 35.837c-25.078-23.11-58.223-35.837-93.337-35.837-2.2 0-4.429.058-6.639.154-.695.029-1.409.067-2.123.116-59.728 3.522-108.717 48.7-117.971 107.811l-.492 3.097c-7.586 48.476 7.642 96.682 39.399 131.585l193.678-193.677c-3.802-4.641-7.98-9.071-12.515-13.249z" fill="url(#SVGID_00000145740589826516002960000014316077724713445567_)"/><path d="m3.604 169.525c9.665 44.619 38.302 84.002 80.241 106.298 1.09.579 2.2 1.168 3.31 1.746 57.64 30.134 106.566 67.362 131.133 112.041 7.2 13.095 26.224 13.095 33.424 0 24.567-44.679 73.493-81.907 131.133-112.041 1.11-.579 2.219-1.168 3.31-1.746 41.938-22.296 70.576-61.679 80.241-106.298z" fill="url(#SVGID_00000088102248433725838750000012071423858310591387_)"/><path d="m468.077 111.178-.492-3.097c-7.22-46.123-38.634-83.762-80.465-99.749l-280.115 280.115c48.903 28.078 89.591 61.714 111.283 101.164 7.2 13.095 26.224 13.095 33.424 0 24.567-44.679 73.493-81.907 131.133-112.041 1.11-.579 2.219-1.168 3.31-1.746 59.623-31.699 92.362-97.931 81.922-164.646z" fill="url(#SVGID_00000004522671602776667790000001102273949326716302_)"/></g><path d="m277.091 164.474c-62.197 0-112.617 50.42-112.617 112.617 0 53.969 37.966 99.063 88.644 110.051 24.992-43.582 73.154-79.996 129.727-109.573 1.11-.579 2.219-1.168 3.31-1.746 1.18-.628 2.346-1.273 3.505-1.928-1.692-60.718-51.441-109.421-112.569-109.421z" fill="url(#SVGID_00000107570465145793803930000004081065077509734531_)"/><g><g><path d="m379.145 415.416-14.426-13.728 36.969-36.969 13.728 14.426c6.637 6.974 14.14 13.077 22.431 18.243l62.302 38.825c15.774 9.83 12.155 36.506-7.637 56.298-19.792 19.792-46.469 23.411-56.298 7.637l-38.825-62.302c-5.168-8.291-11.27-15.794-18.244-22.43z" fill="url(#SVGID_00000134228018359981978520000015058615673664135341_)"/><path d="m397.388 437.847c-5.167-8.291-11.269-15.795-18.243-22.431l-14.426-13.728 27.539-27.539 108.469 108.468c-2.32 3.409-5.06 6.74-8.215 9.895-19.792 19.792-46.469 23.411-56.298 7.637z" fill="url(#SVGID_00000067199539827586238430000012958364350157660804_)"/><path d="m383.764 420.082 36.32-36.32c-1.606-1.488-3.159-3.03-4.665-4.618l-13.731-14.425-36.967 36.967 14.425 13.731c1.589 1.506 3.13 3.059 4.618 4.665z" fill="url(#SVGID_00000155835763607080055410000001282703390121914788_)"/><path d="m500.149 436.213c15.774 9.83 12.155 36.506-7.637 56.298-19.792 19.792-46.469 23.411-56.298 7.637l-17.075-27.4 53.611-53.611z" fill="url(#SVGID_00000062876501655172792350000007629191231780921276_)"/><path d="m373.306 406.947 34.281-34.281c6.642-6.642 6.642-17.411 0-24.053l-7.358-7.358-58.334 58.334 7.358 7.358c6.642 6.642 17.411 6.642 24.053 0z" fill="url(#SVGID_00000106149008394352353800000013100648442322155925_)"/><path d="m395.652 384.601-22.345 22.345c-6.642 6.642-17.411 6.642-24.053 0l-7.358-7.358 34.372-34.372z" fill="url(#SVGID_00000140001543754390847220000008290028989774614962_)"/></g><g><circle cx="277.091" cy="277.091" fill="url(#SVGID_00000028288170765055202540000012649504916136335000_)" r="112.617"/><path d="m277.087 133.746c-79.159 0-143.335 64.176-143.335 143.343s64.176 143.343 143.335 143.343c79.168 0 143.343-64.176 143.343-143.343s-64.176-143.343-143.343-143.343zm0 246.446c-56.938 0-103.094-46.156-103.094-103.102 0-56.938 46.156-103.102 103.094-103.102 56.946 0 103.102 46.164 103.102 103.102 0 56.946-46.156 103.102-103.102 103.102z" fill="url(#SVGID_00000159436073890140649090000003419399063446046378_)"/><path d="m277.087 150.936c-69.666 0-126.146 56.48-126.146 126.153s56.48 126.153 126.146 126.153c69.673 0 126.153-56.48 126.153-126.153s-56.479-126.153-126.153-126.153zm0 229.256c-56.938 0-103.094-46.156-103.094-103.102 0-56.938 46.156-103.102 103.094-103.102 56.946 0 103.102 46.164 103.102 103.102 0 56.946-46.156 103.102-103.102 103.102z" fill="url(#SVGID_00000061468790032003155610000004932210331561304464_)"/><path d="m380.189 277.089c0 56.946-46.156 103.102-103.102 103.102-56.938 0-103.094-46.156-103.094-103.102 0-2.69.104-5.357.306-7.995h-40.321c-.146 2.647-.226 5.312-.226 7.995 0 79.167 64.176 143.343 143.335 143.343 79.167 0 143.343-64.176 143.343-143.343 0-2.684-.08-5.348-.226-7.995h-40.322c.204 2.639.307 5.305.307 7.995z" fill="url(#SVGID_00000026123052501910547840000005429122224677582496_)"/><path d="m349.991 204.189c40.267 40.267 40.267 105.542 0 145.809-40.261 40.261-105.536 40.261-145.803-.006-1.902-1.902-3.714-3.861-5.437-5.87l-28.512 28.512c1.769 1.975 3.596 3.916 5.494 5.813 55.98 55.98 146.738 55.98 202.712.006 55.98-55.98 55.98-146.738 0-202.718-1.898-1.898-3.838-3.725-5.813-5.494l-28.512 28.512c2.01 1.722 3.968 3.534 5.871 5.436z" fill="url(#SVGID_00000135692322367898507110000015663742202002525887_)"/></g></g></g></svg>