<svg id="Capa_1" enable-background="new 0 0 510 510" height="512" viewBox="0 0 510 510" width="512" xmlns="http://www.w3.org/2000/svg" xmlns:xlink="http://www.w3.org/1999/xlink"><linearGradient id="lg1"><stop offset="0" stop-color="#d5daf3"/><stop offset="1" stop-color="#60b7ff"/></linearGradient><linearGradient id="SVGID_1_" gradientUnits="userSpaceOnUse" x1="220" x2="292" xlink:href="#lg1" y1="401.027" y2="401.027"/><linearGradient id="lg2"><stop offset="0" stop-color="#0182fc" stop-opacity="0"/><stop offset=".2545" stop-color="#0180f7" stop-opacity=".255"/><stop offset=".5464" stop-color="#0179e9" stop-opacity=".546"/><stop offset=".8556" stop-color="#006ed2" stop-opacity=".856"/><stop offset="1" stop-color="#0067c5"/></linearGradient><linearGradient id="SVGID_00000018219357955307103330000005698990202369487807_" gradientUnits="userSpaceOnUse" x1="232.789" x2="306.123" xlink:href="#lg2" y1="378.868" y2="369.535"/><linearGradient id="SVGID_00000058549580208582715090000017727673983653856435_" gradientUnits="userSpaceOnUse" x1="255" x2="255" xlink:href="#lg2" y1="474" y2="510.393"/><linearGradient id="SVGID_00000009559903030262201010000018359298925182158008_" gradientUnits="userSpaceOnUse" x1="255" x2="255" xlink:href="#lg2" y1="346.667" y2="301.505"/><linearGradient id="SVGID_00000119797978433578835410000003390321382272334250_" gradientUnits="userSpaceOnUse" x1="196.46" x2="337.46" xlink:href="#lg1" y1="40.881" y2="215.881"/><linearGradient id="SVGID_00000173137448823959607630000013068321901846636167_" gradientUnits="userSpaceOnUse" x1="275" x2="429.635" xlink:href="#lg2" y1="155.983" y2="155.983"/><linearGradient id="SVGID_00000163049122392401285400000012582668809323085982_" gradientUnits="userSpaceOnUse" x1="255" x2="255" xlink:href="#lg2" y1="207" y2="321.355"/><linearGradient id="SVGID_00000015326443938364520650000017041986476186292921_" gradientUnits="userSpaceOnUse" x1="307.175" x2="351.175" xlink:href="#lg2" y1="206.723" y2="277.723"/><linearGradient id="SVGID_00000061471687805676807700000006546674955799236542_" gradientUnits="userSpaceOnUse" x1="231.011" x2="173.011" xlink:href="#lg2" y1="168.351" y2="157.351"/><linearGradient id="SVGID_00000047041568137374333690000017130507153802256005_" gradientUnits="userSpaceOnUse" x1="169.886" x2="145.886" xlink:href="#lg2" y1="239.328" y2="188.328"/><linearGradient id="SVGID_00000109008630167611590730000002992445671140203962_" gradientUnits="userSpaceOnUse" x1="177.136" x2="43.136" y1="103.782" y2="47.782"><stop offset="0" stop-color="#fff" stop-opacity="0"/><stop offset="1" stop-color="#fff"/></linearGradient><g><path d="m366.396 484.043c-12.448-10.942-29.959-20.737-50.702-27.498-14.483-4.721-24.947-17.36-26.852-32.473-5.512-43.727-3.544-88.05-.591-132.017-28.281 0-40.088 0-66.504 0 2.952 43.962 4.92 88.288-.592 132.017-1.905 15.114-12.369 27.753-26.852 32.474-20.742 6.761-38.253 16.556-50.701 27.498-10.275 9.033-3.963 25.957 9.718 25.957h203.357c13.682-.001 19.995-16.926 9.719-25.958z" fill="url(#SVGID_1_)"/><path d="m315.69 456.54c-18.17-5.92-38.8-9.51-60.69-9.51-22.02 0-42.78 3.64-61.02 9.62.11-.04.21-.07.32-.11 14.49-4.72 24.95-17.36 26.86-32.47 5.51-43.73 3.54-88.05.59-132.02h66.5c-2.95 43.97-4.92 88.29.59 132.02 1.91 15.11 12.37 27.75 26.85 32.47z" fill="url(#SVGID_00000018219357955307103330000005698990202369487807_)"/><path d="m221.156 424.071c-1.905 15.114-12.369 27.752-26.852 32.474-20.742 6.761-38.253 16.556-50.701 27.498-10.275 9.033-3.963 25.957 9.718 25.957h203.357c13.681 0 19.993-16.925 9.718-25.957-12.448-10.942-29.959-20.737-50.702-27.498-14.483-4.721-24.947-17.36-26.852-32.473-.883-7.009-1.556-14.035-2.082-21.071h-63.523c-.525 7.035-1.197 14.061-2.081 21.07z" fill="url(#SVGID_00000058549580208582715090000017727673983653856435_)"/><path d="m221.748 292.054c1.845 27.473 3.306 55.089 2.796 82.613h60.911c-.509-27.522.952-55.137 2.797-82.612-28.28-.001-40.088-.001-66.504-.001z" fill="url(#SVGID_00000009559903030262201010000018359298925182158008_)"/><path d="m388.082 0h-159.189c-7.041 0-12.749 5.708-12.749 12.749v.723c0 6.06 4.912 10.972 10.972 10.972h8.876c7.505 0 12.795 7.366 10.397 14.478l-41.368 122.675c-3.97 11.773-21.369 8.919-21.369-3.506v-103.618c0-6.06-4.912-10.972-10.972-10.972h-8.876c-7.505 0-12.795-7.366-10.397-14.478l4.114-12.201c2.788-8.263-3.359-16.822-12.079-16.822h-23.523c-17.11 0-30.98 13.87-30.98 30.98v118.842c0 89.55 72.594 162.144 162.144 162.144h3.835c89.55 0 162.144-72.594 162.144-162.144v-118.842c0-17.11-13.87-30.98-30.98-30.98z" fill="url(#SVGID_00000119797978433578835410000003390321382272334250_)"/><path d="m388.082 0h-159.189c-7.041 0-12.749 5.708-12.749 12.749v.723c0 6.06 4.912 10.972 10.972 10.972h8.876c7.505 0 12.795 7.366 10.397 14.478l-36.389 107.909v159.337c13.72 3.772 28.164 5.797 43.082 5.797h3.835c89.55 0 162.144-72.594 162.144-162.144v-118.841c.001-17.11-13.869-30.98-30.979-30.98z" fill="url(#SVGID_00000173137448823959607630000013068321901846636167_)"/><path d="m211.629 142-6.608 19.596c-3.97 11.773-21.369 8.919-21.369-3.506v-16.09h-92.714v7.822c0 89.55 72.594 162.144 162.144 162.144h3.835c89.55 0 162.144-72.594 162.144-162.144v-7.822z" fill="url(#SVGID_00000163049122392401285400000012582668809323085982_)"/><path d="m253.082 311.966h3.835c89.55 0 162.144-72.594 162.144-162.144v-100.775l-310.858 173.64c26.685 52.952 81.537 89.279 144.879 89.279z" fill="url(#SVGID_00000015326443938364520650000017041986476186292921_)"/><path d="m202.289 166.067-10.265 16.801c-4.434 7.257-2.155 16.733 5.093 21.181 8.354 5.126 9.867 16.644 3.122 23.754l-6.102 6.432c-3.432 3.617-4.903 8.671-3.948 13.565l10.856 55.635c16.334 5.531 33.836 8.531 52.038 8.531h3.835c89.55 0 162.144-72.594 162.144-162.144v-88.155h-180.343l-33.698 99.93c-.621 1.841-1.571 3.325-2.732 4.47z" fill="url(#SVGID_00000061471687805676807700000006546674955799236542_)"/><path d="m194.136 234.235 6.102-6.432c6.746-7.11 5.232-18.628-3.122-23.754-7.248-4.448-9.527-13.924-5.093-21.181l-6.886 10.862c-5.897 9.301-16.144 14.937-27.157 14.937-5.109 0-8.147 5.703-5.297 9.943 3.879 5.771 2.427 13.585-3.267 17.578l-22.344 15.666c19.092 23.549 44.647 41.64 73.97 51.571l-10.853-55.625c-.955-4.894.515-9.948 3.947-13.565z" fill="url(#SVGID_00000047041568137374333690000017130507153802256005_)"/><path d="m383.611 180.802v-180.802h-154.718c-7.041 0-12.749 5.708-12.749 12.749v.723c0 6.06 4.912 10.972 10.972 10.972h8.876c7.505 0 12.795 7.366 10.397 14.478l-41.368 122.675c-3.97 11.773-21.369 8.919-21.369-3.506v-103.618c0-6.06-4.912-10.972-10.972-10.972h-8.876c-7.505 0-12.795-7.366-10.397-14.478l4.114-12.201c2.788-8.263-3.359-16.822-12.079-16.822h-19.052v180.802c0 46.356 18.852 87.093 47.308 110.422 23.465 13.202 50.543 20.742 79.385 20.742h3.835c28.842 0 55.919-7.54 79.385-20.742 28.456-23.329 47.308-64.066 47.308-110.422z" fill="url(#SVGID_00000109008630167611590730000002992445671140203962_)"/></g></svg>