<svg id="_04_Cocktail" enable-background="new 0 0 512 512" viewBox="0 0 512 512" xmlns="http://www.w3.org/2000/svg" xmlns:xlink="http://www.w3.org/1999/xlink"><linearGradient id="lg1"><stop offset="0" stop-color="#d1f19e"/><stop offset=".1783" stop-color="#ceef99"/><stop offset=".363" stop-color="#c7eb8d"/><stop offset=".5508" stop-color="#bbe378"/><stop offset=".7406" stop-color="#a9d95b"/><stop offset=".9303" stop-color="#94cc36"/><stop offset="1" stop-color="#8bc727"/></linearGradient><linearGradient id="SVGID_1_" gradientTransform="matrix(1 0 0 -1 0 514)" gradientUnits="userSpaceOnUse" x1="34.365" x2="147.702" xlink:href="#lg1" y1="490.464" y2="377.127"/><linearGradient id="lg2"><stop offset="0" stop-color="#78a91f" stop-opacity="0"/><stop offset=".1488" stop-color="#78a91f" stop-opacity=".025"/><stop offset=".3031" stop-color="#78a91f" stop-opacity=".098"/><stop offset=".4599" stop-color="#78a91f" stop-opacity=".221"/><stop offset=".6185" stop-color="#78a91f" stop-opacity=".393"/><stop offset=".7784" stop-color="#78a91f" stop-opacity=".615"/><stop offset=".9373" stop-color="#78a91f" stop-opacity=".882"/><stop offset="1" stop-color="#78a91f"/></linearGradient><linearGradient id="SVGID_00000088828648468438561950000002396175274099133348_" gradientTransform="matrix(1 0 0 -1 0 514)" gradientUnits="userSpaceOnUse" x1="-31.552" x2="169.105" xlink:href="#lg2" y1="556.381" y2="355.724"/><linearGradient id="SVGID_00000135665780584951338340000006950040059678637448_" gradientTransform="matrix(1 0 0 -1 0 514)" gradientUnits="userSpaceOnUse" x1="90.772" x2="90.772" xlink:href="#lg2" y1="397.925" y2="341.636"/><linearGradient id="SVGID_00000173841279180166380450000008025988695871102098_" gradientTransform="matrix(1 0 0 -1 0 514)" gradientUnits="userSpaceOnUse" x1="127.344" x2="196.759" xlink:href="#lg2" y1="434.056" y2="434.056"/><linearGradient id="lg3"><stop offset="0" stop-color="#c9f6b0" stop-opacity="0"/><stop offset=".1227" stop-color="#c9f6b0" stop-opacity=".017"/><stop offset=".25" stop-color="#c9f6b0" stop-opacity=".068"/><stop offset=".3793" stop-color="#c9f6b0" stop-opacity=".152"/><stop offset=".5101" stop-color="#c9f6b0" stop-opacity=".27"/><stop offset=".6422" stop-color="#c9f6b0" stop-opacity=".423"/><stop offset=".7752" stop-color="#c9f6b0" stop-opacity=".61"/><stop offset=".9064" stop-color="#c9f6b0" stop-opacity=".826"/><stop offset="1" stop-color="#c9f6b0"/></linearGradient><linearGradient id="SVGID_00000105415657533274783780000003711596649170006693_" gradientTransform="matrix(1 0 0 -1 0 514)" gradientUnits="userSpaceOnUse" x1="119.554" x2="164.66" xlink:href="#lg3" y1="405.275" y2="360.169"/><linearGradient id="SVGID_00000051351754925616088300000009313814924020642957_" gradientTransform="matrix(1 0 0 -1 0 514)" gradientUnits="userSpaceOnUse" x1="41.494" x2="140.507" xlink:href="#lg1" y1="483.335" y2="384.322"/><linearGradient id="lg4"><stop offset="0" stop-color="#f5fdff"/><stop offset=".2433" stop-color="#f0fafd"/><stop offset=".4954" stop-color="#e4f2f7"/><stop offset=".7506" stop-color="#cfe4ee"/><stop offset="1" stop-color="#b4d2e2"/></linearGradient><linearGradient id="SVGID_00000165202399413986524450000004969193394861727394_" gradientTransform="matrix(1 0 0 -1 0 514)" gradientUnits="userSpaceOnUse" x1="58.775" x2="52.064" xlink:href="#lg4" y1="461.66" y2="433.472"/><linearGradient id="SVGID_00000101796611015010116080000002813486284108543128_" gradientTransform="matrix(1 0 0 -1 0 514)" gradientUnits="userSpaceOnUse" x1="47.187" x2="64.299" xlink:href="#lg4" y1="436.426" y2="402.537"/><linearGradient id="SVGID_00000117665997595895755610000010380784572093492149_" gradientTransform="matrix(1 0 0 -1 0 514)" gradientUnits="userSpaceOnUse" x1="88.506" x2="118.711" xlink:href="#lg4" y1="482.427" y2="458.934"/><linearGradient id="SVGID_00000127002060883697944530000001923743079768106889_" gradientTransform="matrix(1 0 0 -1 0 514)" gradientUnits="userSpaceOnUse" x1="57.47" x2="88.681" xlink:href="#lg4" y1="467.532" y2="470.552"/><linearGradient id="SVGID_00000181777508104175776460000011906071454902788519_" gradientTransform="matrix(1 0 0 -1 0 514)" gradientUnits="userSpaceOnUse" x1="86.849" x2="125.107" xlink:href="#lg4" y1="396.835" y2="400.863"/><linearGradient id="SVGID_00000023968079683206173560000001268124162398415531_" gradientTransform="matrix(1 0 0 -1 0 514)" gradientUnits="userSpaceOnUse" x1="117.645" x2="131.737" xlink:href="#lg4" y1="466.272" y2="435.739"/><linearGradient id="SVGID_00000002375545970339757270000018325741717015670401_" gradientTransform="matrix(1 0 0 -1 0 514)" gradientUnits="userSpaceOnUse" x1="60.07" x2="90.271" xlink:href="#lg4" y1="406.567" y2="392.473"/><linearGradient id="SVGID_00000086663881970436469070000001742097146513135529_" gradientTransform="matrix(1 0 0 -1 0 514)" gradientUnits="userSpaceOnUse" x1="130.894" x2="120.828" xlink:href="#lg4" y1="433.433" y2="405.919"/><linearGradient id="SVGID_00000078010271059155676880000004141429167971481734_" gradientTransform="matrix(1 0 0 -1 0 514)" gradientUnits="userSpaceOnUse" x1="238.702" x2="313.229" xlink:href="#lg4" y1="139.913" y2="-33.984"/><linearGradient id="lg5"><stop offset="0" stop-color="#7bacdf" stop-opacity="0"/><stop offset=".1291" stop-color="#7bacdf" stop-opacity=".019"/><stop offset=".2629" stop-color="#7bacdf" stop-opacity=".075"/><stop offset=".3989" stop-color="#7bacdf" stop-opacity=".168"/><stop offset=".5365" stop-color="#7bacdf" stop-opacity=".298"/><stop offset=".6753" stop-color="#7bacdf" stop-opacity=".466"/><stop offset=".8151" stop-color="#7bacdf" stop-opacity=".672"/><stop offset=".9532" stop-color="#7bacdf" stop-opacity=".911"/><stop offset="1" stop-color="#7bacdf"/></linearGradient><linearGradient id="SVGID_00000158712147142912470440000018430893286799038877_" gradientTransform="matrix(1 0 0 -1 0 514)" gradientUnits="userSpaceOnUse" x1="294.227" x2="332.871" xlink:href="#lg5" y1="124.806" y2="158.481"/><linearGradient id="SVGID_00000180366054161149578720000014811098162596819899_" gradientTransform="matrix(1 0 0 -1 0 514)" gradientUnits="userSpaceOnUse" x1="291.251" x2="291.251" xlink:href="#lg5" y1="138.622" y2="177.301"/><linearGradient id="SVGID_00000069376977741964315500000006071219338747316134_" gradientTransform="matrix(1 0 0 -1 0 514)" gradientUnits="userSpaceOnUse" x1="291.251" x2="291.251" xlink:href="#lg5" y1="21.034" y2="-2.152"/><linearGradient id="SVGID_00000163791488962914520740000000603223474107619972_" gradientTransform="matrix(1 0 0 -1 0 514)" gradientUnits="userSpaceOnUse" x1="140.787" x2="431.443" xlink:href="#lg4" y1="416.342" y2="275.983"/><linearGradient id="lg6"><stop offset="0" stop-color="#ffed86"/><stop offset=".1839" stop-color="#feea81"/><stop offset=".3745" stop-color="#fde175"/><stop offset=".5682" stop-color="#fad260"/><stop offset=".764" stop-color="#f7be43"/><stop offset=".9596" stop-color="#f3a41e"/><stop offset="1" stop-color="#f29e16"/></linearGradient><linearGradient id="SVGID_00000103246337959492621190000004022694700421914286_" gradientTransform="matrix(1 0 0 -1 0 514)" gradientUnits="userSpaceOnUse" x1="320.164" x2="395.243" xlink:href="#lg6" y1="443.273" y2="336.175"/><linearGradient id="lg7"><stop offset="0" stop-color="#f29e16" stop-opacity="0"/><stop offset=".1207" stop-color="#f29d16" stop-opacity=".016"/><stop offset=".2459" stop-color="#f29b18" stop-opacity=".065"/><stop offset=".3731" stop-color="#f3971b" stop-opacity=".147"/><stop offset=".5018" stop-color="#f5921e" stop-opacity=".262"/><stop offset=".6317" stop-color="#f68b23" stop-opacity=".41"/><stop offset=".7625" stop-color="#f9842a" stop-opacity=".59"/><stop offset=".8916" stop-color="#fb7a31" stop-opacity=".8"/><stop offset="1" stop-color="#fe7238"/></linearGradient><linearGradient id="SVGID_00000044887114599673091570000006585918909186336904_" gradientTransform="matrix(1 0 0 -1 0 514)" gradientUnits="userSpaceOnUse" x1="370.554" x2="360.617" xlink:href="#lg7" y1="398.677" y2="348.44"/><linearGradient id="SVGID_00000117659736711768174300000014734918452186284177_" gradientTransform="matrix(1 0 0 -1 0 514)" gradientUnits="userSpaceOnUse" x1="141.84" x2="410.563" xlink:href="#lg6" y1="294.396" y2="294.396"/><linearGradient id="SVGID_00000181066313547154588710000013107408664174289048_" gradientTransform="matrix(1 0 0 -1 0 514)" gradientUnits="userSpaceOnUse" x1="310.084" x2="358.113" xlink:href="#lg7" y1="279.7" y2="216.214"/><linearGradient id="SVGID_00000106122303421640302930000002163551579881431990_" gradientTransform="matrix(1 0 0 -1 0 514)" gradientUnits="userSpaceOnUse" x1="282.754" x2="282.754" xlink:href="#lg7" y1="281.571" y2="186.603"/><linearGradient id="SVGID_00000008148785116375553050000003551867741283929020_" gradientTransform="matrix(1 0 0 -1 0 514)" gradientUnits="userSpaceOnUse" x1="356.085" x2="406.874" xlink:href="#lg7" y1="293.19" y2="257.306"/><linearGradient id="SVGID_00000059273698372927145140000010613062782412937396_" gradientTransform="matrix(1 0 0 -1 0 514)" gradientUnits="userSpaceOnUse" x1="55.878" x2="171.258" xlink:href="#lg2" y1="440.823" y2="367.952"/><linearGradient id="SVGID_00000039104659095611069910000000765882460830645163_" gradientTransform="matrix(1 0 0 -1 0 514)" gradientUnits="userSpaceOnUse" x1="8.903" x2="172.863" xlink:href="#lg3" y1="544.472" y2="330.276"/><linearGradient id="SVGID_00000175300888143491475940000017800207746100408704_" gradientTransform="matrix(1 0 0 -1 0 514)" gradientUnits="userSpaceOnUse" x1="22.287" x2="120.829" xlink:href="#lg3" y1="514.949" y2="373.348"/><linearGradient id="SVGID_00000090985827781720249100000009023990777131486623_" gradientTransform="matrix(1 0 0 -1 0 514)" gradientUnits="userSpaceOnUse" x1="61.031" x2="159.572" xlink:href="#lg3" y1="541.911" y2="400.31"/><linearGradient id="SVGID_00000041295355573294087040000002033682099137332395_" gradientTransform="matrix(1 0 0 -1 0 514)" gradientUnits="userSpaceOnUse" x1="3.55" x2="102.091" xlink:href="#lg3" y1="501.91" y2="360.308"/><linearGradient id="SVGID_00000029011446341444676030000000231045605716126864_" gradientTransform="matrix(1 0 0 -1 0 514)" gradientUnits="userSpaceOnUse" x1="49.395" x2="147.936" xlink:href="#lg3" y1="533.814" y2="392.212"/><linearGradient id="SVGID_00000018222310063563941150000009600664263738840228_" gradientTransform="matrix(1 0 0 -1 0 514)" gradientUnits="userSpaceOnUse" x1="410.453" x2="476.286" xlink:href="#lg5" y1="299.415" y2="282.025"/><linearGradient id="SVGID_00000009556170437893144450000002771851595300352934_" gradientTransform="matrix(1 0 0 -1 0 514)" gradientUnits="userSpaceOnUse" x1="309.862" x2="378.179" xlink:href="#lg5" y1="255.857" y2="192.509"/><linearGradient id="SVGID_00000103968299709768036560000013203903092919365515_" gradientTransform="matrix(1 0 0 -1 0 514)" gradientUnits="userSpaceOnUse" x1="281.092" x2="276.123" xlink:href="#lg5" y1="257.776" y2="148.47"/><linearGradient id="SVGID_00000017493258738307640550000004262321019011466430_" gradientTransform="matrix(1 0 0 -1 0 514)" gradientUnits="userSpaceOnUse" x1="392.793" x2="333.171" xlink:href="#lg7" y1="302.62" y2="357.825"/><linearGradient id="SVGID_00000128472749646961869440000011238921506833104283_" gradientTransform="matrix(1 0 0 -1 0 514)" gradientUnits="userSpaceOnUse" x1="411.54" x2="381.729" xlink:href="#lg7" y1="357.274" y2="396.47"/><linearGradient id="SVGID_00000122704531749182359850000003673946325369706645_" gradientTransform="matrix(1 0 0 -1 0 514)" gradientUnits="userSpaceOnUse" x1="260.576" x2="322.21" y1="346.808" y2="285.174"><stop offset="0" stop-color="#ff4565"/><stop offset=".2378" stop-color="#fb4063"/><stop offset=".4841" stop-color="#ef345d"/><stop offset=".7343" stop-color="#dc1f55"/><stop offset=".9859" stop-color="#c10248"/><stop offset="1" stop-color="#c00148"/></linearGradient><linearGradient id="lg8"><stop offset="0" stop-color="#c41926" stop-opacity="0"/><stop offset=".1865" stop-color="#c01926" stop-opacity=".038"/><stop offset=".3798" stop-color="#b61c26" stop-opacity=".152"/><stop offset=".5761" stop-color="#a62126" stop-opacity=".343"/><stop offset=".7747" stop-color="#8f2826" stop-opacity=".609"/><stop offset=".9732" stop-color="#713126" stop-opacity=".949"/><stop offset="1" stop-color="#6d3326"/></linearGradient><linearGradient id="SVGID_00000164486730678391709860000008287559820254720644_" gradientTransform="matrix(1 0 0 -1 0 514)" gradientUnits="userSpaceOnUse" x1="291.251" x2="291.251" xlink:href="#lg8" y1="296.485" y2="265.874"/><linearGradient id="SVGID_00000093860811077986881960000007965358266091925687_" gradientTransform="matrix(1 0 0 -1 0 514)" gradientUnits="userSpaceOnUse" x1="295.405" x2="338.994" xlink:href="#lg8" y1="316.133" y2="316.133"/><linearGradient id="SVGID_00000095312535763976868500000016888387954345766556_" gradientTransform="matrix(1 0 0 -1 0 514)" gradientUnits="userSpaceOnUse" x1="298.489" x2="325.912" y1="308.895" y2="281.472"><stop offset="0" stop-color="#fb2b3a" stop-opacity="0"/><stop offset=".1209" stop-color="#fb2b3a" stop-opacity=".016"/><stop offset=".2464" stop-color="#fb2c3b" stop-opacity=".066"/><stop offset=".3739" stop-color="#fb2f3d" stop-opacity=".148"/><stop offset=".5029" stop-color="#fb3241" stop-opacity=".263"/><stop offset=".6329" stop-color="#fb3645" stop-opacity=".411"/><stop offset=".764" stop-color="#fc3b4a" stop-opacity=".593"/><stop offset=".8933" stop-color="#fc414f" stop-opacity=".803"/><stop offset="1" stop-color="#fd4755"/></linearGradient><linearGradient id="SVGID_00000010293243318973367790000013467606596374500525_" gradientTransform="matrix(1 0 0 -1 0 514)" gradientUnits="userSpaceOnUse" x1="316.188" x2="306.365" xlink:href="#lg8" y1="341.07" y2="331.247"/><linearGradient id="SVGID_00000173120703433281414410000003416792916482189455_" gradientTransform="matrix(1 0 0 -1 0 514)" gradientUnits="userSpaceOnUse" x1="371.802" x2="380.364" y1="405.315" y2="396.754"><stop offset="0" stop-color="#465a61"/><stop offset=".3978" stop-color="#44565c"/><stop offset=".8093" stop-color="#404c50"/><stop offset="1" stop-color="#3e4648"/></linearGradient><linearGradient id="lg9"><stop offset="0" stop-color="#fff" stop-opacity="0"/><stop offset="1" stop-color="#fff"/></linearGradient><linearGradient id="SVGID_00000132060422972870995680000016623579574395197088_" gradientTransform="matrix(1 0 0 -1 0 514)" gradientUnits="userSpaceOnUse" x1="239.919" x2="217.501" xlink:href="#lg9" y1="256.661" y2="279.078"/><linearGradient id="SVGID_00000010991531335702610900000008749281832546512308_" gradientTransform="matrix(1 0 0 -1 0 514)" gradientUnits="userSpaceOnUse" x1="264.329" x2="249.49" xlink:href="#lg9" y1="216.541" y2="231.38"/><linearGradient id="SVGID_00000103969697899071256630000011684980241261750430_" gradientTransform="matrix(1 0 0 -1 0 514)" gradientUnits="userSpaceOnUse" x1="283.05" x2="268.212" xlink:href="#lg9" y1="306.703" y2="321.542"/><linearGradient id="SVGID_00000124867249168770781190000011338905452421954729_" gradientTransform="matrix(1 0 0 -1 0 514)" gradientUnits="userSpaceOnUse" x1="300.021" x2="285.182" xlink:href="#lg9" y1="241.729" y2="256.568"/><linearGradient id="SVGID_00000097489638288226062340000008097666947749692289_" gradientTransform="matrix(1 0 0 -1 0 514)" gradientUnits="userSpaceOnUse" x1="377.571" x2="355.153" xlink:href="#lg9" y1="312.699" y2="335.116"/><linearGradient id="SVGID_00000016037470838958330340000012323303179778322613_" gradientTransform="matrix(1 0 0 -1 0 514)" gradientUnits="userSpaceOnUse" x1="193.44" x2="171.022" xlink:href="#lg9" y1="350.978" y2="373.396"/><linearGradient id="SVGID_00000166635558637092849850000006383870528337469072_" gradientTransform="matrix(1 0 0 -1 0 514)" gradientUnits="userSpaceOnUse" x1="274.369" x2="251.951" xlink:href="#lg9" y1="318.113" y2="340.53"/><linearGradient id="SVGID_00000103971214762106261260000018170278516686515104_" gradientTransform="matrix(1 0 0 -1 0 514)" gradientUnits="userSpaceOnUse" x1="217.849" x2="203.011" xlink:href="#lg9" y1="310.859" y2="325.698"/><linearGradient id="SVGID_00000067227743121013409600000013895039730772910760_" gradientTransform="matrix(1 0 0 -1 0 514)" gradientUnits="userSpaceOnUse" x1="405.191" x2="390.352" xlink:href="#lg9" y1="333.577" y2="348.416"/><linearGradient id="SVGID_00000169549768414494003740000014902912252028832691_" gradientTransform="matrix(1 0 0 -1 0 514)" gradientUnits="userSpaceOnUse" x1="221.38" x2="300.876" y1="187.862" y2="406.475"><stop offset="0" stop-color="#ffed86" stop-opacity="0"/><stop offset=".1237" stop-color="#feeb84" stop-opacity=".017"/><stop offset=".2521" stop-color="#fee77e" stop-opacity=".069"/><stop offset=".3825" stop-color="#fce074" stop-opacity=".155"/><stop offset=".5144" stop-color="#fbd767" stop-opacity=".275"/><stop offset=".6475" stop-color="#f9cb55" stop-opacity=".43"/><stop offset=".7816" stop-color="#f6bc40" stop-opacity=".62"/><stop offset=".914" stop-color="#f4aa27" stop-opacity=".84"/><stop offset="1" stop-color="#f29e16"/></linearGradient><linearGradient id="SVGID_00000070830765459604039990000011633359283349518515_" gradientTransform="matrix(1 0 0 -1 0 514)" gradientUnits="userSpaceOnUse" x1="282.758" x2="282.758" y1="375.476" y2="446.451"><stop offset="0" stop-color="#fff" stop-opacity="0"/><stop offset=".1205" stop-color="#fff" stop-opacity=".016"/><stop offset=".2454" stop-color="#fff" stop-opacity=".065"/><stop offset=".3724" stop-color="#fff" stop-opacity=".147"/><stop offset=".5008" stop-color="#fff" stop-opacity=".261"/><stop offset=".6304" stop-color="#fff" stop-opacity=".408"/><stop offset=".761" stop-color="#fff" stop-opacity=".588"/><stop offset=".8898" stop-color="#fff" stop-opacity=".797"/><stop offset="1" stop-color="#fff"/></linearGradient><g><g><g><path d="m91.5 159.9c-.5 0-1 0-1.4 0-43.7-.1-79.1-35.6-79.2-79.2 0-.5 0-1 0-1.4 0-43.7 35.5-79.2 79.2-79.3h1.4c43.7.1 79.1 35.6 79.2 79.2v1.4c-.1 43.7-35.5 79.2-79.2 79.3z" fill="url(#SVGID_1_)"/><path d="m91.5 159.9c-.5 0-1 0-1.4 0-43.7-.1-79.1-35.6-79.2-79.2 0-.5 0-1 0-1.4 0-43.7 35.5-79.2 79.2-79.3h1.4c43.7.1 79.1 35.6 79.2 79.2v1.4c-.1 43.7-35.5 79.2-79.2 79.3z" fill="url(#SVGID_00000088828648468438561950000002396175274099133348_)"/><path d="m170.7 80.7c0-.5 0-1 0-1.4 0-7.1-1-14.1-2.8-20.6h-154.3c-1.8 6.6-2.8 13.5-2.8 20.6v1.4c.1 43.7 35.6 79.1 79.2 79.2h1.4c43.8-.1 79.2-35.6 79.3-79.2z" fill="url(#SVGID_00000135665780584951338340000006950040059678637448_)"/><path d="m91.5 0c-.5 0-1 0-1.4 0-7.2 0-14.1 1-20.7 2.8v154.3c6.6 1.8 13.5 2.8 20.6 2.8h1.4c43.7-.1 79.1-35.6 79.2-79.2 0-.5 0-1 0-1.4 0-43.7-35.4-79.2-79.1-79.3z" fill="url(#SVGID_00000173841279180166380450000008025988695871102098_)"/><path d="m170.7 80.7c0-.5 0-1 0-1.4-.1-29.7-16.5-55.6-40.7-69.1l-109.1 109c13.6 24.2 39.4 40.6 69.1 40.7h1.4c43.8-.1 79.2-35.6 79.3-79.2z" fill="url(#SVGID_00000105415657533274783780000003711596649170006693_)"/></g><path d="m91.4 149.8c-.4 0-.8 0-1.2 0-38.2-.1-69.2-31.1-69.3-69.2 0-.4 0-.8 0-1.2.1-38.2 31.1-69.2 69.2-69.3h1.2c38.2.1 69.1 31.1 69.2 69.2v1.2c0 38.2-30.9 69.2-69.1 69.3z" fill="url(#SVGID_00000051351754925616088300000009313814924020642957_)"/><g><path d="m47.5 78.8c-5.6 0-10.8-2.8-13.9-7.4s-3.7-10.4-1.6-15.5l.2-.5c2.6-6.1 8.6-10.1 15.3-10.1 4.5 0 8.7 1.7 11.8 4.9l18.9 18.8c1.7 1.7 2.1 4.1 1.2 6.3s-3 3.6-5.3 3.6c0-.1-26.6-.1-26.6-.1z" fill="url(#SVGID_00000165202399413986524450000004969193394861727394_)"/><path d="m47.5 114.7c-6.7 0-12.7-4-15.3-10.1l-.2-.6c-2.1-5.1-1.5-10.9 1.6-15.5s8.3-7.4 13.9-7.4h26.6c2.3 0 4.4 1.4 5.3 3.6s.4 4.6-1.2 6.3l-18.8 18.8c-3.2 3.1-7.4 4.9-11.9 4.9z" fill="url(#SVGID_00000101796611015010116080000002813486284108543128_)"/><path d="m97.7 69c-3.2 0-5.8-2.6-5.8-5.8v-26.6c0-9.2 7.5-16.7 16.7-16.7 2.1 0 4.2.4 6.3 1.2l.5.2c5.1 2.1 8.7 6.6 9.8 12 1.1 5.5-.6 11.2-4.6 15.1l-18.8 18.8c-1.1 1.2-2.6 1.8-4.1 1.8z" fill="url(#SVGID_00000117665997595895755610000010380784572093492149_)"/><path d="m83.8 69c-1.5 0-3-.6-4.1-1.7l-18.7-18.8c-4-4-5.7-9.6-4.6-15.1 1.1-5.4 4.7-9.9 9.8-12l.5-.2c2-.8 4.1-1.2 6.3-1.2 9.2 0 16.7 7.5 16.7 16.7v26.6c0 1.6-.6 3.1-1.8 4.2-1.2 1-2.6 1.5-4.1 1.5z" fill="url(#SVGID_00000127002060883697944530000001923743079768106889_)"/><path d="m108.6 140c-9.2 0-16.7-7.5-16.7-16.7v-26.7c0-3.2 2.6-5.8 5.8-5.8 1.5 0 3 .6 4.1 1.7l18.8 18.8c4 4 5.7 9.6 4.6 15.1-1.1 5.4-4.7 9.9-9.8 12l-.5.2c-2.1 1-4.2 1.4-6.3 1.4z" fill="url(#SVGID_00000181777508104175776460000011906071454902788519_)"/><path d="m107.5 78.8c-2.3 0-4.4-1.4-5.3-3.6s-.4-4.6 1.2-6.3l18.8-18.8c3.2-3.2 7.4-4.9 11.8-4.9 6.7 0 12.7 4 15.3 10.1l.2.5c2.1 5.1 1.5 10.9-1.6 15.5s-8.3 7.4-13.9 7.4z" fill="url(#SVGID_00000023968079683206173560000001268124162398415531_)"/><path d="m72.9 140c-2.1 0-4.2-.4-6.3-1.2l-.5-.2c-5.1-2.1-8.7-6.6-9.8-12-1.1-5.5.6-11.2 4.6-15.1l18.8-18.8c1.1-1.1 2.5-1.7 4.1-1.7 3.2 0 5.8 2.6 5.8 5.8v26.6c0 4.6-1.8 8.8-5 12-3.1 2.8-7.4 4.6-11.7 4.6z" fill="url(#SVGID_00000002375545970339757270000018325741717015670401_)"/><path d="m134 114.7c-4.5 0-8.7-1.7-11.8-4.9l-18.8-18.8c-1.7-1.7-2.1-4.1-1.2-6.3s3-3.6 5.3-3.6h26.6c5.6 0 10.8 2.8 13.9 7.4s3.7 10.4 1.6 15.5l-.2.5c-2.6 6.2-8.6 10.2-15.4 10.2z" fill="url(#SVGID_00000086663881970436469070000001742097146513135529_)"/></g></g><g><g><path d="m315.5 410.5v-93.9h-48.5v93.9c0 25.1-18.4 46.3-43.2 50.1-44.6 6.9-74.9 20.5-74.9 36.1 0 2.4.7 4.7 2 6.9 3.1 5.3 9 8.4 15.2 8.4h250.1c6.2 0 12.1-3.1 15.2-8.4 1.3-2.3 2-4.6 2-6.9 0-15.6-30.3-29.2-74.9-36.1-24.7-3.8-43-25-43-50.1z" fill="url(#SVGID_00000078010271059155676880000004141429167971481734_)"/><path d="m334.7 450.2c-11.8-9.3-19.3-23.7-19.3-39.7v-93.9h-48.4v93.9c0 16-7.5 30.4-19.3 39.7z" fill="url(#SVGID_00000158712147142912470440000018430893286799038877_)"/><path d="m315.6 414.3h-48.7c.1-1.3.2-2.5.2-3.8v-93.9h48.4v93.9c0 1.3 0 2.5.1 3.8z" fill="url(#SVGID_00000180366054161149578720000014811098162596819899_)"/><path d="m433.6 496.7c0 2.4-.7 4.7-2 6.9-3.1 5.3-9 8.4-15.2 8.4h-250.2c-6.2 0-12.1-3.1-15.2-8.4-1.3-2.3-2-4.6-2-6.9 0-13.9 23.9-26.1 60.6-33.5h163.4c36.6 7.4 60.6 19.6 60.6 33.5z" fill="url(#SVGID_00000069376977741964315500000006071219338747316134_)"/></g><g><path d="m481.1 71.6h-396.7c-12.2 0-21.6 10.8-19.9 22.8l11.5 82.8c3.3 24.3 24.1 42.4 48.6 42.4 15.5 0 28.8 10.9 32 26.1 11.5 55.7 60.6 95.7 117.5 95.7h17.5c56.9 0 106-40 117.5-95.7 3.1-15.2 16.5-26.1 32-26.1 24.5 0 45.3-18.1 48.6-42.4l11.3-82.8c1.6-12.1-7.7-22.8-19.9-22.8z" fill="url(#SVGID_00000163791488962914520740000000603223474107619972_)"/><g><path d="m468.3 136s-95.7-38.6-203.9 1.2c0 0 118 70.8 203.9-1.2z" fill="url(#SVGID_00000103246337959492621190000004022694700421914286_)"/><path d="m468.3 136s-95.7-38.6-203.9 1.2c0 0 118 70.8 203.9-1.2z" fill="url(#SVGID_00000044887114599673091570000006585918909186336904_)"/><path d="m463.9 136c3.6-1.8 7.8 1.2 7.2 5.2l-4.5 32.9c-1.8 12.7-12.8 22.3-25.6 22.3-26.4 0-49.4 18.8-54.7 44.6-9.2 44.7-49.1 77.2-94.7 77.2h-17.6c-45.7 0-85.5-32.5-94.7-77.2-5.3-25.8-28.4-44.6-54.7-44.6-12.8 0-23.8-9.6-25.6-22.3l-3.1-22.3c-.8-5.9 2.6-11.6 8.1-13.7 40.8-15.4 109.2-29.6 187.2 1.7 75.8 30.3 136.4 14 172.7-3.8z" fill="url(#SVGID_00000117659736711768174300000014734918452186284177_)"/><path d="m135.7 197.5c21.5 4.4 39 21.3 43.5 43.4 9.2 44.7 49.1 77.2 94.7 77.2h17.5c45.7 0 85.5-32.5 94.7-77.2 4.6-22.1 22.1-39 43.5-43.4z" fill="url(#SVGID_00000181066313547154588710000013107408664174289048_)"/><path d="m135.7 197.5c21.5 4.4 39 21.3 43.5 43.4 9.2 44.7 49.1 77.2 94.7 77.2h17.5c45.7 0 85.5-32.5 94.7-77.2 4.6-22.1 22.1-39 43.5-43.4z" fill="url(#SVGID_00000106122303421640302930000002163551579881431990_)"/><path d="m463.9 136c-36.2 17.8-96.8 34.1-172.6 3.7-10.6-4.3-21.1-7.7-31.3-10.3v187.7c4.6.7 9.3 1.1 14 1.1h17.5c45.7 0 85.5-32.5 94.7-77.2 5.3-25.8 28.3-44.6 54.7-44.6 12.8 0 23.8-9.6 25.6-22.3l4.5-32.9c.6-4-3.5-7-7.1-5.2z" fill="url(#SVGID_00000008148785116375553050000003551867741283929020_)"/></g><g><path d="m64.5 94.4 8.8 63.7c5.4 1.2 11 1.8 16.7 1.8h1.4c43.7-.1 79.1-35.6 79.2-79.2 0-.5 0-1 0-1.4 0-2.6-.1-5.1-.4-7.6h-85.8c-12.2-.1-21.5 10.6-19.9 22.7z" fill="url(#SVGID_00000059273698372927145140000010613062782412937396_)"/><path d="m160.6 80.6c0-.4 0-.8 0-1.2 0-2.6-.2-5.2-.5-7.7h-75.7c-12.2 0-21.6 10.8-19.9 22.8l7.3 52.9c5.8 1.6 12 2.5 18.3 2.5h1.2c38.3-.2 69.2-31.2 69.3-69.3z" fill="url(#SVGID_00000039104659095611069910000000765882460830645163_)"/><g><path d="m101.8 92.6c-1.1-1.1-2.5-1.7-4.1-1.7-3.2 0-5.8 2.6-5.8 5.8v26.6c0 9.2 7.5 16.7 16.7 16.7 2.1 0 4.2-.4 6.3-1.2l.5-.2c5.1-2.1 8.7-6.6 9.8-12 1.1-5.5-.6-11.2-4.6-15.1 0-.1-18.8-18.9-18.8-18.9z" fill="url(#SVGID_00000175300888143491475940000017800207746100408704_)"/><path d="m107.5 78.8h26.6c5.6 0 10.8-2.8 13.9-7.4s3.7-10.4 1.6-15.5l-.2-.5c-2.6-6.1-8.6-10.1-15.3-10.1-4.5 0-8.7 1.7-11.8 4.9l-18.9 18.8c-1.7 1.7-2.1 4.1-1.2 6.3.8 2.1 2.9 3.5 5.3 3.5z" fill="url(#SVGID_00000090985827781720249100000009023990777131486623_)"/><path d="m83.8 90.9c-1.5 0-3 .6-4.1 1.7l-18.7 18.8c-4 4-5.7 9.6-4.6 15.1 1.1 5.4 4.7 9.9 9.8 12l.5.2c2 .8 4.1 1.2 6.3 1.2 4.3 0 8.5-1.7 11.6-4.8 3.2-3.2 5-7.4 5-12v-26.5c0-3.1-2.6-5.7-5.8-5.7z" fill="url(#SVGID_00000041295355573294087040000002033682099137332395_)"/><path d="m147.9 88.5c-3.1-4.6-8.3-7.4-13.9-7.4h-26.6c-2.3 0-4.4 1.4-5.3 3.6s-.4 4.6 1.2 6.3l18.8 18.8c3.2 3.2 7.4 4.9 11.8 4.9 6.7 0 12.7-4 15.3-10.1l.2-.5c2.2-5.2 1.6-11-1.5-15.6z" fill="url(#SVGID_00000029011446341444676030000000231045605716126864_)"/></g></g><path d="m481.1 71.6h-205.3v269.8h15.8c56.9 0 106-40 117.5-95.7 3.1-15.2 16.5-26.1 32-26.1 24.5 0 45.3-18.1 48.6-42.4l11.3-82.8c1.6-12.1-7.7-22.8-19.9-22.8z" fill="url(#SVGID_00000018222310063563941150000009600664263738840228_)"/><path d="m409 245.6c3.1-15.2 16.5-26.1 32-26.1h-316.4c15.5 0 28.8 10.9 32 26.1 11.5 55.7 60.6 95.7 117.5 95.7h17.5c56.8.1 105.9-39.9 117.4-95.7z" fill="url(#SVGID_00000009556170437893144450000002771851595300352934_)"/><path d="m409 245.6c3.1-15.2 16.5-26.1 32-26.1h-316.4c15.5 0 28.8 10.9 32 26.1 11.5 55.7 60.6 95.7 117.5 95.7h17.5c56.8.1 105.9-39.9 117.4-95.7z" fill="url(#SVGID_00000103968299709768036560000013203903092919365515_)"/></g></g><path d="m463.9 136c-28.8 14.1-72.9 27.3-127.7 16.9l-75.7 75.7 77.5 77.5c24.2-13.3 42.5-36.8 48.3-65.2 5.3-25.8 28.3-44.6 54.7-44.6 12.8 0 23.8-9.6 25.6-22.3l4.5-32.9c.5-3.9-3.6-6.9-7.2-5.1z" fill="url(#SVGID_00000017493258738307640550000004262321019011466430_)"/><path d="m369.9 119.2-33.7 33.8 10.1 12.9c38 6 83.3 2.6 122-29.8 0-.1-40.4-16.4-98.4-16.9z" fill="url(#SVGID_00000128472749646961869440000011238921506833104283_)"/><g><g><path d="m291.6 241.3c-.3 0-.5 0-.8 0-23.8-.1-43-19.3-43.1-43.1 0-.3 0-.5 0-.8.1-23.8 19.3-43 43.1-43.1h.8c23.8.1 43 19.3 43.1 43.1v.8c0 23.8-19.3 43.1-43.1 43.1z" fill="url(#SVGID_00000122704531749182359850000003673946325369706645_)"/><path d="m334.7 198.3c0-.3 0-.5 0-.8 0-3.9-.5-7.6-1.5-11.2h-83.9c-1 3.6-1.5 7.3-1.5 11.2v.8c.1 23.8 19.3 43 43.1 43.1h.8c23.7-.1 43-19.4 43-43.1z" fill="url(#SVGID_00000164486730678391709860000008287559820254720644_)"/><path d="m291.6 154.4c-.3 0-.5 0-.8 0-3.9 0-7.6.5-11.2 1.5v83.9c3.6 1 7.3 1.5 11.2 1.5h.8c23.8-.1 43-19.3 43.1-43.1 0-.3 0-.5 0-.8 0-23.7-19.3-42.9-43.1-43z" fill="url(#SVGID_00000093860811077986881960000007965358266091925687_)"/><path d="m334.7 198.3c0-.3 0-.5 0-.8 0-16.1-9-30.2-22.1-37.6l-59.3 59.3c7.4 13.2 21.4 22.1 37.6 22.1h.8c23.7 0 43-19.3 43-43z" fill="url(#SVGID_00000095312535763976868500000016888387954345766556_)"/></g><path d="m303.6 163c3.4-3.4 11.2-1.1 17.4 5.2 6.2 6.2 8.5 14 5.2 17.4-3.4 3.4-11.2 1.1-17.4-5.2-6.3-6.3-8.6-14.1-5.2-17.4z" fill="url(#SVGID_00000010293243318973367790000013467606596374500525_)"/><path d="m443.5 45.6c2.9 2.9 2.9 7.6 0 10.5l-124.2 124.3c-2.9 2.9-7.6 2.9-10.5 0-2.9-2.9-2.9-7.6 0-10.5l124.2-124.3c2.9-2.9 7.6-2.9 10.5 0z" fill="url(#SVGID_00000173120703433281414410000003416792916482189455_)"/></g><g><g opacity=".55"><circle cx="233.5" cy="250.9" fill="url(#SVGID_00000132060422972870995680000016623579574395197088_)" r="12.7"/><circle cx="259" cy="292.1" fill="url(#SVGID_00000010991531335702610900000008749281832546512308_)" r="8.3"/><circle cx="277.7" cy="201.9" fill="url(#SVGID_00000103969697899071256630000011684980241261750430_)" r="8.3"/><circle cx="294.7" cy="266.9" fill="url(#SVGID_00000124867249168770781190000011338905452421954729_)" r="8.3"/></g><g><circle cx="371.1" cy="194.9" fill="url(#SVGID_00000097489638288226062340000008097666947749692289_)" r="12.7"/><circle cx="187" cy="156.6" fill="url(#SVGID_00000016037470838958330340000012323303179778322613_)" r="12.7"/><circle cx="267.9" cy="189.4" fill="url(#SVGID_00000166635558637092849850000006383870528337469072_)" r="12.7"/><circle cx="212.5" cy="197.8" fill="url(#SVGID_00000103971214762106261260000018170278516686515104_)" r="8.3"/><circle cx="399.8" cy="175.1" fill="url(#SVGID_00000067227743121013409600000013895039730772910760_)" r="8.3"/></g></g><path d="m463.9 136c3.6-1.8 7.8 1.2 7.2 5.2l-4.5 32.9c-1.8 12.7-12.8 22.3-25.6 22.3-26.4 0-49.4 18.8-54.7 44.6-9.2 44.7-49.1 77.2-94.7 77.2h-17.6c-45.7 0-85.5-32.5-94.7-77.2-5.3-25.8-28.4-44.6-54.7-44.6-12.8 0-23.8-9.6-25.6-22.3l-3.1-22.3c-.8-5.9 2.6-11.6 8.1-13.7 40.8-15.4 109.2-29.6 187.2 1.7 75.8 30.3 136.4 14 172.7-3.8z" fill="url(#SVGID_00000169549768414494003740000014902912252028832691_)"/><path d="m501 94.4-7.8 56.5h-420.9l-7.8-56.5c-1.7-12.1 7.7-22.8 19.9-22.8h396.7c12.2 0 21.5 10.7 19.9 22.8z" fill="url(#SVGID_00000070830765459604039990000011633359283349518515_)"/></g></svg>