<svg id="Capa_1" enable-background="new 0 0 512 512" viewBox="0 0 512 512" xmlns="http://www.w3.org/2000/svg" xmlns:xlink="http://www.w3.org/1999/xlink"><linearGradient id="SVGID_1_" gradientUnits="userSpaceOnUse" x1="330.714" x2="419.466" y1="87.225" y2="137.482"><stop offset="0" stop-color="#f2d1a5"/><stop offset="1" stop-color="#b1705b"/></linearGradient><linearGradient id="lg1"><stop offset="0" stop-color="#eaf9fa"/><stop offset="1" stop-color="#b3dafe"/></linearGradient><linearGradient id="SVGID_00000073689916850176139460000005209733551868508344_" gradientUnits="userSpaceOnUse" x1="218.545" x2="300.881" xlink:href="#lg1" y1="131.324" y2="359.086"/><linearGradient id="SVGID_00000136378261883003047710000013960545844364531587_" gradientUnits="userSpaceOnUse" x1="315.576" x2="368.328" y1="156.055" y2="188.134"><stop offset="0" stop-color="#b27a49" stop-opacity="0"/><stop offset=".2772" stop-color="#ad7649" stop-opacity=".277"/><stop offset=".6408" stop-color="#9c6b48" stop-opacity=".641"/><stop offset="1" stop-color="#855b47"/></linearGradient><linearGradient id="lg2"><stop offset="0" stop-color="#fd4755"/><stop offset="1" stop-color="#ca2e43"/></linearGradient><linearGradient id="SVGID_00000127749772898964404040000012194713338007839389_" gradientUnits="userSpaceOnUse" x1="231.02" x2="280.208" xlink:href="#lg2" y1="200.81" y2="315.226"/><linearGradient id="lg3"><stop offset="0" stop-color="#fef0ae"/><stop offset="1" stop-color="#fac600"/></linearGradient><linearGradient id="SVGID_00000053531452474029049120000001972699420334623394_" gradientTransform="matrix(1 -.002 .002 1 1.931 .879)" gradientUnits="userSpaceOnUse" x1="96.567" x2="159.873" xlink:href="#lg3" y1="209.586" y2="274.913"/><linearGradient id="lg4"><stop offset="0" stop-color="#fff" stop-opacity="0"/><stop offset="1" stop-color="#fff"/></linearGradient><linearGradient id="SVGID_00000124841121880622514270000015401833294060078513_" gradientTransform="matrix(1 -.002 .002 1 1.931 .879)" gradientUnits="userSpaceOnUse" x1="232.99" x2="76.407" xlink:href="#lg4" y1="395.058" y2="171.296"/><linearGradient id="SVGID_00000165235427880637278680000010114559333506521737_" gradientTransform="matrix(1 -.002 .002 1 1.931 .879)" gradientUnits="userSpaceOnUse" x1="132.834" x2="141.589" xlink:href="#lg3" y1="216.898" y2="230.705"/><linearGradient id="SVGID_00000059992336396868866020000013204207773072108929_" gradientTransform="matrix(1 -.002 .002 1 1.931 .879)" gradientUnits="userSpaceOnUse" x1="136.898" x2="139.592" xlink:href="#lg3" y1="236.109" y2="253.619"/><linearGradient id="SVGID_00000147907483503043269830000015519293134062663867_" gradientTransform="matrix(1 -.002 .002 1 1.931 .879)" gradientUnits="userSpaceOnUse" x1="113.517" x2="126.987" xlink:href="#lg3" y1="249.166" y2="259.942"/><linearGradient id="SVGID_00000039093722599932991420000008788283643627862931_" gradientTransform="matrix(1 -.002 .002 1 1.931 .879)" gradientUnits="userSpaceOnUse" x1="97.208" x2="109.331" xlink:href="#lg3" y1="237.929" y2="250.388"/><linearGradient id="SVGID_00000173149221034532131150000014567028074875222445_" gradientTransform="matrix(1 -.002 .002 1 1.931 .879)" gradientUnits="userSpaceOnUse" x1="101.675" x2="104.369" xlink:href="#lg3" y1="217.335" y2="234.845"/><linearGradient id="SVGID_00000169536706420227744530000007894076194694311326_" gradientTransform="matrix(1 -.002 .002 1 1.931 .879)" gradientUnits="userSpaceOnUse" x1="114.751" x2="127.547" xlink:href="#lg3" y1="208.492" y2="219.941"/><linearGradient id="lg5"><stop offset="0" stop-color="#fe9738" stop-opacity="0"/><stop offset="1" stop-color="#fe9738"/></linearGradient><linearGradient id="SVGID_00000140693538211159077730000002308923233022325180_" gradientTransform="matrix(1 -.002 .002 1 1.931 .879)" gradientUnits="userSpaceOnUse" x1="120.441" x2="120.441" xlink:href="#lg5" y1="255.794" y2="269.8"/><radialGradient id="SVGID_00000082329809135184121160000002299229145274795916_" cx="186.859" cy="202.597" gradientUnits="userSpaceOnUse" r="14.999" xlink:href="#lg2"/><linearGradient id="lg6"><stop offset="0" stop-color="#a72b2b" stop-opacity="0"/><stop offset=".766" stop-color="#972437"/><stop offset=".8828" stop-color="#9b2634" stop-opacity=".501"/><stop offset=".9934" stop-color="#a62b2c" stop-opacity=".028"/><stop offset="1" stop-color="#a72b2b" stop-opacity="0"/></linearGradient><radialGradient id="SVGID_00000043427423909738678180000000156643564644854926_" cx="185.386" cy="203.174" gradientUnits="userSpaceOnUse" r="22.274" xlink:href="#lg6"/><radialGradient id="SVGID_00000144313211910544623630000002774580923066037132_" cx="199.264" cy="288.987" gradientUnits="userSpaceOnUse" r="14.999" xlink:href="#lg2"/><radialGradient id="SVGID_00000169527452086077794390000001800179907825881743_" cx="197.792" cy="289.563" gradientUnits="userSpaceOnUse" r="22.274" xlink:href="#lg6"/><linearGradient id="lg7"><stop offset="0" stop-color="#8bc727"/><stop offset=".1819" stop-color="#88c528"/><stop offset=".3509" stop-color="#7cbf2b"/><stop offset=".5147" stop-color="#6ab530"/><stop offset=".6755" stop-color="#4fa638"/><stop offset=".8339" stop-color="#2d9341"/><stop offset=".9887" stop-color="#047d4d"/><stop offset="1" stop-color="#017b4e"/></linearGradient><radialGradient id="SVGID_00000056418945131094799840000002880697029495908020_" cx="228.46" cy="241.415" gradientUnits="userSpaceOnUse" r="14.999" xlink:href="#lg7"/><radialGradient id="SVGID_00000096048277200572710210000003392721460058400698_" cx="226.987" cy="241.992" gradientUnits="userSpaceOnUse" r="22.274" xlink:href="#lg7"/><linearGradient id="lg8"><stop offset="0" stop-color="#ca2e43" stop-opacity="0"/><stop offset=".2648" stop-color="#cf3144" stop-opacity=".265"/><stop offset=".5684" stop-color="#dd3849" stop-opacity=".568"/><stop offset=".89" stop-color="#f44351" stop-opacity=".89"/><stop offset="1" stop-color="#fd4755"/></linearGradient><linearGradient id="SVGID_00000138546086459143759680000018311744238134984867_" gradientUnits="userSpaceOnUse" x1="244.522" x2="228.839" xlink:href="#lg8" y1="358.911" y2="154.554"/><linearGradient id="lg9"><stop offset="0" stop-color="#a72b2b" stop-opacity="0"/><stop offset=".7233" stop-color="#9d2733" stop-opacity=".723"/><stop offset="1" stop-color="#972437"/></linearGradient><linearGradient id="SVGID_00000059990278127812296210000011134031116043103141_" gradientUnits="userSpaceOnUse" x1="232.745" x2="232.745" xlink:href="#lg9" y1="299.588" y2="326.409"/><linearGradient id="lg10"><stop offset="0" stop-color="#b3dafe" stop-opacity="0"/><stop offset=".247" stop-color="#acd4fa" stop-opacity=".247"/><stop offset=".6175" stop-color="#97c3ef" stop-opacity=".618"/><stop offset="1" stop-color="#7bacdf"/></linearGradient><linearGradient id="SVGID_00000059296791471814440060000018036065941245871235_" gradientUnits="userSpaceOnUse" x1="368.528" x2="418.429" xlink:href="#lg10" y1="258.077" y2="283.027"/><linearGradient id="SVGID_00000042006092278649695350000000577317955901728673_" gradientUnits="userSpaceOnUse" x1="232.742" x2="232.742" xlink:href="#lg10" y1="312.894" y2="345.005"/><linearGradient id="SVGID_00000005243702855760172930000014423783368444564113_" gradientUnits="userSpaceOnUse" x1="442.925" x2="506.232" xlink:href="#lg3" y1="238.913" y2="304.24"/><linearGradient id="SVGID_00000025442863292589206130000009513893439873356689_" gradientUnits="userSpaceOnUse" x1="579.349" x2="422.766" xlink:href="#lg4" y1="424.385" y2="200.623"/><linearGradient id="SVGID_00000132055634085651404880000017641520323846322879_" gradientUnits="userSpaceOnUse" x1="479.193" x2="487.948" xlink:href="#lg3" y1="246.226" y2="260.033"/><linearGradient id="SVGID_00000093155827537088502910000009540339614152670648_" gradientUnits="userSpaceOnUse" x1="482.341" x2="484.48" xlink:href="#lg3" y1="262.617" y2="272.953"/><linearGradient id="SVGID_00000081626154511657998890000006499169766839490187_" gradientUnits="userSpaceOnUse" x1="443.567" x2="455.689" xlink:href="#lg3" y1="267.255" y2="279.714"/><linearGradient id="SVGID_00000148641821706169169470000005207169146463775631_" gradientUnits="userSpaceOnUse" x1="448.035" x2="450.728" xlink:href="#lg3" y1="246.662" y2="264.172"/><linearGradient id="SVGID_00000143614269650668968790000009471260830052816552_" gradientUnits="userSpaceOnUse" x1="461.11" x2="473.906" xlink:href="#lg3" y1="237.819" y2="249.268"/><linearGradient id="SVGID_00000170987620445904123960000000126091788897573555_" gradientUnits="userSpaceOnUse" x1="373.149" x2="440.172" xlink:href="#lg1" y1="355.567" y2="355.567"/><linearGradient id="SVGID_00000003089081208478068560000004076906405527736208_" gradientUnits="userSpaceOnUse" x1="363.572" x2="384.007" xlink:href="#lg10" y1="278.563" y2="321.811"/><linearGradient id="SVGID_00000103981545619353157850000015479505132357818770_" gradientUnits="userSpaceOnUse" x1="337.991" x2="359.853" xlink:href="#lg8" y1="234.346" y2="310.385"/><linearGradient id="SVGID_00000158750053544615276300000009160646314941947327_" gradientUnits="userSpaceOnUse" x1="374.828" x2="458.471" xlink:href="#lg2" y1="337.063" y2="395.043"/><radialGradient id="SVGID_00000122688758864895935230000000686892302314099077_" cx="383.385" cy="335.117" gradientUnits="userSpaceOnUse" r="14.999" xlink:href="#lg7"/><radialGradient id="SVGID_00000047028035053548532330000008901460412781731472_" cx="381.912" cy="335.694" gradientUnits="userSpaceOnUse" r="22.274" xlink:href="#lg7"/><radialGradient id="SVGID_00000182495226953036313190000015156728484351728560_" cx="371.772" cy="373.958" gradientUnits="userSpaceOnUse" r="14.999" xlink:href="#lg2"/><radialGradient id="SVGID_00000130642884210214209450000005058093245663199390_" cx="370.3" cy="374.534" gradientUnits="userSpaceOnUse" r="22.274" xlink:href="#lg6"/><radialGradient id="SVGID_00000144334204652952340590000010188748553473695149_" cx="416.101" cy="373.958" gradientUnits="userSpaceOnUse" r="14.999" xlink:href="#lg7"/><radialGradient id="SVGID_00000070806596856111727180000015168952184553593531_" cx="414.628" cy="374.534" gradientUnits="userSpaceOnUse" r="22.274" xlink:href="#lg7"/><linearGradient id="SVGID_00000023253895141125647020000012741920737080949417_" gradientUnits="userSpaceOnUse" x1="461.322" x2="453.718" xlink:href="#lg2" y1="304.046" y2="323.055"/><linearGradient id="SVGID_00000109023338225145686160000016790392237932148127_" gradientUnits="userSpaceOnUse" x1="448.18" x2="407.309" xlink:href="#lg8" y1="472.385" y2="304.148"/><linearGradient id="SVGID_00000120536283966853832230000008733981448734696870_" gradientUnits="userSpaceOnUse" x1="414.684" x2="414.684" xlink:href="#lg10" y1="427.889" y2="440.729"/><linearGradient id="SVGID_00000148656905043084251950000015205244075583425204_" gradientUnits="userSpaceOnUse" x1="470.429" x2="498.468" xlink:href="#lg10" y1="358.982" y2="363.259"/><linearGradient id="SVGID_00000078044636437515850140000010215305914994469274_" gradientUnits="userSpaceOnUse" x1="414.73" x2="414.73" xlink:href="#lg9" y1="394.622" y2="419.951"/><linearGradient id="SVGID_00000023253035589566101870000010858083421762676670_" gradientUnits="userSpaceOnUse" x1="463.136" x2="476.918" xlink:href="#lg5" y1="258.552" y2="310.117"/><linearGradient id="lg11"><stop offset="0" stop-color="#fef0ae"/><stop offset=".1201" stop-color="#feefa8" stop-opacity=".88"/><stop offset=".278" stop-color="#fdeb98" stop-opacity=".722"/><stop offset=".4571" stop-color="#fde47c" stop-opacity=".543"/><stop offset=".6518" stop-color="#fcdb56" stop-opacity=".348"/><stop offset=".8567" stop-color="#fbd026" stop-opacity=".143"/><stop offset="1" stop-color="#fac600" stop-opacity="0"/></linearGradient><linearGradient id="SVGID_00000163059820037912799220000007808972107458654357_" gradientUnits="userSpaceOnUse" x1="492.299" x2="465.448" xlink:href="#lg11" y1="334.374" y2="266.889"/><linearGradient id="SVGID_00000014617604448218943990000000299944529949494923_" gradientUnits="userSpaceOnUse" x1="455.619" x2="480.748" xlink:href="#lg5" y1="273.66" y2="297.541"/><linearGradient id="SVGID_00000083804821340623537680000011337574408404189061_" gradientUnits="userSpaceOnUse" x1="482.805" x2="486.607" xlink:href="#lg5" y1="264.14" y2="284.457"/><linearGradient id="SVGID_00000039848073482993702650000017224256115960550831_" gradientUnits="userSpaceOnUse" x1="448.981" x2="452.783" xlink:href="#lg5" y1="270.469" y2="290.786"/><linearGradient id="SVGID_00000013889810941474910570000001386242462267097519_" gradientUnits="userSpaceOnUse" x1="296.698" x2="360.005" xlink:href="#lg3" y1="305.507" y2="370.835"/><linearGradient id="SVGID_00000060745695537275242240000002003670262457903233_" gradientUnits="userSpaceOnUse" x1="433.122" x2="276.539" xlink:href="#lg4" y1="490.98" y2="267.218"/><linearGradient id="SVGID_00000044142740557461605940000001054225963592313474_" gradientUnits="userSpaceOnUse" x1="332.966" x2="341.721" xlink:href="#lg3" y1="312.821" y2="326.627"/><linearGradient id="SVGID_00000054233990715604752660000013440095672103826086_" gradientUnits="userSpaceOnUse" x1="336.114" x2="338.253" xlink:href="#lg3" y1="329.211" y2="339.548"/><linearGradient id="SVGID_00000102544563594148100950000000626026138992810904_" gradientUnits="userSpaceOnUse" x1="297.34" x2="309.462" xlink:href="#lg3" y1="333.85" y2="346.309"/><linearGradient id="SVGID_00000052084691034039289150000002069226502532253829_" gradientUnits="userSpaceOnUse" x1="301.808" x2="304.501" xlink:href="#lg3" y1="313.256" y2="330.766"/><linearGradient id="SVGID_00000021801702436164945600000015272431720159364746_" gradientUnits="userSpaceOnUse" x1="314.884" x2="327.679" xlink:href="#lg3" y1="304.413" y2="315.862"/><linearGradient id="SVGID_00000036237121303705739100000018260699202716290952_" gradientUnits="userSpaceOnUse" x1="226.922" x2="293.945" xlink:href="#lg1" y1="422.162" y2="422.162"/><linearGradient id="SVGID_00000138554255757652392190000007820437618195538111_" gradientUnits="userSpaceOnUse" x1="227.482" x2="224.987" xlink:href="#lg10" y1="330.18" y2="358.695"/><linearGradient id="SVGID_00000087385172661152858330000005997581135292370049_" gradientUnits="userSpaceOnUse" x1="350.86" x2="330.186" xlink:href="#lg8" y1="367.632" y2="398.998"/><linearGradient id="SVGID_00000167390332691843036970000002877805857353212840_" gradientUnits="userSpaceOnUse" x1="228.601" x2="312.244" xlink:href="#lg2" y1="403.657" y2="461.638"/><radialGradient id="SVGID_00000172440997467807809640000017950514899845927058_" cx="237.158" cy="401.712" gradientUnits="userSpaceOnUse" r="14.999" xlink:href="#lg7"/><radialGradient id="SVGID_00000062891050489466724220000018416687665395109809_" cx="235.685" cy="402.288" gradientUnits="userSpaceOnUse" r="22.274" xlink:href="#lg7"/><radialGradient id="SVGID_00000142856981221289863530000000411920812158340242_" cx="225.545" cy="440.552" gradientUnits="userSpaceOnUse" r="14.999" xlink:href="#lg2"/><radialGradient id="SVGID_00000168093860530070226300000014547065509265933223_" cx="224.073" cy="441.129" gradientUnits="userSpaceOnUse" r="22.274" xlink:href="#lg6"/><radialGradient id="SVGID_00000161626151348000944950000010142057009882481586_" cx="269.874" cy="440.552" gradientUnits="userSpaceOnUse" r="14.999" xlink:href="#lg7"/><radialGradient id="SVGID_00000115508457300540079640000007525171292652623539_" cx="268.401" cy="441.129" gradientUnits="userSpaceOnUse" r="22.274" xlink:href="#lg7"/><linearGradient id="SVGID_00000122688520783363206040000001176873027053430462_" gradientUnits="userSpaceOnUse" x1="315.095" x2="307.491" xlink:href="#lg2" y1="370.64" y2="389.65"/><linearGradient id="SVGID_00000059295761605350343290000008337968444191753364_" gradientUnits="userSpaceOnUse" x1="301.953" x2="261.082" xlink:href="#lg8" y1="538.98" y2="370.742"/><linearGradient id="SVGID_00000068673278522484749230000017440297730844129458_" gradientUnits="userSpaceOnUse" x1="268.457" x2="268.457" xlink:href="#lg10" y1="494.483" y2="507.324"/><linearGradient id="SVGID_00000152224210977053714840000013196591401643334035_" gradientUnits="userSpaceOnUse" x1="324.202" x2="352.241" xlink:href="#lg10" y1="425.576" y2="429.853"/><linearGradient id="SVGID_00000045583092566252723700000003540423113541747847_" gradientUnits="userSpaceOnUse" x1="268.503" x2="268.503" xlink:href="#lg9" y1="461.216" y2="486.546"/><linearGradient id="SVGID_00000044153600534967304200000011190751093085799095_" gradientUnits="userSpaceOnUse" x1="316.909" x2="330.691" xlink:href="#lg5" y1="325.147" y2="376.711"/><linearGradient id="SVGID_00000057109263389948665110000004116344773255878285_" gradientUnits="userSpaceOnUse" x1="346.072" x2="319.221" xlink:href="#lg11" y1="400.968" y2="333.483"/><linearGradient id="SVGID_00000093877471110501901820000005515695511919722913_" gradientUnits="userSpaceOnUse" x1="309.392" x2="334.521" xlink:href="#lg5" y1="340.254" y2="364.136"/><linearGradient id="SVGID_00000015355852207457040670000007438566249393712015_" gradientUnits="userSpaceOnUse" x1="336.578" x2="340.38" xlink:href="#lg5" y1="330.734" y2="351.051"/><linearGradient id="SVGID_00000102519923727800895730000006492243781504425115_" gradientUnits="userSpaceOnUse" x1="302.754" x2="306.556" xlink:href="#lg5" y1="337.064" y2="357.381"/><g><g><g><path d="m334.827 224.601c-1.5 0-3.023-.193-4.541-.601-9.336-2.501-14.876-12.097-12.375-21.433l42.812-159.774c7.567-28.241 36.706-45.061 64.941-37.493 13.681 3.665 25.115 12.439 32.197 24.705s8.963 26.556 5.297 40.235l-7.111 26.54c-2.501 9.336-12.103 14.877-21.433 12.374-9.336-2.501-14.876-12.097-12.375-21.433l7.111-26.54c1.246-4.65.607-9.507-1.8-13.677-2.407-4.169-6.294-7.152-10.945-8.398-9.603-2.57-19.502 3.146-22.075 12.745l-42.81 159.775c-2.096 7.819-9.167 12.975-16.893 12.975z" fill="url(#SVGID_1_)"/></g><path d="m269.372 347.785h-73.259c-87.765 0-164.562-59.013-187.16-143.819l-7.767-29.149c-5.855-21.972 10.706-43.524 33.445-43.524h396.223c22.738 0 39.299 21.552 33.445 43.524l-7.767 29.149c-22.599 84.807-99.395 143.819-187.16 143.819z" fill="url(#SVGID_00000073689916850176139460000005209733551868508344_)"/><path d="m337.01 131.295-19.098 71.273c-2.501 9.336 3.039 18.932 12.375 21.433 1.518.407 3.041.601 4.541.601 7.726 0 14.797-5.156 16.893-12.975l21.525-80.332z" fill="url(#SVGID_00000136378261883003047710000013960545844364531587_)"/><g><path d="m411.2 195.162c4.626-.961 8.643 3.289 7.425 7.854l-1.944 7.283c-18.57 69.71-81.69 118.21-153.83 118.21h-60.21c-72.14 0-135.26-48.5-153.84-118.21l-2.822-10.609c-.956-3.594 1.368-7.237 5.031-7.884l52.015-9.191c46.449-8.208 94.197-5.012 139.138 9.312 47.744 15.217 98.607 17.86 147.671 7.672z" fill="url(#SVGID_00000127749772898964404040000012194713338007839389_)"/><g><g><circle cx="122.77" cy="234.896" fill="url(#SVGID_00000053531452474029049120000001972699420334623394_)" r="43.188"/><circle cx="122.77" cy="234.896" fill="url(#SVGID_00000124841121880622514270000015401833294060078513_)" r="34.55"/><g><path d="m133.355 233.029 7.764.451c7.602.442 12.643-7.749 8.824-14.336-3.819-6.588-13.431-6.283-16.826.533l-3.467 6.962c-1.415 2.842.535 6.206 3.705 6.39z" fill="url(#SVGID_00000165235427880637278680000010114559333506521737_)"/><path d="m129.679 243.13 3.492 6.95c3.418 6.804 13.032 7.075 16.828.474 3.796-6.601-1.274-14.773-8.874-14.305l-7.763.478c-3.17.195-5.109 3.566-3.683 6.403z" fill="url(#SVGID_00000059992336396868866020000013204207773072108929_)"/><path d="m119.094 244.997-4.273 6.499c-4.183 6.362.389 14.823 8.004 14.81 7.615-.013 12.157-8.49 7.952-14.838l-4.295-6.483c-1.755-2.648-5.644-2.641-7.388.012z" fill="url(#SVGID_00000147907483503043269830000015519293134062663867_)"/><path d="m112.184 236.763-7.764-.451c-7.602-.442-12.643 7.749-8.824 14.336 3.819 6.588 13.431 6.283 16.826-.532l3.467-6.962c1.415-2.842-.535-6.207-3.705-6.391z" fill="url(#SVGID_00000039093722599932991420000008788283643627862931_)"/><path d="m115.86 226.662-3.492-6.95c-3.418-6.804-13.032-7.075-16.828-.474-3.796 6.601 1.274 14.774 8.874 14.305l7.763-.478c3.17-.194 5.109-3.565 3.683-6.403z" fill="url(#SVGID_00000173149221034532131150000014567028074875222445_)"/><path d="m126.445 224.796 4.273-6.499c4.183-6.362-.389-14.823-8.004-14.81-7.614.013-12.157 8.49-7.952 14.838l4.295 6.484c1.755 2.647 5.644 2.64 7.388-.013z" fill="url(#SVGID_00000169536706420227744530000007894076194694311326_)"/></g></g><path d="m79.582 234.972c.042 23.852 19.411 43.154 43.263 43.112s43.154-19.411 43.112-43.263c-.009-5.317-.984-10.405-2.75-15.106l-80.929.141c-1.748 4.708-2.706 9.799-2.696 15.116z" fill="url(#SVGID_00000140693538211159077730000002308923233022325180_)"/></g><g><circle cx="190.703" cy="207.036" fill="url(#SVGID_00000082329809135184121160000002299229145274795916_)" r="15.391"/><path d="m190.841 222.427c-.092 0-.184 0-.275 0-8.409-.02-15.233-6.844-15.253-15.253 0-.092 0-.184 0-.275.02-8.409 6.844-15.233 15.253-15.253h.275c8.409.02 15.233 6.844 15.253 15.253v.275c-.02 8.409-6.844 15.233-15.253 15.253z" fill="url(#SVGID_00000043427423909738678180000000156643564644854926_)" opacity=".55"/></g><g><path d="m213.992 282.543c6.011 6.011 6.011 15.756 0 21.766-6.01 6.011-15.756 6.011-21.766 0-6.011-6.011-6.011-15.756 0-21.766 6.01-6.011 15.755-6.011 21.766 0z" fill="url(#SVGID_00000144313211910544623630000002774580923066037132_)"/><path d="m203.246 308.817c-.092 0-.184 0-.275 0-8.409-.02-15.233-6.844-15.253-15.253 0-.092 0-.184 0-.275.02-8.409 6.844-15.233 15.253-15.253h.275c8.409.02 15.233 6.844 15.253 15.253v.275c-.02 8.409-6.844 15.233-15.253 15.253z" fill="url(#SVGID_00000169527452086077794390000001800179907825881743_)" opacity=".55"/></g><g><circle cx="232.304" cy="245.854" fill="url(#SVGID_00000056418945131094799840000002880697029495908020_)" r="15.391"/><path d="m232.441 261.245c-.092 0-.184 0-.275 0-8.409-.02-15.233-6.844-15.253-15.253 0-.092 0-.184 0-.275.02-8.409 6.844-15.233 15.253-15.253h.275c8.409.02 15.233 6.844 15.253 15.253v.275c-.02 8.409-6.844 15.233-15.253 15.253z" fill="url(#SVGID_00000096048277200572710210000003392721460058400698_)" opacity=".55"/></g><path d="m411.2 195.162c4.626-.961 8.643 3.289 7.425 7.854l-1.944 7.283c-18.57 69.71-81.69 118.21-153.83 118.21h-60.21c-72.14 0-135.26-48.5-153.84-118.21l-2.822-10.609c-.956-3.594 1.368-7.237 5.031-7.884l52.015-9.191c46.449-8.208 94.197-5.012 139.138 9.312 47.744 15.217 98.607 17.86 147.671 7.672z" fill="url(#SVGID_00000138546086459143759680000018311744238134984867_)"/><path d="m408.54 233.499c-25.09 57.04-81.86 95.01-145.69 95.01h-60.21c-63.83 0-120.6-37.97-145.69-95.01z" fill="url(#SVGID_00000059990278127812296210000011134031116043103141_)"/></g><path d="m430.854 131.295h-207.021v216.491h45.538c87.765 0 164.562-59.013 187.16-143.819l7.767-29.148c5.855-21.972-10.706-43.524-33.444-43.524z" fill="url(#SVGID_00000059296791471814440060000018036065941245871235_)"/><path d="m9.806 207.036c23.616 83.155 99.606 140.749 186.307 140.749h73.259c86.701 0 162.691-57.594 186.307-140.749z" fill="url(#SVGID_00000042006092278649695350000000577317955901728673_)"/></g><g><g><g><circle cx="466.799" cy="263.549" fill="url(#SVGID_00000005243702855760172930000014423783368444564113_)" r="43.188"/><circle cx="466.799" cy="263.549" fill="url(#SVGID_00000025442863292589206130000009513893439873356689_)" r="34.55"/><g><path d="m477.388 261.7 7.763.465c7.601.455 12.656-7.727 8.849-14.321-3.807-6.594-13.42-6.307-16.827.503l-3.479 6.956c-1.42 2.84.524 6.208 3.694 6.397z" fill="url(#SVGID_00000132055634085651404880000017641520323846322879_)"/><path d="m473.695 271.795 3.479 6.956c3.407 6.81 13.02 7.097 16.827.503 3.807-6.594-1.248-14.776-8.849-14.321l-7.763.465c-3.171.189-5.115 3.557-3.694 6.397z" fill="url(#SVGID_00000093155827537088502910000009540339614152670648_)"/><path d="m456.211 265.397-7.764-.465c-7.601-.455-12.656 7.727-8.849 14.321 3.807 6.594 13.42 6.307 16.827-.503l3.479-6.956c1.421-2.839-.523-6.207-3.693-6.397z" fill="url(#SVGID_00000081626154511657998890000006499169766839490187_)"/><path d="m459.904 255.303-3.479-6.956c-3.406-6.81-13.02-7.097-16.827-.503-3.807 6.594 1.248 14.776 8.849 14.321l7.764-.465c3.17-.189 5.114-3.557 3.693-6.397z" fill="url(#SVGID_00000148641821706169169470000005207169146463775631_)"/><path d="m470.493 253.455 4.284-6.491c4.194-6.355-.363-14.824-7.978-14.824-7.614 0-12.172 8.469-7.978 14.824l4.284 6.491c1.75 2.65 5.639 2.65 7.388 0z" fill="url(#SVGID_00000143614269650668968790000009471260830052816552_)"/></g></g></g><g><path d="m327.179 269.216c-5.995 0-10.587 5.329-9.702 11.258l20.962 140.372c1.358 12.002 11.511 21.072 23.59 21.072h105.31c12.079 0 22.233-9.07 23.59-21.072l20.962-140.372c.885-5.929-3.707-11.258-9.702-11.258z" fill="url(#SVGID_00000170987620445904123960000000126091788897573555_)"/><path d="m425.149 269.216h-97.97c-5.995 0-10.587 5.329-9.702 11.258l8.777 58.779c39.677-12.192 74.355-36.852 98.895-70.037z" fill="url(#SVGID_00000003089081208478068560000004076906405527736208_)"/><path d="m386.806 269.216h-59.626c-5.995 0-10.587 5.329-9.702 11.258l5.418 36.284c24.987-10.184 47-26.576 63.91-47.542z" fill="url(#SVGID_00000103981545619353157850000015479505132357818770_)"/><g><path d="m489.873 325.879c2.845-.96 5.724 1.362 5.386 4.346l-15.834 74.165c-1.156 10.188-9.78 17.889-20.035 17.889h-89.405c-10.255 0-18.879-7.701-20.035-17.889l-16.003-75.657c-.531-4.692 1.994-9.199 6.272-11.197l12.583-5.877c23.429-10.943 50.876-8.826 72.349 5.581 19.057 12.786 42.978 15.979 64.722 8.639z" fill="url(#SVGID_00000158750053544615276300000009160646314941947327_)"/><g><g><path d="m398.112 328.673c6.011 6.011 6.011 15.756 0 21.766-6.01 6.011-15.756 6.011-21.766 0-6.011-6.011-6.011-15.756 0-21.766 6.01-6.01 15.755-6.01 21.766 0z" fill="url(#SVGID_00000122688758864895935230000000686892302314099077_)"/><path d="m387.366 354.947c-.092 0-.184 0-.275 0-8.409-.02-15.233-6.844-15.253-15.253 0-.092 0-.184 0-.275.02-8.409 6.844-15.233 15.253-15.253h.275c8.409.02 15.233 6.844 15.253 15.253v.275c-.02 8.409-6.844 15.233-15.253 15.253z" fill="url(#SVGID_00000047028035053548532330000008901460412781731472_)" opacity=".55"/></g><g><path d="m386.5 367.514c6.011 6.011 6.011 15.756 0 21.766-6.011 6.011-15.756 6.011-21.766 0-6.011-6.011-6.011-15.756 0-21.766 6.01-6.011 15.755-6.011 21.766 0z" fill="url(#SVGID_00000182495226953036313190000015156728484351728560_)"/><path d="m375.754 393.788c-.092 0-.184 0-.275 0-8.409-.02-15.233-6.844-15.253-15.253 0-.092 0-.184 0-.275.02-8.409 6.844-15.233 15.253-15.253h.275c8.409.02 15.233 6.844 15.253 15.253v.275c-.02 8.408-6.844 15.233-15.253 15.253z" fill="url(#SVGID_00000130642884210214209450000005058093245663199390_)" opacity=".55"/></g><g><path d="m430.828 367.514c6.011 6.011 6.011 15.756 0 21.766-6.011 6.011-15.756 6.011-21.766 0s-6.01-15.756 0-21.766c6.01-6.011 15.755-6.011 21.766 0z" fill="url(#SVGID_00000144334204652952340590000010188748553473695149_)"/><path d="m420.083 393.788c-.092 0-.184 0-.275 0-8.409-.02-15.233-6.844-15.253-15.253 0-.092 0-.184 0-.275.02-8.409 6.844-15.233 15.253-15.253h.275c8.409.02 15.233 6.844 15.253 15.253v.275c-.02 8.408-6.844 15.233-15.253 15.253z" fill="url(#SVGID_00000070806596856111727180000015168952184553593531_)" opacity=".55"/></g></g><path d="m488.948 317.537-12.583-5.88c-19.736-9.215-42.324-9.165-61.785-.316 3.643 1.655 7.186 3.626 10.571 5.897 12.317 8.258 26.655 12.517 41.126 12.517 7.926 0 15.902-1.273 23.595-3.876 2.404-.807 4.832.724 5.331 3.027l.017-.175c.522-4.69-1.998-9.198-6.272-11.194z" fill="url(#SVGID_00000023253895141125647020000012741920737080949417_)"/></g><path d="m489.873 325.879c2.845-.96 5.724 1.362 5.386 4.346l-15.834 74.165c-1.156 10.188-9.78 17.889-20.035 17.889h-89.405c-10.255 0-18.879-7.701-20.035-17.889l-16.003-75.657c-.531-4.692 1.994-9.199 6.272-11.197l12.583-5.877c23.429-10.943 50.876-8.826 72.349 5.581 19.057 12.786 42.978 15.979 64.722 8.639z" fill="url(#SVGID_00000109023338225145686160000016790392237932148127_)"/><path d="m329.555 361.354 8.884 59.492c1.358 12.002 11.511 21.072 23.59 21.072h105.31c12.079 0 22.232-9.07 23.59-21.072l8.884-59.492z" fill="url(#SVGID_00000120536283966853832230000008733981448734696870_)"/><path d="m502.189 269.216h-109.043v172.702h74.193c12.079 0 22.232-9.07 23.59-21.072l20.962-140.372c.885-5.929-3.708-11.258-9.702-11.258z" fill="url(#SVGID_00000148656905043084251950000015205244075583425204_)"/><path d="m340.847 361.354 9.103 43.036c1.156 10.188 9.781 17.889 20.035 17.889h89.405c10.255 0 18.879-7.701 20.035-17.889l9.188-43.036z" fill="url(#SVGID_00000078044636437515850140000010215305914994469274_)"/></g><path d="m509.135 272.115c-1.765-1.776-4.205-2.899-6.946-2.899h-78.195c2.777 21.172 20.876 37.521 42.806 37.521 20.918 0 38.36-14.874 42.335-34.622z" fill="url(#SVGID_00000023253035589566101870000010858083421762676670_)"/><path d="m500.879 269.216h-68.16c2.705 16.384 16.929 28.883 34.08 28.883s31.375-12.499 34.08-28.883z" fill="url(#SVGID_00000163059820037912799220000007808972107458654357_)"/><g><path d="m463.106 273.643-4.284 6.491c-4.194 6.355.363 14.824 7.978 14.824 7.614 0 12.172-8.469 7.978-14.824l-4.284-6.491c-1.75-2.65-5.639-2.65-7.388 0z" fill="url(#SVGID_00000014617604448218943990000000299944529949494923_)"/><path d="m473.695 271.795 3.479 6.956c3.407 6.81 13.02 7.097 16.827.503 3.807-6.594-1.248-14.776-8.849-14.321l-7.763.465c-3.171.189-5.115 3.557-3.694 6.397z" fill="url(#SVGID_00000083804821340623537680000011337574408404189061_)"/><path d="m456.211 265.397-7.764-.465c-7.601-.455-12.656 7.727-8.849 14.321 3.807 6.594 13.42 6.307 16.827-.503l3.479-6.956c1.421-2.839-.523-6.207-3.693-6.397z" fill="url(#SVGID_00000039848073482993702650000017224256115960550831_)"/></g></g><g><g><g><circle cx="320.573" cy="330.143" fill="url(#SVGID_00000013889810941474910570000001386242462267097519_)" r="43.188"/><circle cx="320.573" cy="330.143" fill="url(#SVGID_00000060745695537275242240000002003670262457903233_)" r="34.55"/><g><path d="m331.161 328.295 7.764.465c7.601.455 12.656-7.727 8.849-14.321-3.807-6.594-13.42-6.307-16.827.503l-3.479 6.956c-1.421 2.839.523 6.207 3.693 6.397z" fill="url(#SVGID_00000044142740557461605940000001054225963592313474_)"/><path d="m327.468 338.389 3.479 6.956c3.406 6.81 13.02 7.097 16.827.503 3.807-6.594-1.248-14.776-8.849-14.321l-7.764.465c-3.17.19-5.114 3.557-3.693 6.397z" fill="url(#SVGID_00000054233990715604752660000013440095672103826086_)"/><path d="m309.984 331.992-7.764-.465c-7.601-.455-12.656 7.727-8.849 14.321 3.807 6.594 13.42 6.307 16.827-.503l3.479-6.956c1.421-2.84-.523-6.207-3.693-6.397z" fill="url(#SVGID_00000102544563594148100950000000626026138992810904_)"/><path d="m313.677 321.897-3.479-6.956c-3.406-6.81-13.02-7.097-16.827-.503-3.807 6.594 1.248 14.776 8.849 14.321l7.764-.465c3.17-.189 5.114-3.557 3.693-6.397z" fill="url(#SVGID_00000052084691034039289150000002069226502532253829_)"/><path d="m324.266 320.049 4.284-6.491c4.194-6.355-.363-14.824-7.978-14.824-7.614 0-12.172 8.469-7.978 14.824l4.284 6.491c1.75 2.65 5.639 2.65 7.388 0z" fill="url(#SVGID_00000021801702436164945600000015272431720159364746_)"/></g></g></g><g><path d="m180.952 335.811c-5.995 0-10.587 5.329-9.702 11.258l20.962 140.372c1.358 12.002 11.511 21.072 23.59 21.072h105.31c12.079 0 22.233-9.07 23.59-21.072l20.962-140.372c.885-5.929-3.707-11.258-9.702-11.258z" fill="url(#SVGID_00000036237121303705739100000018260699202716290952_)"/><path d="m280.99 347.437c-3.85.23-7.72.35-11.62.35h-73.26c-8.43 0-16.75-.55-24.94-1.61-.33-5.56 4.09-10.37 9.78-10.37h96.8c.53 4.08 1.64 7.99 3.24 11.63z" fill="url(#SVGID_00000138554255757652392190000007820437618195538111_)"/><path d="m355.962 335.811h-20.518l14.506 68.58c.512 4.508 2.49 8.526 5.421 11.608l10.293-68.93c.885-5.929-3.708-11.258-9.702-11.258z" fill="url(#SVGID_00000087385172661152858330000005997581135292370049_)"/><g><path d="m343.646 392.474c2.845-.96 5.724 1.362 5.386 4.346l-15.834 74.165c-1.156 10.188-9.781 17.889-20.035 17.889h-89.405c-10.255 0-18.879-7.701-20.035-17.889l-16.003-75.657c-.531-4.692 1.994-9.199 6.272-11.198l12.583-5.877c23.429-10.943 50.876-8.826 72.35 5.581 19.056 12.787 42.977 15.98 64.721 8.64z" fill="url(#SVGID_00000167390332691843036970000002877805857353212840_)"/><g><g><path d="m251.885 395.268c6.011 6.011 6.011 15.756 0 21.766-6.01 6.011-15.756 6.011-21.766 0-6.011-6.011-6.011-15.756 0-21.766 6.01-6.011 15.755-6.011 21.766 0z" fill="url(#SVGID_00000172440997467807809640000017950514899845927058_)"/><path d="m241.139 421.542c-.092 0-.184 0-.275 0-8.409-.02-15.233-6.844-15.253-15.253 0-.092 0-.184 0-.275.02-8.409 6.844-15.233 15.253-15.253h.275c8.409.02 15.233 6.844 15.253 15.253v.275c-.02 8.409-6.844 15.233-15.253 15.253z" fill="url(#SVGID_00000062891050489466724220000018416687665395109809_)" opacity=".55"/></g><g><path d="m240.273 434.108c6.011 6.011 6.011 15.756 0 21.766-6.011 6.011-15.756 6.011-21.766 0-6.011-6.011-6.011-15.756 0-21.766 6.01-6.011 15.755-6.011 21.766 0z" fill="url(#SVGID_00000142856981221289863530000000411920812158340242_)"/><path d="m229.527 460.382c-.092 0-.184 0-.275 0-8.409-.02-15.233-6.844-15.253-15.253 0-.092 0-.184 0-.275.02-8.409 6.844-15.233 15.253-15.253h.275c8.409.02 15.233 6.844 15.253 15.253v.275c-.02 8.409-6.844 15.233-15.253 15.253z" fill="url(#SVGID_00000168093860530070226300000014547065509265933223_)" opacity=".55"/></g><g><path d="m284.601 434.108c6.011 6.011 6.011 15.756 0 21.766-6.011 6.011-15.756 6.011-21.766 0s-6.01-15.756 0-21.766c6.01-6.011 15.755-6.011 21.766 0z" fill="url(#SVGID_00000161626151348000944950000010142057009882481586_)"/><path d="m273.856 460.382c-.092 0-.184 0-.275 0-8.409-.02-15.233-6.844-15.253-15.253 0-.092 0-.184 0-.275.02-8.409 6.844-15.233 15.253-15.253h.275c8.409.02 15.233 6.844 15.253 15.253v.275c-.02 8.409-6.844 15.233-15.253 15.253z" fill="url(#SVGID_00000115508457300540079640000007525171292652623539_)" opacity=".55"/></g></g><path d="m342.721 384.132-12.583-5.88c-19.736-9.215-42.324-9.165-61.785-.316 3.643 1.655 7.186 3.626 10.571 5.897 12.317 8.258 26.655 12.517 41.126 12.517 7.926 0 15.902-1.273 23.595-3.876 2.404-.807 4.832.724 5.331 3.027l.017-.175c.523-4.69-1.998-9.198-6.272-11.194z" fill="url(#SVGID_00000122688520783363206040000001176873027053430462_)"/></g><path d="m343.646 392.474c2.845-.96 5.724 1.362 5.386 4.346l-15.834 74.165c-1.156 10.188-9.781 17.889-20.035 17.889h-89.405c-10.255 0-18.879-7.701-20.035-17.889l-16.003-75.657c-.531-4.692 1.994-9.199 6.272-11.198l12.583-5.877c23.429-10.943 50.876-8.826 72.35 5.581 19.056 12.787 42.977 15.98 64.721 8.64z" fill="url(#SVGID_00000059295761605350343290000008337968444191753364_)"/><path d="m183.328 427.949 8.884 59.492c1.358 12.002 11.511 21.072 23.59 21.072h105.31c12.079 0 22.232-9.07 23.59-21.072l8.884-59.492z" fill="url(#SVGID_00000068673278522484749230000017440297730844129458_)"/><path d="m355.962 335.811h-109.043v172.702h74.193c12.079 0 22.232-9.07 23.59-21.072l20.962-140.372c.885-5.929-3.708-11.258-9.702-11.258z" fill="url(#SVGID_00000152224210977053714840000013196591401643334035_)"/><path d="m194.62 427.949 9.103 43.036c1.156 10.188 9.781 17.889 20.035 17.889h89.405c10.255 0 18.879-7.701 20.035-17.889l9.188-43.036z" fill="url(#SVGID_00000045583092566252723700000003540423113541747847_)"/></g><path d="m362.908 338.709c-1.765-1.776-4.205-2.899-6.946-2.899h-78.195c2.777 21.172 20.876 37.521 42.806 37.521 20.918 0 38.36-14.873 42.335-34.622z" fill="url(#SVGID_00000044153600534967304200000011190751093085799095_)"/><path d="m354.652 335.811h-68.16c2.705 16.384 16.929 28.883 34.08 28.883s31.376-12.499 34.08-28.883z" fill="url(#SVGID_00000057109263389948665110000004116344773255878285_)"/><g><path d="m316.879 340.238-4.284 6.491c-4.194 6.355.363 14.824 7.978 14.824 7.615 0 12.172-8.469 7.978-14.824l-4.284-6.491c-1.75-2.651-5.639-2.651-7.388 0z" fill="url(#SVGID_00000093877471110501901820000005515695511919722913_)"/><path d="m327.468 338.389 3.479 6.956c3.406 6.81 13.02 7.097 16.827.503 3.807-6.594-1.248-14.776-8.849-14.321l-7.764.465c-3.17.19-5.114 3.557-3.693 6.397z" fill="url(#SVGID_00000015355852207457040670000007438566249393712015_)"/><path d="m309.984 331.992-7.764-.465c-7.601-.455-12.656 7.727-8.849 14.321 3.807 6.594 13.42 6.307 16.827-.503l3.479-6.956c1.421-2.84-.523-6.207-3.693-6.397z" fill="url(#SVGID_00000102519923727800895730000006492243781504425115_)"/></g></g></g><g/><g/><g/><g/><g/><g/><g/><g/><g/><g/><g/><g/><g/><g/><g/></svg>