<?xml version="1.0" encoding="UTF-8"?>
<svg id="Layer_1" data-name="Layer 1" xmlns="http://www.w3.org/2000/svg" xmlns:xlink="http://www.w3.org/1999/xlink" viewBox="0 0 294.97 294.97">
  <defs>
    <style>
      .cls-1 {
        fill: url(#linear-gradient-2);
      }

      .cls-2 {
        fill: url(#linear-gradient-6);
      }

      .cls-3 {
        fill: url(#linear-gradient-11);
      }

      .cls-4 {
        fill: url(#linear-gradient-10);
      }

      .cls-5 {
        fill: url(#linear-gradient-5);
      }

      .cls-6 {
        fill: url(#linear-gradient-7);
      }

      .cls-7 {
        fill: url(#linear-gradient-9);
      }

      .cls-8 {
        fill: url(#linear-gradient-3);
      }

      .cls-9 {
        fill: url(#linear-gradient);
      }

      .cls-10 {
        fill: url(#linear-gradient-4);
      }

      .cls-11 {
        fill: url(#linear-gradient-8);
      }
    </style>
    <linearGradient id="linear-gradient" x1="-2565.49" y1="-1738.09" x2="-2534.6" y2="-1738.09" gradientTransform="translate(-2379.42 1240.46) rotate(135) scale(1 .66)" gradientUnits="userSpaceOnUse">
      <stop offset="0" stop-color="#537983"/>
      <stop offset="1" stop-color="#384949"/>
    </linearGradient>
    <linearGradient id="linear-gradient-2" x1="-2544.52" y1="-1736.72" x2="-2518.54" y2="-1732.82" gradientTransform="translate(-2379.42 1240.46) rotate(135) scale(1 .66)" gradientUnits="userSpaceOnUse">
      <stop offset="0" stop-color="#554e56" stop-opacity="0"/>
      <stop offset=".27" stop-color="#524b52" stop-opacity=".27"/>
      <stop offset=".52" stop-color="#464147" stop-opacity=".52"/>
      <stop offset=".77" stop-color="#343034" stop-opacity=".76"/>
      <stop offset="1" stop-color="#1a1a1a"/>
    </linearGradient>
    <linearGradient id="linear-gradient-3" x1="-2550.02" y1="-1669.81" x2="-2550.02" y2="-1653.21" xlink:href="#linear-gradient-2"/>
    <linearGradient id="linear-gradient-4" x1="-2550.02" y1="-1797.14" x2="-2550.02" y2="-1828.52" xlink:href="#linear-gradient-2"/>
    <linearGradient id="linear-gradient-5" x1="-2550.38" y1="-1342.63" x2="-2550.38" y2="-1372.88" gradientTransform="translate(-2575.78 1044.1) rotate(135)" gradientUnits="userSpaceOnUse">
      <stop offset="0" stop-color="#fef0ae"/>
      <stop offset="1" stop-color="#fac600"/>
    </linearGradient>
    <linearGradient id="linear-gradient-6" x1="183.54" y1="103.87" x2="169.25" y2="77.23" gradientTransform="translate(3.35 300.55) scale(1 -1)" gradientUnits="userSpaceOnUse">
      <stop offset="0" stop-color="#fea613" stop-opacity="0"/>
      <stop offset=".2" stop-color="#fda215" stop-opacity=".2"/>
      <stop offset=".41" stop-color="#fb961b" stop-opacity=".41"/>
      <stop offset=".61" stop-color="#f68225" stop-opacity=".61"/>
      <stop offset=".81" stop-color="#f06633" stop-opacity=".81"/>
      <stop offset="1" stop-color="#e94444"/>
    </linearGradient>
    <linearGradient id="linear-gradient-7" x1="128.63" y1="167.4" x2="15.52" y2="280.51" gradientTransform="translate(3.35 300.55) scale(1 -1)" gradientUnits="userSpaceOnUse">
      <stop offset="0" stop-color="#fff" stop-opacity="0"/>
      <stop offset="1" stop-color="#fff"/>
    </linearGradient>
    <linearGradient id="linear-gradient-8" x1="36.68" y1="259.35" x2="192.54" y2="103.49" gradientTransform="translate(3.35 300.55) scale(1 -1)" gradientUnits="userSpaceOnUse">
      <stop offset="0" stop-color="#c8effe"/>
      <stop offset="1" stop-color="#62dbfb"/>
    </linearGradient>
    <linearGradient id="linear-gradient-9" x1="-12.12" y1="308.15" x2="279.94" y2="16.09" gradientTransform="translate(3.35 300.55) scale(1 -1)" gradientUnits="userSpaceOnUse">
      <stop offset="0" stop-color="#07b2cd" stop-opacity="0"/>
      <stop offset=".46" stop-color="#05a5ce" stop-opacity=".46"/>
      <stop offset="1" stop-color="#0290cf"/>
    </linearGradient>
    <linearGradient id="linear-gradient-10" x1="108.6" y1="124.25" x2="108.6" y2="66.85" xlink:href="#linear-gradient-9"/>
    <linearGradient id="linear-gradient-11" x1="-174.68" y1="-326.39" x2="-174.68" y2="-383.79" gradientTransform="translate(49.51 -198.45) rotate(-45) scale(1 -1)" xlink:href="#linear-gradient-9"/>
  </defs>
  <g>
    <path class="cls-9" d="m192.38,220.82l-11.31-10.76,28.98-28.98,10.76,11.31c5.2,5.47,11.09,10.25,17.59,14.3l48.84,30.44c12.37,7.71,9.53,28.62-5.99,44.14-15.52,15.52-36.43,18.35-44.14,5.99l-30.44-48.84c-4.05-6.5-8.84-12.38-14.3-17.58h0Z"/>
    <path class="cls-1" d="m206.68,238.41c-4.05-6.5-8.83-12.38-14.3-17.59l-11.31-10.76,21.59-21.59,85.04,85.04c-1.82,2.67-3.97,5.28-6.44,7.76-15.52,15.52-36.43,18.35-44.14,5.99l-30.44-48.84Z"/>
    <path class="cls-8" d="m196,224.48l28.47-28.47c-1.26-1.17-2.48-2.38-3.66-3.62l-10.76-11.31-28.98,28.98,11.31,10.76c1.25,1.18,2.45,2.4,3.62,3.66Z"/>
    <path class="cls-10" d="m287.24,237.12c12.37,7.71,9.53,28.62-5.99,44.14-15.52,15.52-36.43,18.35-44.14,5.99l-13.39-21.48,42.03-42.03,21.48,13.39Z"/>
    <path class="cls-5" d="m187.8,214.18l26.88-26.88c5.21-5.21,5.21-13.65,0-18.86l-5.77-5.77-45.73,45.73,5.77,5.77c5.21,5.21,13.65,5.21,18.86,0h0Z"/>
    <path class="cls-2" d="m205.32,196.66l-17.52,17.52c-5.21,5.21-13.65,5.21-18.86,0l-5.77-5.77,26.95-26.95,15.2,15.2Z"/>
  </g>
  <g>
    <circle class="cls-6" cx="112.37" cy="112.38" r="88.29"/>
    <path class="cls-11" d="m112.37,0C50.31,0,0,50.31,0,112.38s50.31,112.38,112.37,112.38,112.38-50.31,112.38-112.38S174.43,0,112.37,0h0Zm0,193.21c-44.64,0-80.82-36.18-80.82-80.83S67.73,31.55,112.37,31.55s80.83,36.19,80.83,80.83-36.18,80.83-80.83,80.83Z"/>
    <path class="cls-7" d="m112.37,13.48C57.75,13.48,13.48,57.76,13.48,112.38s44.28,98.9,98.89,98.9,98.9-44.28,98.9-98.9S166.99,13.48,112.37,13.48h0Zm0,179.73c-44.64,0-80.82-36.18-80.82-80.83S67.73,31.55,112.37,31.55s80.83,36.19,80.83,80.83-36.18,80.83-80.83,80.83Z"/>
    <path class="cls-4" d="m193.2,112.38c0,44.64-36.18,80.83-80.83,80.83S31.55,157.02,31.55,112.38c0-2.11.08-4.2.24-6.27H.18C.06,108.18,0,110.27,0,112.38,0,174.44,50.31,224.75,112.37,224.75s112.38-50.31,112.38-112.38c0-2.1-.06-4.19-.18-6.27h-31.61c.16,2.07.24,4.16.24,6.27h0Z"/>
    <path class="cls-3" d="m169.52,55.23c31.57,31.57,31.57,82.74,0,114.31-31.56,31.56-82.74,31.56-114.31,0-1.49-1.49-2.91-3.03-4.26-4.6l-22.35,22.35c1.39,1.55,2.82,3.07,4.31,4.56,43.89,43.89,115.04,43.89,158.92,0,43.89-43.89,43.89-115.04,0-158.92-1.49-1.49-3.01-2.92-4.56-4.31l-22.35,22.35c1.58,1.35,3.11,2.77,4.6,4.26h0Z"/>
  </g>
</svg>