<svg id="Capa_1" enable-background="new 0 0 510 510" height="512" viewBox="0 0 510 510" width="512" xmlns="http://www.w3.org/2000/svg" xmlns:xlink="http://www.w3.org/1999/xlink"><linearGradient id="lg1"><stop offset="0" stop-color="#eaf6ff"/><stop offset="1" stop-color="#b3dafe"/></linearGradient><linearGradient id="SVGID_1_" gradientUnits="userSpaceOnUse" x1="235.115" x2="289.617" xlink:href="#lg1" y1="397.357" y2="397.357"/><linearGradient id="lg2"><stop offset="0" stop-color="#d8ecfe" stop-opacity="0"/><stop offset="1" stop-color="#678d98"/></linearGradient><linearGradient id="SVGID_00000011010503491955725570000007031332791602657465_" gradientUnits="userSpaceOnUse" x1="255" x2="255" xlink:href="#lg2" y1="481.98" y2="512.831"/><linearGradient id="SVGID_00000004548585927141790990000002564157753178485939_" gradientUnits="userSpaceOnUse" x1="255" x2="255" xlink:href="#lg2" y1="454.194" y2="404.211"/><linearGradient id="SVGID_00000137811306129738034670000002472676132031164343_" gradientUnits="userSpaceOnUse" x1="212.287" x2="362.375" xlink:href="#lg1" y1="181.804" y2="343.716"/><linearGradient id="lg3"><stop offset="0" stop-color="#ffdfcf"/><stop offset="1" stop-color="#ffa78f"/></linearGradient><linearGradient id="SVGID_00000177460380427559931270000017822432594282561159_" gradientUnits="userSpaceOnUse" x1="233.394" x2="304.102" xlink:href="#lg3" y1="73.376" y2="120.705"/><linearGradient id="SVGID_00000081649942337692363900000016224811317413772196_" gradientUnits="userSpaceOnUse" x1="240.064" x2="454.468" xlink:href="#lg3" y1="101.963" y2="278.733"/><linearGradient id="SVGID_00000150823560595315871760000016438055556283012542_" gradientUnits="userSpaceOnUse" x1="273.059" x2="336.924" y1="126.433" y2="170.15"><stop offset="0" stop-color="#f89580" stop-opacity="0"/><stop offset=".9972" stop-color="#c5715a"/></linearGradient><linearGradient id="lg4"><stop offset="0" stop-color="#fd4755"/><stop offset="1" stop-color="#a72b2b"/></linearGradient><linearGradient id="SVGID_00000027597871099264154790000008503488988202317999_" gradientUnits="userSpaceOnUse" x1="299.262" x2="327.066" xlink:href="#lg4" y1="95.624" y2="123.427"/><linearGradient id="SVGID_00000087395036956651259890000008813434811267828609_" gradientUnits="userSpaceOnUse" x1="342.463" x2="317.744" y1="108.647" y2="83.928"><stop offset="0" stop-color="#a72b2b" stop-opacity="0"/><stop offset="1" stop-color="#42210b"/></linearGradient><linearGradient id="SVGID_00000032649049371858268350000011665662264939089594_" gradientUnits="userSpaceOnUse" x1="322.021" x2="343.313" xlink:href="#lg4" y1="48.169" y2="63.805"/><linearGradient id="lg5"><stop offset="0" stop-color="#fff" stop-opacity="0"/><stop offset="1" stop-color="#fff"/></linearGradient><linearGradient id="SVGID_00000176030535894206030170000000139017398747807933_" gradientUnits="userSpaceOnUse" x1="255.147" x2="248.147" xlink:href="#lg5" y1="151.094" y2="108.594"/><linearGradient id="SVGID_00000181776997405313161080000009892686982390821019_" gradientUnits="userSpaceOnUse" x1="208.191" x2="420.696" xlink:href="#lg3" y1="142.013" y2="317.216"/><linearGradient id="SVGID_00000178920394978525863220000001798355847435336343_" gradientUnits="userSpaceOnUse" x1="256.276" x2="239.276" xlink:href="#lg5" y1="187.954" y2="140.454"/><linearGradient id="SVGID_00000163771147492248062220000006358895509191481778_" gradientUnits="userSpaceOnUse" x1="323.182" x2="312.682" xlink:href="#lg5" y1="154.533" y2="105.533"/><linearGradient id="SVGID_00000004507482850106553070000004102975941254697394_" gradientUnits="userSpaceOnUse" x1="207.073" x2="306.926" y1="180.851" y2="309.564"><stop offset="0" stop-color="#feaee1"/><stop offset="1" stop-color="#fe5694"/></linearGradient><linearGradient id="SVGID_00000109721598150384735680000006105205392538535045_" gradientUnits="userSpaceOnUse" x1="345.919" x2="120.088" xlink:href="#lg5" y1="343.781" y2="134.555"/><linearGradient id="SVGID_00000044177879957800743380000012124122589026383784_" gradientUnits="userSpaceOnUse" x1="277.984" x2="192.692" xlink:href="#lg5" y1="281.253" y2="260.214"/><linearGradient id="SVGID_00000179630733831268081730000007180610462115779003_" gradientUnits="userSpaceOnUse" x1="255" x2="255" xlink:href="#lg2" y1="341.198" y2="430.976"/><g><g><path d="m345.486 485.705c-10.181-8.716-25.386-15.821-43.665-20.354-13.645-3.384-23.252-15.595-23.252-29.653v-140.869c0-5.586-4.529-10.115-10.115-10.115h-26.907c-5.586 0-10.115 4.529-10.115 10.115v140.868c0 14.058-9.608 26.269-23.252 29.653-18.279 4.533-33.484 11.638-43.665 20.354-9.729 8.33-3.73 24.295 9.077 24.295h162.817c12.807.001 18.806-15.965 9.077-24.294z" fill="url(#SVGID_1_)"/><path d="m208.179 465.35c-18.279 4.533-33.484 11.638-43.665 20.354-9.729 8.329-3.73 24.295 9.077 24.295h162.817c12.808 0 18.807-15.966 9.077-24.295-10.181-8.716-25.386-15.821-43.665-20.354-11.172-2.771-19.634-11.461-22.335-22.237h-48.971c-2.701 10.776-11.162 19.467-22.335 22.237z" fill="url(#SVGID_00000011010503491955725570000007031332791602657465_)"/><path d="m315.468 469.414c-4.319-1.517-8.875-2.88-13.647-4.063-13.645-3.384-23.252-15.595-23.252-29.653v-94.038h-47.137v94.038c0 14.058-9.608 26.269-23.252 29.653-4.772 1.184-9.329 2.546-13.647 4.063z" fill="url(#SVGID_00000004548585927141790990000002564157753178485939_)"/></g><g><path d="m371.224 191.411c0 125.004-52.033 226.348-116.224 226.348s-116.224-101.344-116.224-226.348c0-21.35 1.521-42.012 4.357-61.595.986-6.806 6.844-11.842 13.721-11.842h196.292c6.877 0 12.736 5.035 13.721 11.842 2.836 19.583 4.357 40.245 4.357 61.595z" fill="url(#SVGID_00000137811306129738034670000002472676132031164343_)"/><g><path d="m312.109 68.354c-2.087.262-4.174.684-6.25 1.289l-108.559 31.613c-11.154 3.25-19.764 10.88-24.405 20.38 1.939-12.317 10.925-23.06 24.006-26.869h.011c23.208-6.763 40.851-25.797 44.284-49.165 1.494-10.173.513-20.847-3.364-31.18l-.068-.183c-3.068-8.143 4.665-16.206 13.206-13.811 20.403 5.714 37.692 20.87 44.751 42.265 1.118 3.376 1.927 6.774 2.441 10.184 1.083 7.128 6.216 12.898 13.206 15.225.25.08.501.172.741.252z" fill="url(#SVGID_00000177460380427559931270000017822432594282561159_)"/><path d="m310.151 131.356-93.681 27.279c-18.093 5.269-37.143-4.758-42.548-22.395-5.405-17.637 4.881-36.206 22.974-41.475l93.681-27.279c18.093-5.269 37.143 4.758 42.548 22.395 5.406 17.638-4.88 36.206-22.974 41.475z" fill="url(#SVGID_00000081649942337692363900000016224811317413772196_)"/><path d="m310.151 131.356-93.681 27.279c-18.093 5.269-37.143-4.758-42.548-22.395-5.405-17.637 4.881-36.206 22.974-41.475l93.681-27.279c18.093-5.269 37.143 4.758 42.548 22.395 5.406 17.638-4.88 36.206-22.974 41.475z" fill="url(#SVGID_00000150823560595315871760000016438055556283012542_)"/><g><path d="m348.615 110.146c0 18.373-14.895 33.268-33.268 33.268s-33.268-14.895-33.268-33.268 14.895-25.949 33.268-25.949c18.374 0 33.268 7.575 33.268 25.949z" fill="url(#SVGID_00000027597871099264154790000008503488988202317999_)"/><path d="m320.463 84.404-8.775 8.775 32.88 32.88c2.58-4.727 4.047-10.149 4.047-15.913 0-16.634-12.207-24.417-28.152-25.742z" fill="url(#SVGID_00000087395036956651259890000008813434811267828609_)"/><path d="m315.314 95.232c-4.25-.801-6.946-5.038-5.843-9.22 4.147-15.725 15.956-50.725 41.467-64.495 3.855-2.081 8.658-.192 10.043 3.964l.289.867c1.062 3.187-.243 6.74-3.197 8.342-18.856 10.228-29.84 38.639-34.161 55.133-.99 3.78-4.758 6.133-8.598 5.409z" fill="url(#SVGID_00000032649049371858268350000011665662264939089594_)"/></g><path d="m328.77 117.974h-155.083c-1.619 5.796-1.658 12.088.236 18.267 5.405 17.637 24.454 27.664 42.548 22.395l93.681-27.279c7.924-2.309 14.351-7.168 18.618-13.383z" fill="url(#SVGID_00000176030535894206030170000000139017398747807933_)"/><path d="m337.264 153.031v30.341c-3.829 3.641-8.6 6.473-14.085 8.064l-119.739 34.86c-10.896 3.171-22.139.8-30.542-5.448v-52.972c3.199-2.39 6.887-4.262 10.971-5.448l119.739-34.86c.123-.036.246-.071.369-.105 16.746-4.683 33.287 8.18 33.287 25.568z" fill="url(#SVGID_00000181776997405313161080000009892686982390821019_)"/><path d="m337.264 153.031v30.341c-3.829 3.641-8.6 6.473-14.085 8.064l-119.739 34.86c-10.896 3.171-22.139.8-30.542-5.448v-52.972c3.199-2.39 6.887-4.262 10.971-5.448l119.739-34.86c.123-.036.246-.071.369-.105 16.746-4.683 33.287 8.18 33.287 25.568z" fill="url(#SVGID_00000178920394978525863220000001798355847435336343_)"/><path d="m283.014 117.974c3.521 14.595 16.657 25.44 32.333 25.44s28.812-10.846 32.333-25.44z" fill="url(#SVGID_00000163771147492248062220000006358895509191481778_)"/></g><path d="m352.16 187.19c0 46.83-6.88 90.15-18.53 125.34-17.66 53.34-46.3 88.01-78.63 88.01-32.83 0-61.86-35.75-79.44-90.5-11.16-34.73-17.72-77.11-17.72-122.85 0-12.59.495-24.932 1.45-36.93.683-8.585 7.84-15.161 16.45-15.336 24.316-.494 49.867 3.478 75.91 13.836 29.483 11.718 58.158 16.637 85.079 16.904 8.407.084 15.277 6.784 15.389 15.191.028 2.104.042 4.216.042 6.335z" fill="url(#SVGID_00000004507482850106553070000004102975941254697394_)"/><path d="m330.638 203.511c0 118.322-33.863 214.247-75.638 214.247s-75.638-95.926-75.638-214.247c0-9.194.205-18.254.602-27.144 1.059-23.698 21.721-42.367 46.779-42.367h56.513c25.058 0 45.721 18.669 46.779 42.367.398 8.89.603 17.95.603 27.144z" fill="url(#SVGID_00000109721598150384735680000006105205392538535045_)"/><path d="m276.216 203.511c0 118.322-9.498 214.247-21.216 214.247-11.717 0-21.216-95.926-21.216-214.247 0-17.37.205-34.259.591-50.432.254-10.609 9.413-19.079 20.625-19.079 11.212 0 20.371 8.47 20.624 19.08.386 16.173.592 33.062.592 50.431z" fill="url(#SVGID_00000044177879957800743380000012124122589026383784_)"/><path d="m156.532 311.681c20.562 63.717 56.972 106.078 98.468 106.078s77.906-42.361 98.468-106.078z" fill="url(#SVGID_00000179630733831268081730000007180610462115779003_)"/></g></g></svg>