<svg id="Capa_1" enable-background="new 0 0 510 510" height="512" viewBox="0 0 510 510" width="512" xmlns="http://www.w3.org/2000/svg" xmlns:xlink="http://www.w3.org/1999/xlink"><linearGradient id="SVGID_1_" gradientUnits="userSpaceOnUse" x1="133.167" x2="509.66" y1="255" y2="255"><stop offset="0" stop-color="#edf5ff"/><stop offset="1" stop-color="#c7e9ff"/></linearGradient><linearGradient id="lg1"><stop offset="0" stop-color="#fff" stop-opacity="0"/><stop offset=".3432" stop-color="#cde0f3" stop-opacity=".343"/><stop offset=".7872" stop-color="#92bae4" stop-opacity=".787"/><stop offset="1" stop-color="#7bacdf"/></linearGradient><linearGradient id="SVGID_2_" gradientUnits="userSpaceOnUse" x1="408.276" x2="105.465" xlink:href="#lg1" y1="561.384" y2="258.574"/><linearGradient id="SVGID_3_" gradientUnits="userSpaceOnUse" x1="321.413" x2="321.413" xlink:href="#lg1" y1="376.986" y2="526.754"/><linearGradient id="lg2"><stop offset="0" stop-color="#ffe177"/><stop offset=".207" stop-color="#ffd970"/><stop offset=".5288" stop-color="#ffc35e"/><stop offset=".9233" stop-color="#fe9f3f"/><stop offset="1" stop-color="#fe9738"/></linearGradient><linearGradient id="SVGID_4_" gradientUnits="userSpaceOnUse" x1="175.55" x2="467.022" xlink:href="#lg2" y1="304.037" y2="304.037"/><linearGradient id="lg3"><stop offset="0" stop-color="#fe9738" stop-opacity="0"/><stop offset=".2617" stop-color="#fe922f" stop-opacity=".262"/><stop offset=".6897" stop-color="#fe8417" stop-opacity=".69"/><stop offset="1" stop-color="#fe7701"/></linearGradient><linearGradient id="SVGID_5_" gradientUnits="userSpaceOnUse" x1="321.424" x2="321.424" xlink:href="#lg3" y1="423.075" y2="496.313"/><linearGradient id="SVGID_6_" gradientUnits="userSpaceOnUse" x1="416.93" x2="238.264" xlink:href="#lg3" y1="406.922" y2="359.589"/><linearGradient id="lg4"><stop offset="0" stop-color="#fff"/><stop offset="1" stop-color="#fff" stop-opacity="0"/></linearGradient><linearGradient id="SVGID_7_" gradientUnits="userSpaceOnUse" x1="351.707" x2="351.707" xlink:href="#lg4" y1="190.408" y2="232.787"/><linearGradient id="SVGID_8_" gradientUnits="userSpaceOnUse" x1="394.491" x2="394.491" xlink:href="#lg4" y1="305.534" y2="347.913"/><linearGradient id="SVGID_9_" gradientUnits="userSpaceOnUse" x1="294.84" x2="294.84" xlink:href="#lg4" y1="246.733" y2="318.927"/><linearGradient id="SVGID_10_" gradientTransform="matrix(.707 -.707 .707 .707 -172.057 -592.391)" gradientUnits="userSpaceOnUse" x1="-467.643" x2="-467.643" xlink:href="#lg2" y1="868.091" y2="1014.226"/><linearGradient id="SVGID_11_" gradientTransform="matrix(.707 -.707 .707 .707 -172.057 -592.391)" gradientUnits="userSpaceOnUse" x1="-467.643" x2="-467.643" xlink:href="#lg3" y1="937.786" y2="1017.966"/><linearGradient id="SVGID_12_" gradientUnits="userSpaceOnUse" x1="18.493" x2="173.058" y1="259.507" y2="414.073"><stop offset="0" stop-color="#ffe177"/><stop offset="1" stop-color="#97d729"/></linearGradient><linearGradient id="SVGID_13_" gradientTransform="matrix(.707 -.707 .707 .707 -172.057 -592.391)" gradientUnits="userSpaceOnUse" x1="-397.101" x2="-397.101" xlink:href="#lg3" y1="866.661" y2="937.727"/><linearGradient id="SVGID_14_" gradientTransform="matrix(.707 -.707 .707 .707 -172.057 -592.391)" gradientUnits="userSpaceOnUse" x1="-467.643" x2="-467.643" xlink:href="#lg3" y1="867.309" y2="972.397"/><linearGradient id="SVGID_15_" gradientTransform="matrix(.707 -.707 .707 .707 -172.057 -592.391)" gradientUnits="userSpaceOnUse" x1="-538.186" x2="-538.186" xlink:href="#lg3" y1="866.661" y2="937.727"/><linearGradient id="SVGID_16_" gradientUnits="userSpaceOnUse" x1="167.493" x2="245.033" y1="408.507" y2="486.048"><stop offset="0" stop-color="#017b4e" stop-opacity="0"/><stop offset="1" stop-color="#026841"/></linearGradient><g><g><path d="m401.947 510h-161.067c-34.788 0-63.88-26.435-67.202-61.063l-40.392-421.036c-1.435-14.958 10.325-27.901 25.352-27.901h325.55c15.027 0 26.788 12.943 25.353 27.901l-40.392 421.036c-3.322 34.628-32.414 61.063-67.202 61.063z" fill="url(#SVGID_1_)"/><path d="m240.077 249.579c-6.107-8.726-18.696-9.677-26.227-2.146l-54.294 54.294 14.123 147.209c3.321 34.629 32.413 61.064 67.201 61.064h161.067c26.467 0 49.624-15.31 60.656-37.88-57.704-57.666-222.18-222.045-222.526-222.541z" fill="url(#SVGID_2_)"/><path d="m161.131 318.149 12.547 130.788c3.322 34.628 32.414 61.063 67.202 61.063h161.067c34.788 0 63.88-26.434 67.202-61.063l12.547-130.788z" fill="url(#SVGID_3_)"/><path d="m451.53 132.77c10.243 4.5 16.441 15.065 15.372 26.202l-22.73 236.827c-4.938 51.569-48.269 90.943-100.07 90.943h-45.355c-51.801 0-95.133-39.373-100.07-90.943l-23.051-240.17c-1.144-11.921 10.955-20.674 21.92-15.858 11.72 5.148 23.241 10.21 23.241 10.21 24.302 10.675 63.688 10.675 87.99 0l46.967-20.641c24.289-10.675 63.688-10.675 87.977 0z" fill="url(#SVGID_4_)"/><path d="m191.338 319.342 7.338 76.456c4.938 51.569 48.269 90.943 100.07 90.943h45.355c51.802 0 95.133-39.373 100.07-90.943l7.338-76.456z" fill="url(#SVGID_5_)"/><path d="m429.588 439.125c-71.177-71.135-189.218-189.126-189.511-189.545-6.107-8.726-18.696-9.677-26.227-2.146l-26.837 26.837 11.664 121.528c4.938 51.569 48.269 90.943 100.07 90.943h45.355c35.87-.001 67.674-18.883 85.486-47.617z" fill="url(#SVGID_6_)"/><circle cx="351.707" cy="211.193" fill="url(#SVGID_7_)" r="19.019"/><circle cx="394.491" cy="326.319" fill="url(#SVGID_8_)" r="19.019"/><circle cx="294.84" cy="282.141" fill="url(#SVGID_9_)" r="32.399"/></g><g><path d="m5.419 453.864c-7.531 7.531-6.58 20.12 2.146 26.227 64.842 45.379 154.828 39.121 212.73-18.781s64.16-147.888 18.781-212.73c-6.107-8.726-18.696-9.677-26.227-2.146z" fill="url(#SVGID_10_)"/><path d="m56.234 503.389c56.345 16.362 119.643 2.339 164.062-42.08s58.442-107.717 42.08-164.062z" fill="url(#SVGID_11_)"/><path d="m212.849 246.433-7.503 7.503c50.001 53.376 48.96 137.187-3.139 189.286s-135.91 53.139-189.286 3.139l-7.503 7.503c-7.531 7.531-6.58 20.12 2.146 26.227 64.842 45.379 154.828 39.121 212.73-18.781s64.16-147.888 18.781-212.73c-6.105-8.727-18.694-9.678-26.226-2.147z" fill="url(#SVGID_12_)"/><g><path d="m126.264 333.019 76.562 20.343c10.743 2.855 20.989-5.889 19.952-16.957-2.339-24.959-12.668-49.309-31.011-68.89z" fill="url(#SVGID_13_)"/><path d="m109.205 350.078-.141.141 24.656 92.793c2.532 9.528 13.056 14.566 21.998 10.415 12.075-5.606 23.391-13.379 33.353-23.342 9.962-9.962 17.736-21.278 23.342-33.353 4.151-8.942-.887-19.467-10.415-21.998z" fill="url(#SVGID_14_)"/><path d="m26.501 432.782c19.581 18.343 43.93 28.672 68.89 31.011 11.068 1.037 19.812-9.209 16.957-19.952l-20.343-76.562z" fill="url(#SVGID_15_)"/></g><path d="m239.434 320.189c8.607 43.123-3.799 89.606-37.226 123.033s-79.911 45.833-123.033 37.226l-22.941 22.941c56.345 16.362 119.643 2.339 164.062-42.08s58.442-107.717 42.08-164.062z" fill="url(#SVGID_16_)"/></g></g></svg>